SplineFontDB: 1.0
FontName: Garuda-Oblique
FullName: Garuda Oblique
FamilyName: Garuda
Weight: Book
Copyright: Generated by NECTEC for Public Domain\n\nModified under GNU General Public License by TLWG
Version: 2.51: 2007-04-03
ItalicAngle: -12
UnderlinePosition: -27
UnderlineWidth: 10
Ascent: 840
Descent: 160
NeedsXUIDChange: 1
FSType: 0
OS2Version: 0
OS2_WeightWidthSlopeOnly: 0
OS2_UseTypoMetrics: 0
CreationTime: 1153661469
ModificationTime: 1175582897
PfmFamily: 33
TTFWeight: 400
TTFWidth: 5
LineGap: 0
VLineGap: 0
Panose: 2 11 6 4 2 2 2 2 2 4
OS2TypoAscent: 0
OS2TypoAOffset: 1
OS2TypoDescent: 0
OS2TypoDOffset: 1
OS2TypoLinegap: 0
OS2WinAscent: 0
OS2WinAOffset: 1
OS2WinDescent: 0
OS2WinDOffset: 1
HheadAscent: 0
HheadAOffset: 1
HheadDescent: 0
HheadDOffset: 1
OS2Vendor: 'PfEd'
ScriptLang: 3
 1 latn 1 dflt 
 1 thai 4 KUY  PAL  THA  dflt 
 1 thai 1 PAL  
ChainSub: class 0 1 'ccmp' 7 7 1 5
  Class: 414 uni0E01 uni0E02 uni0E03 uni0E04 uni0E05 uni0E06 uni0E07 uni0E08 uni0E09 uni0E0A uni0E0B uni0E0C uni0E0D uni0E0E uni0E0F uni0E10 uni0E11 uni0E12 uni0E13 uni0E14 uni0E15 uni0E16 uni0E17 uni0E18 uni0E19 uni0E1A uni0E1B uni0E1C uni0E1D uni0E1E uni0E1F uni0E20 uni0E21 uni0E22 uni0E23 uni0E24 uni0E25 uni0E26 uni0E27 uni0E28 uni0E29 uni0E2A uni0E2B uni0E2C uni0E2D uni0E2E uni0E10.descless uni0E0D.descless dottedcircle
  Class: 7 uni0E33
  Class: 39 uni0E48 uni0E49 uni0E4A uni0E4B uni0E4C
  Class: 23 uni0E38 uni0E39 uni0E3A
  Class: 39 uni0E31 uni0E34 uni0E35 uni0E36 uni0E37
  Class: 7 uni0E4D
  BClass: 414 uni0E01 uni0E02 uni0E03 uni0E04 uni0E05 uni0E06 uni0E07 uni0E08 uni0E09 uni0E0A uni0E0B uni0E0C uni0E0D uni0E0E uni0E0F uni0E10 uni0E11 uni0E12 uni0E13 uni0E14 uni0E15 uni0E16 uni0E17 uni0E18 uni0E19 uni0E1A uni0E1B uni0E1C uni0E1D uni0E1E uni0E1F uni0E20 uni0E21 uni0E22 uni0E23 uni0E24 uni0E25 uni0E26 uni0E27 uni0E28 uni0E29 uni0E2A uni0E2B uni0E2C uni0E2D uni0E2E uni0E10.descless uni0E0D.descless dottedcircle
  BClass: 7 uni0E33

StartChar: .notdef
Encoding: 0 -1 0
Width: 766
VWidth: 2048
Flags: W
HStem: 0 95<212 671> 1193 95<369 828>
Fore
95 0 m 1
 369 1288 l 1
 946 1288 l 1
 671 0 l 1
 95 0 l 1
212 95 m 1
 595 95 l 1
 828 1193 l 1
 445 1193 l 1
 212 95 l 1
EndSplineSet
EndChar
StartChar: exclam
Encoding: 33 33 2
Width: 277
VWidth: 2048
Flags: W
HStem: 0 21G<90 192>
Fore
152 178 m 1
 204 558 l 1
 238 716 l 1
 346 716 l 1
 313 558 l 1
 208 178 l 1
 152 178 l 1
90 0 m 1
 112 100 l 1
 213 100 l 1
 192 0 l 1
 90 0 l 1
EndSplineSet
EndChar
StartChar: quotedbl
Encoding: 34 34 3
Width: 354
VWidth: 2048
Flags: W
Fore
169 463 m 1
 173 599 l 1
 198 716 l 1
 297 716 l 1
 273 599 l 1
 222 463 l 1
 169 463 l 1
330 463 m 1
 336 599 l 1
 360 716 l 1
 460 716 l 1
 435 599 l 1
 383 463 l 1
 330 463 l 1
EndSplineSet
EndChar
StartChar: numbersign
Encoding: 35 35 4
Width: 556
VWidth: 2048
Flags: W
HStem: -12 21G<48 121 274 348> 196 72<66 135 238 360 464 586> 446 72<120 239 342 466 570 639>
Fore
48 -12 m 1
 135 196 l 1
 52 196 l 1
 67 268 l 1
 164 268 l 1
 239 446 l 1
 106 446 l 1
 121 518 l 1
 270 518 l 1
 356 728 l 1
 429 728 l 1
 342 518 l 1
 495 518 l 1
 582 728 l 1
 656 728 l 1
 570 518 l 1
 655 518 l 1
 639 446 l 1
 540 446 l 1
 464 268 l 1
 601 268 l 1
 586 196 l 1
 435 196 l 1
 348 -12 l 1
 274 -12 l 1
 360 196 l 1
 207 196 l 1
 121 -12 l 1
 48 -12 l 1
238 268 m 1
 391 268 l 1
 466 446 l 1
 313 446 l 1
 238 268 l 1
EndSplineSet
EndChar
StartChar: dollar
Encoding: 36 36 5
Width: 556
VWidth: 2048
Flags: W
VStem: 75 94<155 189> 161 90<495 521> 463 96<225 251> 518 94<564 581.174>
Fore
228 -103 m 1x20
 247 -15 l 1
 132 0 75 57 75 155 c 0
 75 169 77 184 78 199 c 1
 170 216 l 1
 169 207 169 198 169 189 c 0xa0
 169 110 199 67 262 60 c 1
 322 339 l 1
 215 363 161 415 161 495 c 0
 161 509 162 524 166 541 c 0
 178 599 207 647 251 682 c 0
 293 714 345 734 408 740 c 1
 415 782 l 1
 466 782 l 1
 458 740 l 1
 561 730 612 677 612 584 c 0
 612 578 612 572 612 564 c 1
 518 550 l 1
 518 553 518 558 518 561 c 0x50
 518 621 494 655 441 667 c 1
 388 412 l 1
 501 388 559 334 559 251 c 0
 559 236 556 221 553 204 c 0
 541 141 510 90 463 51 c 0
 414 11 362 -11 297 -14 c 1
 279 -103 l 1
 228 -103 l 1x20
391 667 m 1
 345 661 308 639 281 602 c 0
 267 586 259 567 254 547 c 0
 253 538 251 529 251 521 c 0x40
 251 475 281 443 340 423 c 1
 391 667 l 1
313 60 m 1
 351 64 382 78 408 104 c 0
 435 130 452 161 460 198 c 0
 461 207 463 216 463 225 c 0x20
 463 273 432 307 369 326 c 1
 313 60 l 1
EndSplineSet
EndChar
StartChar: percent
Encoding: 37 37 6
Width: 889
VWidth: 2048
Flags: W
HStem: -26 60<667 684> 291 62<734 748> 349 62<284 301> 668 60<352 365>
VStem: 166 76<480 487> 411 76<582.093 615> 549 76<86.8239 119> 794 75<213 231>
Fore
173 544 m 0xbf
 190 618 224 671 277 704 c 0
 303 720 331 728 363 728 c 0
 423 728 461 702 480 648 c 0
 484 635 487 619 487 601 c 0
 487 582 484 561 480 540 c 0
 468 486 446 443 414 408 c 0
 377 369 334 349 284 349 c 0
 231 349 196 369 179 411 c 0
 170 431 166 454 166 480 c 0
 166 500 169 521 173 544 c 0xbf
354 668 m 0
 302 668 268 624 248 535 c 0
 244 513 242 495 242 480 c 0
 242 434 261 411 299 411 c 0
 349 411 385 454 403 543 c 0
 408 564 411 584 411 599 c 0
 411 645 391 668 354 668 c 0
205 -26 m 1
 759 728 l 1
 829 728 l 1
 279 -26 l 1
 205 -26 l 1
556 169 m 0
 573 244 609 297 664 330 c 0
 688 345 716 353 746 353 c 0xdf
 799 353 834 333 854 294 c 0
 864 274 869 248 869 221 c 0
 869 202 868 184 863 162 c 0
 851 109 829 66 797 32 c 0
 762 -6 717 -26 667 -26 c 0
 609 -26 572 0 556 55 c 0
 552 71 549 86 549 104 c 0
 549 124 552 144 556 169 c 0
736 291 m 0
 685 291 650 248 632 159 c 0
 627 138 625 121 625 104 c 0
 625 58 644 34 682 34 c 0
 733 34 768 78 786 166 c 0
 791 187 794 207 794 222 c 0
 794 268 774 291 736 291 c 0
EndSplineSet
EndChar
StartChar: ampersand
Encoding: 38 38 7
Width: 666
VWidth: 2048
Flags: W
HStem: -12 76<267 289> 656 72<444 466>
VStem: 80 98<154 176> 251 94<544 559> 512 92<590 609>
Fore
494 84 m 1
 422 20 346 -12 267 -12 c 0
 181 -12 123 21 95 90 c 0
 84 112 80 135 80 158 c 0
 80 172 81 184 84 198 c 0
 104 287 176 357 300 412 c 1
 268 463 251 506 251 544 c 0
 251 552 253 561 254 569 c 0
 264 616 291 655 333 685 c 0
 374 714 417 728 466 728 c 0
 530 728 575 704 595 655 c 0
 601 641 604 625 604 609 c 0
 604 598 604 587 601 575 c 0
 586 507 527 449 428 402 c 1
 521 238 l 1
 543 267 559 299 576 337 c 1
 664 317 l 1
 635 254 602 204 569 162 c 1
 592 120 619 83 655 54 c 1
 582 -17 l 1
 552 6 523 40 494 84 c 1
394 458 m 1
 461 494 501 532 509 573 c 0
 510 581 512 589 512 596 c 0
 512 610 507 622 500 633 c 0
 487 648 469 656 446 656 c 0
 422 656 402 648 382 635 c 0
 363 619 351 599 346 576 c 0
 345 570 345 566 345 559 c 0
 345 541 351 523 365 503 c 2
 394 458 l 1
452 155 m 1
 334 354 l 1
 242 305 192 256 181 202 c 0
 179 192 178 181 178 170 c 0
 178 147 184 126 199 106 c 0
 219 78 248 64 285 64 c 0
 346 64 402 95 452 155 c 1
EndSplineSet
EndChar
StartChar: quotesingle
Encoding: 39 39 8
Width: 190
VWidth: 2048
Flags: W
Fore
164 463 m 1
 172 596 l 1
 196 716 l 1
 296 716 l 1
 271 596 l 1
 219 463 l 1
 164 463 l 1
EndSplineSet
EndChar
StartChar: parenleft
Encoding: 40 40 9
Width: 332
VWidth: 2048
Flags: W
VStem: 101 89<77 127>
Fore
190 -210 m 1
 130 -107 101 0 101 112 c 0
 101 159 106 208 116 259 c 0
 150 418 241 575 389 728 c 1
 452 728 l 1
 320 569 239 412 207 259 c 0
 195 205 190 152 190 98 c 0
 190 -5 210 -107 253 -210 c 1
 190 -210 l 1
EndSplineSet
EndChar
StartChar: parenright
Encoding: 41 41 10
Width: 332
VWidth: 2048
Flags: W
VStem: 281 87<395 431>
Fore
80 -210 m 1
 17 -210 l 1
 147 -54 228 103 262 259 c 0
 274 319 281 376 281 429 c 0
 281 477 276 521 267 564 c 0
 258 605 241 661 216 728 c 1
 279 728 l 1
 337 619 368 509 368 397 c 0
 368 351 362 305 353 259 c 0
 317 94 225 -64 80 -210 c 1
EndSplineSet
EndChar
StartChar: asterisk
Encoding: 42 42 11
Width: 387
VWidth: 2048
Flags: W
Fore
156 584 m 1
 193 655 l 1
 241 636 276 621 296 607 c 1
 302 665 308 707 313 728 c 1
 382 728 l 1
 376 696 362 656 345 607 c 1
 383 624 425 639 471 655 c 1
 478 584 l 1
 434 572 392 563 351 558 c 1
 368 540 389 509 415 464 c 1
 348 423 l 1
 334 449 319 484 303 529 c 1
 270 483 241 448 218 423 c 1
 167 464 l 1
 216 512 250 543 270 558 c 1
 228 566 192 575 156 584 c 1
EndSplineSet
EndChar
StartChar: plus
Encoding: 43 43 12
Width: 583
VWidth: 2048
Flags: W
HStem: 313 81<138 317 418 595>
Fore
276 116 m 1
 317 313 l 1
 121 313 l 1
 139 394 l 1
 336 394 l 1
 377 589 l 1
 460 589 l 1
 418 394 l 1
 613 394 l 1
 595 313 l 1
 400 313 l 1
 359 116 l 1
 276 116 l 1
EndSplineSet
EndChar
StartChar: comma
Encoding: 44 44 13
Width: 277
VWidth: 2048
Flags: W
HStem: -20 20G<89 138>
Fore
89 0 m 1
 110 100 l 1
 212 100 l 1
 190 0 l 2
 175 -71 138 -118 77 -141 c 1
 61 -104 l 1
 100 -89 126 -54 138 0 c 1
 89 0 l 1
EndSplineSet
EndChar
StartChar: hyphen
Encoding: 45 45 14
AltUni: 8208
Width: 332
VWidth: 2048
Flags: W
HStem: 215 88<96 348>
Fore
78 215 m 1
 97 303 l 1
 366 303 l 1
 348 215 l 1
 78 215 l 1
EndSplineSet
EndChar
StartChar: period
Encoding: 46 46 15
Width: 277
VWidth: 2048
Flags: W
HStem: 0 21G<90 192>
Fore
90 0 m 1
 112 100 l 1
 213 100 l 1
 192 0 l 1
 90 0 l 1
EndSplineSet
EndChar
StartChar: slash
Encoding: 47 47 16
Width: 277
VWidth: 2048
Flags: W
HStem: -12 21G<-3 67>
Fore
-3 -12 m 1
 362 728 l 1
 432 728 l 1
 67 -12 l 1
 -3 -12 l 1
EndSplineSet
EndChar
StartChar: zero
Encoding: 48 48 17
Width: 556
VWidth: 2048
Flags: W
HStem: -12 72<271 290> 647 72<410 429>
VStem: 97 92<179 213> 512 92<483 517>
Fore
116 353 m 0
 169 598 273 719 429 719 c 0
 546 719 604 651 604 513 c 0
 604 468 598 414 584 353 c 0
 532 110 428 -12 273 -12 c 0
 156 -12 97 57 97 193 c 0
 97 239 104 291 116 353 c 0
207 353 m 0
 195 293 189 242 189 201 c 0
 189 107 221 60 288 60 c 0
 383 60 452 158 494 353 c 0
 506 412 512 463 512 504 c 0
 512 599 480 647 412 647 c 0
 317 647 248 549 207 353 c 0
EndSplineSet
EndChar
StartChar: one
Encoding: 49 49 18
Width: 556
VWidth: 2048
Flags: W
HStem: 0 21G<285 372>
Fore
372 0 m 1
 285 0 l 1
 405 561 l 1
 346 515 282 480 205 454 c 1
 224 540 l 1
 336 587 418 647 469 719 c 1
 526 719 l 1
 372 0 l 1
EndSplineSet
EndChar
StartChar: two
Encoding: 50 50 19
Width: 556
VWidth: 2048
Flags: W
HStem: 0 84<169 501> 647 72<411 433>
VStem: 524 94<551 567>
Fore
520 84 m 1
 501 0 l 1
 28 0 l 1
 43 75 124 164 268 265 c 0
 322 303 360 330 380 348 c 0
 423 382 457 414 481 445 c 0
 501 472 517 498 521 523 c 0
 524 533 524 544 524 553 c 0
 524 576 517 596 501 613 c 0
 480 636 451 647 414 647 c 0
 369 647 333 633 302 609 c 0
 271 582 251 547 242 503 c 1
 153 512 l 1
 195 650 288 719 431 719 c 0
 494 719 543 702 578 668 c 0
 604 641 618 609 618 567 c 0
 618 552 615 536 612 520 c 0
 601 466 564 409 503 351 c 0
 472 322 415 279 336 222 c 0
 282 184 253 162 248 159 c 0
 213 133 187 107 169 84 c 1
 520 84 l 1
EndSplineSet
EndChar
StartChar: three
Encoding: 51 51 20
Width: 556
VWidth: 2048
Flags: W
HStem: -12 72<265 290> 349 66<314 351> 647 72<395 422>
VStem: 80 93<166 195> 466 95<244 265> 501 94<562 577>
Fore
81 190 m 1xf8
 173 201 l 1
 173 199 173 198 173 195 c 0
 173 106 210 60 282 60 c 0
 325 60 363 74 397 103 c 0
 431 132 452 167 461 210 c 0
 464 222 466 233 466 245 c 0xf8
 466 270 458 291 445 310 c 0
 425 336 392 349 351 349 c 0
 334 349 314 345 288 339 c 1
 314 415 l 1
 336 415 l 2
 346 415 362 417 380 422 c 0
 448 437 486 475 498 535 c 0
 501 546 501 555 501 564 c 0
 501 586 495 602 483 616 c 0
 466 636 440 647 406 647 c 0
 333 647 281 604 248 518 c 1
 164 533 l 1
 213 658 299 719 420 719 c 0
 478 719 524 704 556 671 c 0
 581 645 595 613 595 575 c 0xf4
 595 561 593 547 590 533 c 0
 576 466 532 418 460 388 c 1
 527 372 561 331 561 265 c 0
 561 248 559 231 555 212 c 0
 541 144 507 90 452 49 c 0
 395 8 334 -12 267 -12 c 0
 181 -12 126 18 95 83 c 0
 86 106 80 135 80 166 c 0
 80 173 81 182 81 190 c 1xf8
EndSplineSet
EndChar
StartChar: four
Encoding: 52 52 21
Width: 556
VWidth: 2048
Flags: W
HStem: 0 21G<323 412> 172 81<153 360 466 546>
Fore
323 0 m 1
 360 172 l 1
 49 172 l 1
 66 253 l 1
 492 716 l 1
 564 716 l 1
 466 253 l 1
 563 253 l 1
 546 172 l 1
 449 172 l 1
 412 0 l 1
 323 0 l 1
377 253 m 1
 446 575 l 1
 153 253 l 1
 377 253 l 1
EndSplineSet
EndChar
StartChar: five
Encoding: 53 53 22
Width: 556
VWidth: 2048
Flags: W
HStem: -12 72<266 289> 397 78<354 394> 622 85<277 615>
VStem: 80 95<156 189> 478 97<277 299>
Fore
81 189 m 1
 175 195 l 1
 175 190 175 184 175 179 c 0
 175 101 210 60 284 60 c 0
 339 60 388 86 429 136 c 0
 451 164 464 196 474 235 c 0
 477 250 478 265 478 279 c 0
 478 308 472 333 458 353 c 0
 437 383 403 397 354 397 c 0
 297 397 250 374 208 328 c 1
 129 339 l 1
 277 707 l 1
 633 707 l 1
 615 622 l 1
 328 622 l 1
 251 429 l 1
 300 460 348 475 394 475 c 0
 483 475 540 438 564 363 c 0
 572 343 575 322 575 297 c 0
 575 281 573 262 569 242 c 0
 547 141 490 66 400 20 c 0
 360 -2 316 -12 268 -12 c 0
 205 -12 156 6 124 40 c 0
 94 69 80 109 80 156 c 0
 80 167 80 178 81 189 c 1
EndSplineSet
EndChar
StartChar: six
Encoding: 54 54 23
Width: 556
VWidth: 2048
Flags: W
HStem: -12 72<282 301> 386 78<365 397> 647 72<424 448>
VStem: 92 90<179 197> 474 93<275 294> 524 89<535 558>
Fore
613 541 m 1xf4
 524 535 l 1xf4
 523 609 492 647 426 647 c 0
 365 647 313 613 271 547 c 0
 241 500 219 440 204 369 c 1
 259 434 323 464 397 464 c 0
 461 464 507 441 538 394 c 0
 558 365 567 333 567 294 c 0xf8
 567 276 564 254 559 233 c 0
 546 162 512 104 464 60 c 0
 414 12 353 -12 284 -12 c 0
 156 -12 92 57 92 195 c 0
 92 235 97 282 109 336 c 0
 162 592 276 719 448 719 c 0
 524 719 575 691 599 638 c 0
 610 616 613 589 613 558 c 0
 613 553 613 547 613 541 c 1xf4
187 231 m 0
 184 215 182 199 182 185 c 0
 182 158 189 135 201 113 c 0
 221 78 251 60 297 60 c 0
 340 60 380 78 412 113 c 0
 440 144 458 182 468 227 c 0
 472 245 474 262 474 277 c 0xf8
 474 317 460 348 432 368 c 0
 415 380 392 386 365 386 c 0
 308 386 261 362 225 314 c 0
 207 290 195 264 187 231 c 0
EndSplineSet
EndChar
StartChar: seven
Encoding: 55 55 24
Width: 556
VWidth: 2048
Flags: W
HStem: 0 21G<147 238> 622 85<197 530>
Fore
179 622 m 1
 198 707 l 1
 661 707 l 1
 647 639 l 1
 553 558 471 458 395 343 c 0
 320 227 270 112 238 0 c 1
 147 0 l 1
 173 106 221 216 293 331 c 0
 362 443 441 541 530 622 c 1
 179 622 l 1
EndSplineSet
EndChar
StartChar: eight
Encoding: 56 56 25
Width: 556
VWidth: 2048
Flags: W
HStem: -12 72<270 292> 351 71<347 368> 647 72<403 431>
VStem: 78 92<153 172> 178 93<496 517> 471 90<239 256> 509 92<558 576>
Fore
259 388 m 1xfc
 207 411 178 446 178 498 c 0
 178 510 179 521 182 535 c 0
 198 602 239 655 307 691 c 0
 342 710 383 719 429 719 c 0
 509 719 563 691 589 633 c 0
 596 616 601 598 601 576 c 0xfa
 601 563 599 547 596 532 c 0
 581 463 536 415 461 388 c 1
 527 365 561 320 561 256 c 0
 561 241 559 224 555 205 c 0
 541 139 507 86 452 46 c 0
 400 8 340 -12 273 -12 c 0
 205 -12 155 8 118 46 c 0
 92 75 78 112 78 155 c 0
 78 172 80 189 84 207 c 0
 104 303 164 365 259 388 c 1xfc
274 538 m 0
 271 527 271 517 271 507 c 0
 271 486 276 469 288 454 c 0
 307 432 331 422 366 422 c 0
 399 422 429 432 457 452 c 0
 483 474 498 500 506 533 c 0
 507 543 509 550 509 559 c 0
 509 581 503 599 489 615 c 0
 472 636 448 647 414 647 c 0
 382 647 351 636 323 616 c 0
 297 596 281 569 274 538 c 0
175 207 m 0
 172 193 170 181 170 170 c 0
 170 143 178 120 193 101 c 0
 215 74 247 60 290 60 c 0
 333 60 371 74 403 100 c 0
 437 127 457 161 466 204 c 0
 469 216 471 228 471 241 c 0xfc
 471 267 463 290 446 310 c 0
 425 337 392 351 349 351 c 0
 296 351 250 328 215 285 c 0
 195 264 181 238 175 207 c 0
EndSplineSet
EndChar
StartChar: nine
Encoding: 57 57 26
Width: 556
VWidth: 2048
Flags: W
HStem: -12 72<252 272> 242 78<307 343> 647 72<408 426>
VStem: 89 87<139 167> 136 92<417 436> 523 87<515 533>
Fore
90 166 m 1xf4
 176 173 l 1
 176 172 176 170 176 167 c 0xf4
 176 97 205 60 270 60 c 0
 342 60 402 103 448 190 c 0
 466 224 480 258 486 290 c 2
 497 337 l 1
 443 274 380 242 307 242 c 0
 242 242 195 267 162 313 c 0
 146 342 136 377 136 417 c 0xec
 136 435 138 457 143 478 c 0
 164 575 215 645 297 690 c 0
 334 710 376 719 420 719 c 0
 515 719 576 674 602 586 c 0
 607 567 610 546 610 521 c 0
 610 481 604 432 592 372 c 0
 536 116 425 -12 253 -12 c 0
 181 -12 132 14 106 64 c 0
 95 84 89 110 89 139 c 0
 89 147 89 156 90 166 c 1xf4
518 481 m 0
 521 497 523 512 523 526 c 0
 523 552 517 575 506 595 c 0
 489 630 458 647 415 647 c 0
 371 647 331 628 294 593 c 0
 264 559 242 521 233 475 c 0
 230 461 228 448 228 434 c 0xec
 228 408 235 386 248 366 c 0
 270 336 300 320 343 320 c 0
 388 320 428 337 458 369 c 0
 487 399 509 437 518 481 c 0
EndSplineSet
EndChar
StartChar: colon
Encoding: 58 58 27
Width: 277
VWidth: 2048
Flags: W
HStem: 0 21G<90 192>
Fore
179 418 m 1
 201 518 l 1
 302 518 l 1
 281 418 l 1
 179 418 l 1
90 0 m 1
 112 100 l 1
 213 100 l 1
 192 0 l 1
 90 0 l 1
EndSplineSet
EndChar
StartChar: semicolon
Encoding: 59 59 28
Width: 277
VWidth: 2048
Flags: W
HStem: -20 20G<89 138>
Fore
178 418 m 1
 199 518 l 1
 300 518 l 1
 279 418 l 1
 178 418 l 1
89 0 m 1
 110 100 l 1
 212 100 l 1
 190 0 l 2
 175 -71 138 -118 77 -141 c 1
 61 -104 l 1
 100 -89 126 -54 138 0 c 1
 89 0 l 1
EndSplineSet
EndChar
StartChar: less
Encoding: 60 60 29
Width: 583
VWidth: 2048
Flags: W
Fore
121 313 m 1
 139 395 l 1
 656 596 l 1
 638 509 l 1
 228 354 l 1
 570 198 l 1
 552 110 l 1
 121 313 l 1
EndSplineSet
EndChar
StartChar: equal
Encoding: 61 61 30
Width: 583
VWidth: 2048
Flags: W
HStem: 204 83<115 572> 422 81<161 618>
Fore
618 422 m 1
 144 422 l 1
 162 503 l 1
 636 503 l 1
 618 422 l 1
572 204 m 1
 98 204 l 1
 116 287 l 1
 590 287 l 1
 572 204 l 1
EndSplineSet
EndChar
StartChar: greater
Encoding: 62 62 31
Width: 583
VWidth: 2048
Flags: W
Fore
595 313 m 1
 78 110 l 1
 97 198 l 1
 506 354 l 1
 164 509 l 1
 182 596 l 1
 613 395 l 1
 595 313 l 1
EndSplineSet
EndChar
StartChar: question
Encoding: 63 63 32
Width: 556
VWidth: 2048
Flags: W
HStem: 0 21G<225 325> 656 72<410 433>
VStem: 530 94<556 576>
Fore
267 176 m 1
 274 207 l 1
 281 242 294 276 319 308 c 0
 328 323 340 337 353 349 c 1
 392 377 441 418 503 475 c 1
 515 490 524 509 527 527 c 0
 530 538 530 547 530 556 c 0
 530 590 517 618 486 639 c 0
 466 650 443 656 417 656 c 0
 337 656 279 609 244 510 c 1
 155 521 l 1
 201 659 293 728 431 728 c 0
 523 728 582 697 612 635 c 0
 619 616 624 598 624 576 c 0
 624 563 622 549 619 533 c 0
 610 490 582 451 538 414 c 0
 494 377 454 342 418 308 c 0
 389 279 368 236 353 176 c 1
 267 176 l 1
225 0 m 1
 247 100 l 1
 346 100 l 1
 325 0 l 1
 225 0 l 1
EndSplineSet
EndChar
StartChar: at
Encoding: 64 64 33
Width: 1014
VWidth: 2048
Flags: W
HStem: -210 72<484 538> -2 73<417 451> 457 73<594 609> 658 72<660 698>
VStem: 89 77<109 143> 279 92<153 175> 964 75<410 443>
Fore
584 80 m 1
 527 26 471 -2 417 -2 c 0
 362 -2 322 21 300 69 c 0
 287 95 279 124 279 156 c 0
 279 176 282 196 287 218 c 0
 297 270 320 320 357 371 c 0
 395 425 437 464 486 492 c 0
 530 517 572 530 607 530 c 0
 670 530 711 500 734 440 c 1
 766 515 l 1
 854 515 l 1
 714 189 l 2
 696 144 685 118 685 112 c 0
 684 107 684 104 684 101 c 0
 684 87 693 80 711 80 c 0
 746 80 791 104 846 155 c 0
 903 205 941 271 956 349 c 0
 963 374 964 399 964 420 c 0
 964 483 943 536 901 578 c 0
 848 632 771 658 674 658 c 0
 587 658 507 636 432 593 c 0
 359 550 297 490 247 412 c 0
 215 357 190 299 178 238 c 0
 170 201 166 166 166 133 c 0
 166 25 213 -51 307 -95 c 0
 366 -124 437 -138 518 -138 c 0
 679 -138 805 -89 894 9 c 1
 981 9 l 1
 932 -64 858 -121 763 -159 c 0
 681 -193 595 -210 504 -210 c 0
 302 -210 173 -146 116 -15 c 0
 98 23 89 67 89 116 c 0
 89 152 94 189 103 228 c 0
 133 372 207 495 319 595 c 0
 423 685 546 730 693 730 c 0
 811 730 903 696 966 628 c 0
 1015 576 1039 512 1039 437 c 0
 1039 408 1036 379 1030 348 c 0
 1013 264 967 187 897 115 c 0
 822 37 743 -2 662 -2 c 0
 610 -2 582 18 582 58 c 0
 582 64 582 72 584 80 c 1
376 212 m 0
 372 196 371 182 371 169 c 0
 371 150 374 133 380 118 c 0
 394 86 417 71 451 71 c 0
 504 71 553 100 602 158 c 0
 642 208 668 261 681 317 c 0
 684 333 685 346 685 360 c 0
 685 380 681 399 673 414 c 0
 659 441 633 457 596 457 c 0
 546 457 497 428 452 369 c 0
 412 319 388 267 376 212 c 0
EndSplineSet
EndChar
StartChar: A
Encoding: 65 65 34
Width: 666
VWidth: 2048
Flags: W
HStem: 0 21G<-2 100 561 670> 218 76<268 524>
Fore
-2 0 m 1
 426 716 l 1
 527 716 l 1
 670 0 l 1
 561 0 l 1
 524 218 l 1
 224 218 l 1
 100 0 l 1
 -2 0 l 1
268 294 m 1
 510 294 l 1
 478 492 l 2
 468 558 461 607 458 641 c 1
 441 596 417 550 391 504 c 2
 268 294 l 1
EndSplineSet
EndChar
StartChar: B
Encoding: 66 66 35
Width: 666
VWidth: 2048
Flags: W
HStem: 0 84<187 379> 331 84<258 427> 632 84<225 475>
VStem: 563 101<237 253> 601 96<554 576>
Fore
74 0 m 1xf0
 225 716 l 1
 494 716 l 2
 559 716 612 702 648 676 c 0
 681 651 697 618 697 576 c 0xe8
 697 563 696 549 693 533 c 0
 677 464 633 414 559 382 c 1
 628 359 664 316 664 251 c 0
 664 238 662 222 659 207 c 0
 630 69 526 0 346 0 c 2
 74 0 l 1xf0
258 415 m 1
 412 415 l 2
 483 415 533 429 561 455 c 0
 579 472 590 494 596 521 c 0
 599 533 601 544 601 555 c 0
 601 593 582 615 546 624 c 0
 521 628 489 632 446 632 c 2
 303 632 l 1
 258 415 l 1
187 84 m 1
 365 84 l 2
 415 84 455 92 484 106 c 0
 524 126 549 159 559 207 c 0
 563 219 563 230 563 239 c 0xf0
 563 273 550 296 524 311 c 0
 500 323 460 331 405 331 c 2
 239 331 l 1
 187 84 l 1
EndSplineSet
EndChar
StartChar: C
Encoding: 67 67 36
Width: 721
VWidth: 2048
Flags: W
HStem: -12 81<370 404> 647 81<514 545>
VStem: 115 98<243 277>
Fore
642 251 m 1
 731 227 l 1
 656 67 540 -12 383 -12 c 0
 273 -12 196 23 152 95 c 0
 127 136 115 187 115 248 c 0
 115 284 118 322 127 363 c 0
 150 472 198 559 270 625 c 0
 343 694 435 728 543 728 c 0
 691 728 769 659 782 520 c 1
 684 498 l 1
 673 598 619 647 524 647 c 0
 443 647 376 619 322 564 c 0
 274 515 242 449 224 363 c 0
 216 326 213 291 213 261 c 0
 213 222 219 187 231 159 c 0
 259 100 313 69 394 69 c 0
 507 69 590 130 642 251 c 1
EndSplineSet
EndChar
StartChar: D
Encoding: 68 68 37
Width: 721
VWidth: 2048
Flags: W
HStem: 0 84<190 366> 632 84<228 483>
VStem: 661 99<461 482>
Fore
77 0 m 1
 228 716 l 1
 475 716 l 2
 579 716 653 696 694 658 c 0
 739 616 760 556 760 480 c 0
 760 445 756 405 746 362 c 0
 696 121 558 0 336 0 c 2
 77 0 l 1
190 84 m 1
 343 84 l 2
 400 84 446 92 481 107 c 0
 524 126 561 158 589 205 c 0
 615 248 636 300 648 363 c 0
 656 400 661 434 661 463 c 0
 661 503 653 536 638 563 c 0
 612 609 553 632 457 632 c 2
 307 632 l 1
 190 84 l 1
EndSplineSet
EndChar
StartChar: E
Encoding: 69 69 38
Width: 666
VWidth: 2048
Flags: W
HStem: 0 84<192 613> 328 84<261 639> 632 84<231 733>
Fore
80 0 m 1
 231 716 l 1
 750 716 l 1
 733 632 l 1
 308 632 l 1
 261 412 l 1
 658 412 l 1
 639 328 l 1
 242 328 l 1
 192 84 l 1
 632 84 l 1
 613 0 l 1
 80 0 l 1
EndSplineSet
EndChar
StartChar: F
Encoding: 70 70 39
Width: 610
VWidth: 2048
Flags: W
HStem: 0 21G<83 176> 325 86<264 581> 632 84<235 700>
Fore
83 0 m 1
 235 716 l 1
 717 716 l 1
 700 632 l 1
 311 632 l 1
 264 411 l 1
 599 411 l 1
 581 325 l 1
 245 325 l 1
 176 0 l 1
 83 0 l 1
EndSplineSet
EndChar
StartChar: G
Encoding: 71 71 40
Width: 777
VWidth: 2048
Flags: W
HStem: -12 86<405 439> 281 84<489 682> 647 81<533 569>
VStem: 118 100<254 283>
Fore
472 281 m 1
 490 365 l 1
 794 365 l 1
 737 100 l 1
 627 25 520 -12 415 -12 c 0
 300 -12 219 20 172 86 c 0
 135 133 118 190 118 256 c 0
 118 287 121 319 129 354 c 0
 153 468 202 558 281 625 c 0
 359 694 454 728 567 728 c 0
 728 728 811 658 814 515 c 1
 723 492 l 1
 717 596 659 647 550 647 c 0
 464 647 392 621 336 567 c 0
 282 518 247 449 228 360 c 0
 222 328 218 297 218 271 c 0
 218 224 228 185 248 153 c 0
 284 100 343 74 429 74 c 0
 512 74 589 98 653 147 c 1
 682 281 l 1
 472 281 l 1
EndSplineSet
EndChar
StartChar: H
Encoding: 72 72 41
Width: 721
VWidth: 2048
Flags: W
HStem: 0 21G<80 175 547 642> 337 85<264 619>
Fore
80 0 m 1
 231 716 l 1
 326 716 l 1
 264 422 l 1
 636 422 l 1
 699 716 l 1
 794 716 l 1
 642 0 l 1
 547 0 l 1
 619 337 l 1
 247 337 l 1
 175 0 l 1
 80 0 l 1
EndSplineSet
EndChar
StartChar: I
Encoding: 73 73 42
Width: 277
VWidth: 2048
Flags: W
HStem: 0 21G<94 189>
Fore
94 0 m 1
 245 716 l 1
 340 716 l 1
 189 0 l 1
 94 0 l 1
EndSplineSet
EndChar
StartChar: J
Encoding: 74 74 43
Width: 499
VWidth: 2048
Flags: W
HStem: -12 84<216 237>
VStem: 60 93<124 166>
Fore
71 204 m 1
 158 215 l 1
 155 196 153 179 153 166 c 0
 153 103 179 72 235 72 c 0
 290 72 326 95 349 141 c 0
 357 161 365 189 372 224 c 2
 477 716 l 1
 572 716 l 1
 469 228 l 2
 434 67 351 -12 216 -12 c 0
 112 -12 60 34 60 124 c 0
 60 147 63 175 71 204 c 1
EndSplineSet
EndChar
StartChar: K
Encoding: 75 75 44
Width: 666
VWidth: 2048
Flags: W
HStem: 0 21G<74 169 541 665>
Fore
74 0 m 1
 225 716 l 1
 320 716 l 1
 245 360 l 1
 676 716 l 1
 803 716 l 1
 441 426 l 1
 665 0 l 1
 541 0 l 1
 362 362 l 1
 221 248 l 1
 169 0 l 1
 74 0 l 1
EndSplineSet
EndChar
StartChar: L
Encoding: 76 76 45
Width: 556
VWidth: 2048
Flags: W
HStem: 0 84<187 521>
Fore
74 0 m 1
 225 716 l 1
 320 716 l 1
 187 84 l 1
 540 84 l 1
 521 0 l 1
 74 0 l 1
EndSplineSet
EndChar
StartChar: M
Encoding: 77 77 46
Width: 832
VWidth: 2048
Flags: W
HStem: 0 21G<74 166 372 458 667 757>
Fore
74 0 m 1
 225 716 l 1
 369 716 l 1
 441 103 l 1
 504 218 l 1
 782 716 l 1
 909 716 l 1
 757 0 l 1
 667 0 l 1
 794 599 l 1
 458 0 l 1
 372 0 l 1
 296 610 l 1
 166 0 l 1
 74 0 l 1
EndSplineSet
EndChar
StartChar: N
Encoding: 78 78 47
Width: 721
VWidth: 2048
Flags: W
HStem: 0 21G<77 167 543 641>
Fore
77 0 m 1
 228 716 l 1
 325 716 l 1
 581 155 l 1
 700 716 l 1
 792 716 l 1
 641 0 l 1
 543 0 l 1
 287 563 l 1
 167 0 l 1
 77 0 l 1
EndSplineSet
EndChar
StartChar: O
Encoding: 79 79 48
Width: 777
VWidth: 2048
Flags: W
HStem: -12 81<384 408> 647 83<528 548>
VStem: 113 97<243 277> 723 99<435 469>
Fore
123 349 m 0
 155 500 228 609 346 677 c 0
 405 711 472 730 546 730 c 0
 647 730 720 694 771 627 c 0
 805 581 822 524 822 458 c 0
 822 428 819 392 811 357 c 0
 777 204 699 95 576 34 c 0
 513 3 452 -12 388 -12 c 0
 323 -12 267 3 222 34 c 0
 173 66 141 110 126 167 c 0
 118 198 113 228 113 262 c 0
 113 290 116 319 123 349 c 0
219 348 m 0
 213 317 210 290 210 265 c 0
 210 193 235 139 285 103 c 0
 316 80 357 69 406 69 c 0
 486 69 555 98 610 156 c 0
 661 207 694 274 713 357 c 0
 719 391 723 422 723 449 c 0
 723 523 699 576 651 613 c 0
 619 636 579 647 530 647 c 0
 451 647 383 621 330 569 c 0
 277 517 239 441 219 348 c 0
EndSplineSet
EndChar
StartChar: P
Encoding: 80 80 49
Width: 666
VWidth: 2048
Flags: W
HStem: 0 21G<77 172> 291 85<251 446> 632 84<228 510>
VStem: 638 101<543 561>
Fore
77 0 m 1
 228 716 l 1
 500 716 l 2
 587 716 648 704 682 681 c 0
 719 653 739 613 739 561 c 0
 739 546 736 527 733 509 c 0
 700 363 596 291 417 291 c 2
 233 291 l 1
 172 0 l 1
 77 0 l 1
251 376 m 1
 437 376 l 2
 549 376 615 418 633 506 c 0
 636 520 638 532 638 544 c 0
 638 567 632 586 619 599 c 0
 602 621 559 632 490 632 c 2
 307 632 l 1
 251 376 l 1
EndSplineSet
EndChar
StartChar: Q
Encoding: 81 81 50
Width: 777
VWidth: 2048
Flags: W
HStem: -12 81<378 404> 647 83<522 543>
VStem: 107 100<248 282> 716 103<446 473>
Fore
636 77 m 1
 673 46 710 25 743 11 c 1
 702 -55 l 1
 655 -37 610 -8 566 32 c 1
 507 3 445 -12 380 -12 c 0
 276 -12 199 25 152 95 c 0
 123 141 107 195 107 256 c 0
 107 288 112 322 120 359 c 0
 143 468 190 556 265 624 c 0
 340 694 434 730 541 730 c 0
 676 730 762 676 800 572 c 0
 812 543 819 509 819 471 c 0
 819 437 814 400 805 359 c 0
 779 241 722 146 636 77 c 1
454 198 m 1
 504 182 544 159 573 129 c 1
 641 181 684 256 707 359 c 0
 713 391 716 420 716 448 c 0
 716 492 708 529 691 561 c 0
 659 618 604 647 524 647 c 0
 422 647 340 602 279 513 c 0
 250 471 230 418 218 359 c 0
 210 326 207 297 207 270 c 0
 207 225 216 187 233 156 c 0
 265 98 320 69 402 69 c 0
 435 69 468 75 500 89 c 1
 475 107 448 121 415 129 c 1
 454 198 l 1
EndSplineSet
EndChar
StartChar: R
Encoding: 82 82 51
Width: 721
VWidth: 2048
Flags: W
HStem: 0 21G<78 173 590 710> 319 81<258 367> 638 78<230 559>
VStem: 667 101<550 569>
Fore
78 0 m 1
 230 716 l 1
 547 716 l 2
 610 716 656 711 684 700 c 0
 722 685 750 655 762 609 c 0
 766 596 768 582 768 569 c 0
 768 553 766 538 762 521 c 0
 739 409 658 343 518 325 c 1
 563 305 598 261 627 195 c 2
 710 0 l 1
 590 0 l 1
 529 149 l 2
 513 182 503 207 495 224 c 0
 480 251 463 274 448 288 c 0
 428 308 394 319 351 319 c 2
 241 319 l 1
 173 0 l 1
 78 0 l 1
258 400 m 1
 461 400 l 2
 579 400 647 440 664 521 c 0
 667 532 667 543 667 552 c 0
 667 609 624 638 535 638 c 2
 308 638 l 1
 258 400 l 1
EndSplineSet
EndChar
StartChar: S
Encoding: 83 83 52
Width: 666
VWidth: 2048
Flags: W
HStem: -12 84<340 378> 645 83<456 490>
VStem: 89 95<179 216> 181 95<494 518> 569 93<218 245> 612 95<530 558>
Fore
94 230 m 1xe8
 185 238 l 1
 185 230 184 222 184 216 c 0
 184 120 244 72 362 72 c 0
 408 72 448 81 484 98 c 0
 530 120 556 152 566 195 c 0
 567 202 569 210 569 218 c 0xe8
 569 253 546 279 504 296 c 0
 480 305 438 317 376 331 c 0
 279 356 219 389 195 432 c 0
 185 451 181 471 181 494 c 0
 181 506 182 518 185 532 c 0
 202 613 254 670 342 704 c 0
 383 720 429 728 478 728 c 0
 555 728 613 711 653 679 c 0
 688 650 707 610 707 558 c 0
 707 544 705 529 702 513 c 1
 610 507 l 1
 612 515 612 524 612 530 c 0
 612 607 563 645 464 645 c 0
 356 645 293 609 279 538 c 0
 277 530 276 524 276 518 c 0xd4
 276 486 296 463 331 449 c 0
 351 441 382 432 425 423 c 0
 480 409 518 399 538 391 c 0
 581 376 613 356 633 331 c 0
 653 307 662 279 662 245 c 0
 662 231 661 218 658 202 c 0
 642 133 604 80 541 40 c 0
 484 5 418 -12 348 -12 c 0
 261 -12 195 6 150 43 c 0
 109 75 89 121 89 179 c 0
 89 196 90 212 94 230 c 1xe8
EndSplineSet
EndChar
StartChar: T
Encoding: 84 84 53
Width: 610
VWidth: 2048
Flags: W
HStem: 0 21G<259 354> 632 84<174 394 175 727>
Fore
259 0 m 1
 394 632 l 1
 158 632 l 1
 175 716 l 1
 743 716 l 1
 727 632 l 1
 489 632 l 1
 354 0 l 1
 259 0 l 1
EndSplineSet
EndChar
StartChar: U
Encoding: 85 85 54
Width: 721
VWidth: 2048
Flags: W
HStem: -12 86<350 384>
VStem: 127 98<178 206>
Fore
699 716 m 1
 794 716 l 1
 707 302 l 2
 682 185 639 103 581 55 c 0
 523 11 451 -12 359 -12 c 0
 254 -12 187 15 153 67 c 0
 136 95 127 132 127 178 c 0
 127 215 132 256 143 302 c 2
 230 716 l 1
 325 716 l 1
 238 303 l 2
 230 265 225 231 225 204 c 0
 225 166 233 138 247 120 c 0
 270 89 311 74 369 74 c 0
 455 74 518 100 556 155 c 0
 579 184 598 235 612 303 c 2
 699 716 l 1
EndSplineSet
EndChar
StartChar: V
Encoding: 86 86 55
Width: 666
VWidth: 2048
Flags: W
HStem: 0 21G<282 380>
Fore
282 0 m 1
 156 716 l 1
 259 716 l 1
 334 196 l 1
 340 158 343 118 348 78 c 1
 362 110 385 150 411 196 c 2
 714 716 l 1
 811 716 l 1
 380 0 l 1
 282 0 l 1
EndSplineSet
EndChar
StartChar: W
Encoding: 87 87 56
Width: 944
VWidth: 2048
Flags: W
HStem: 0 21G<202 299 645 736>
Fore
202 0 m 1
 164 716 l 1
 261 716 l 1
 271 247 l 1
 271 196 271 147 270 100 c 1
 330 233 l 1
 569 716 l 1
 684 716 l 1
 710 354 l 2
 713 303 714 256 714 210 c 0
 714 172 713 135 711 100 c 1
 730 147 754 199 779 256 c 2
 990 716 l 1
 1085 716 l 1
 736 0 l 1
 645 0 l 1
 605 630 l 1
 599 613 586 586 567 546 c 1
 299 0 l 1
 202 0 l 1
EndSplineSet
EndChar
StartChar: X
Encoding: 88 88 57
Width: 666
VWidth: 2048
Flags: W
HStem: 0 21G<5 118 544 661>
Fore
5 0 m 1
 362 374 l 1
 189 716 l 1
 302 716 l 1
 394 533 l 2
 412 495 426 466 432 445 c 1
 448 464 472 492 506 526 c 2
 690 716 l 1
 792 716 l 1
 471 379 l 1
 661 0 l 1
 544 0 l 1
 417 256 l 2
 412 267 405 284 397 303 c 1
 380 282 365 265 351 250 c 2
 118 0 l 1
 5 0 l 1
EndSplineSet
EndChar
StartChar: Y
Encoding: 89 89 58
Width: 666
VWidth: 2048
Flags: W
HStem: 0 21G<279 374>
Fore
279 0 m 1
 343 303 l 1
 155 716 l 1
 270 716 l 1
 365 500 l 2
 382 463 399 423 414 380 c 1
 454 429 487 472 518 506 c 2
 700 716 l 1
 811 716 l 1
 438 303 l 1
 374 0 l 1
 279 0 l 1
EndSplineSet
EndChar
StartChar: Z
Encoding: 90 90 59
Width: 610
VWidth: 2048
Flags: W
HStem: 0 84<147 586> 632 84<212 596>
Fore
20 0 m 1
 38 89 l 1
 503 546 l 2
 540 581 570 610 596 632 c 1
 196 632 l 1
 213 716 l 1
 727 716 l 1
 710 632 l 1
 147 84 l 1
 604 84 l 1
 586 0 l 1
 20 0 l 1
EndSplineSet
EndChar
StartChar: bracketleft
Encoding: 91 91 60
Width: 277
VWidth: 2048
Flags: W
HStem: -199 73<130 219> 644 72<219 399>
Fore
25 -199 m 1
 219 716 l 1
 414 716 l 1
 399 644 l 1
 293 644 l 1
 130 -126 l 1
 236 -126 l 1
 219 -199 l 1
 25 -199 l 1
EndSplineSet
EndChar
StartChar: backslash
Encoding: 92 92 61
Width: 277
VWidth: 2048
Flags: W
HStem: -12 21G<204 274>
Fore
204 -12 m 1
 155 728 l 1
 225 728 l 1
 274 -12 l 1
 204 -12 l 1
EndSplineSet
EndChar
StartChar: bracketright
Encoding: 93 93 62
Width: 277
VWidth: 2048
Flags: W
HStem: -199 73<-9 170> 644 72<169 262>
Fore
170 -199 m 1
 -25 -199 l 1
 -8 -126 l 1
 100 -126 l 1
 262 644 l 1
 155 644 l 1
 170 716 l 1
 365 716 l 1
 170 -199 l 1
EndSplineSet
EndChar
StartChar: asciicircum
Encoding: 94 94 63
Width: 469
VWidth: 2048
Flags: W
Fore
189 337 m 1
 98 337 l 1
 354 728 l 1
 425 728 l 1
 515 337 l 1
 426 337 l 1
 368 628 l 1
 189 337 l 1
EndSplineSet
EndChar
StartChar: underscore
Encoding: 95 95 64
Width: 556
VWidth: 2048
Flags: W
HStem: -199 64<-45 526>
Fore
-58 -199 m 1
 -44 -135 l 1
 540 -135 l 1
 526 -199 l 1
 -58 -199 l 1
EndSplineSet
EndChar
StartChar: grave
Encoding: 96 96 65
Width: 332
VWidth: 2048
Flags: W
HStem: 582 138<196 351>
Fore
351 582 m 1
 281 582 l 1
 196 720 l 1
 314 720 l 1
 351 582 l 1
EndSplineSet
EndChar
StartChar: a
Encoding: 97 97 66
Width: 556
VWidth: 2048
Flags: W
HStem: -12 69<210 247> 458 72<369 399>
VStem: 60 98<101 120> 418 86<44 63> 475 92<383 417>
Fore
418 64 m 1xf0
 348 14 277 -12 210 -12 c 0
 159 -12 121 0 95 25 c 0
 72 44 60 69 60 101 c 0
 60 112 61 124 64 136 c 0
 77 192 112 235 167 264 c 0
 196 281 241 291 303 299 c 0
 379 308 432 319 468 330 c 1
 472 353 l 2
 475 363 475 374 475 383 c 0
 475 434 441 458 371 458 c 0
 331 458 297 451 276 437 c 0
 253 423 231 397 213 359 c 1
 130 371 l 1
 175 477 265 530 399 530 c 0
 474 530 523 515 550 483 c 0
 561 468 567 446 567 417 c 0xe8
 567 394 564 366 556 334 c 2
 509 106 l 2
 506 90 504 75 504 61 c 0
 504 40 507 20 513 0 c 1
 422 0 l 1
 420 14 418 29 418 46 c 0
 418 64 l 1xf0
452 261 m 1
 418 248 369 238 302 227 c 0
 218 216 170 185 159 139 c 0
 158 132 158 126 158 118 c 0
 158 77 187 57 247 57 c 0
 296 57 339 69 371 95 c 0
 408 124 432 169 446 228 c 2
 452 261 l 1
EndSplineSet
EndChar
StartChar: b
Encoding: 98 98 67
Width: 556
VWidth: 2048
Flags: W
HStem: -12 73<286 307> 458 72<386 409>
VStem: 490 91<332 353>
Fore
147 0 m 1
 64 0 l 1
 216 716 l 1
 305 716 l 1
 251 461 l 1
 297 507 351 530 409 530 c 0
 498 530 553 489 575 408 c 0
 579 389 581 371 581 351 c 0
 581 325 578 297 572 267 c 0
 556 192 526 127 477 75 c 0
 425 17 360 -12 288 -12 c 0
 227 -12 184 14 161 64 c 1
 147 0 l 1
202 264 m 0
 196 233 193 207 193 182 c 0
 193 136 205 103 228 83 c 0
 247 67 271 61 297 61 c 0
 346 61 386 83 422 127 c 0
 451 164 471 208 481 259 c 0
 487 287 490 311 490 334 c 0
 490 379 478 412 454 435 c 0
 435 451 415 458 386 458 c 0
 339 458 297 437 262 394 c 0
 233 359 213 314 202 264 c 0
EndSplineSet
EndChar
StartChar: c
Encoding: 99 99 68
Width: 499
VWidth: 2048
Flags: W
HStem: -12 73<271 293> 458 72<371 391>
VStem: 84 91<163 197> 472 89<353 373>
Fore
445 190 m 1
 529 179 l 1
 507 121 474 74 429 40 c 0
 383 5 331 -12 273 -12 c 0
 195 -12 141 14 110 66 c 0
 94 95 84 132 84 175 c 0
 84 201 87 228 94 258 c 0
 118 377 175 458 258 500 c 0
 299 520 343 530 389 530 c 0
 504 530 561 478 561 371 c 0
 561 366 l 1
 472 353 l 1
 472 423 440 458 377 458 c 0
 277 458 212 392 184 259 c 0
 178 230 175 204 175 181 c 0
 175 101 213 61 288 61 c 0
 363 61 414 104 445 190 c 1
EndSplineSet
EndChar
StartChar: d
Encoding: 100 100 69
Width: 556
VWidth: 2048
Flags: W
HStem: -12 73<254 279> 458 72<351 370>
VStem: 80 92<177 197>
Fore
403 0 m 1
 417 64 l 1
 372 14 319 -12 254 -12 c 0
 182 -12 133 17 104 72 c 0
 87 103 80 139 80 179 c 0
 80 204 83 230 89 259 c 0
 113 372 166 452 244 498 c 0
 281 520 322 530 368 530 c 0
 428 530 469 507 495 460 c 1
 549 716 l 1
 636 716 l 1
 484 0 l 1
 403 0 l 1
179 259 m 0
 173 233 172 210 172 189 c 0
 172 143 184 109 208 86 c 0
 227 69 250 61 279 61 c 0
 328 61 366 81 400 124 c 0
 428 158 448 201 458 251 c 0
 464 279 468 303 468 325 c 0
 468 349 464 371 458 389 c 0
 443 435 411 458 360 458 c 0
 268 458 207 392 179 259 c 0
EndSplineSet
EndChar
StartChar: e
Encoding: 101 101 70
Width: 556
VWidth: 2048
Flags: W
HStem: -12 73<279 306> 238 72<198 564> 458 72<368 394>
VStem: 81 94<173 197> 490 89<346 357>
Fore
457 167 m 1
 546 156 l 1
 490 44 403 -12 281 -12 c 0
 176 -12 113 29 90 112 c 0
 84 130 81 152 81 175 c 0
 81 199 84 227 90 256 c 0
 109 336 141 400 192 451 c 0
 247 504 314 530 392 530 c 0
 458 530 507 510 538 472 c 0
 555 451 569 425 575 397 c 0
 578 382 579 365 579 346 c 0
 579 331 578 314 576 296 c 0
 575 290 572 271 564 238 c 1
 178 238 l 1
 175 222 175 207 175 193 c 0
 175 162 181 136 193 113 c 0
 215 78 250 61 299 61 c 0
 365 61 415 97 457 167 c 1
198 310 m 1
 487 310 l 1
 489 323 490 336 490 346 c 0
 490 420 452 458 379 458 c 0
 336 458 296 443 264 415 c 0
 233 388 210 353 198 310 c 1
EndSplineSet
EndChar
StartChar: f
Encoding: 102 102 71
Width: 277
VWidth: 2048
Flags: W
HStem: 0 21G<87 175> 451 67<119 182 285 371> 648 80<369 408>
Fore
87 0 m 1
 182 451 l 1
 104 451 l 1
 120 518 l 1
 198 518 l 1
 210 575 l 2
 221 630 241 668 270 693 c 0
 297 716 337 728 385 728 c 0
 411 728 438 725 466 720 c 1
 435 642 l 1
 420 647 402 648 386 648 c 0
 357 648 336 642 323 630 c 0
 311 618 302 596 296 567 c 2
 285 518 l 1
 386 518 l 1
 371 451 l 1
 270 451 l 1
 175 0 l 1
 87 0 l 1
EndSplineSet
EndChar
StartChar: g
Encoding: 103 103 72
Width: 556
VWidth: 2048
Flags: W
HStem: -210 72<210 241> 0 72<256 281> 458 72<349 371>
VStem: 35 88<-89 -61> 80 90<173 207>
Fore
41 -43 m 1xf0
 123 -55 l 1
 123 -57 123 -60 123 -61 c 0xf0
 123 -112 156 -138 225 -138 c 0
 279 -138 320 -123 351 -94 c 0
 377 -67 397 -14 414 67 c 1
 366 23 314 0 256 0 c 0
 185 0 135 28 104 81 c 0
 87 112 80 147 80 189 c 0xe8
 80 212 81 236 87 262 c 0
 104 339 135 400 181 449 c 0
 235 503 297 530 369 530 c 0
 432 530 477 506 506 457 c 1
 520 518 l 1
 599 518 l 1
 504 71 l 2
 481 -37 448 -110 399 -150 c 0
 353 -190 290 -210 212 -210 c 0
 150 -210 106 -198 74 -173 c 0
 48 -152 35 -124 35 -89 c 0
 35 -75 37 -60 41 -43 c 1xf0
179 268 m 0
 173 239 170 213 170 190 c 0xe8
 170 112 207 72 281 72 c 0
 330 72 372 94 406 135 c 0
 432 169 454 213 464 265 c 0
 469 288 472 310 472 330 c 0
 472 354 468 377 460 395 c 0
 443 437 411 458 362 458 c 0
 314 458 273 437 239 397 c 0
 210 362 190 319 179 268 c 0
EndSplineSet
EndChar
StartChar: h
Encoding: 104 104 73
Width: 556
VWidth: 2048
Flags: W
HStem: 0 21G<66 155 400 489> 455 75<388 423>
VStem: 475 94<374 411>
Fore
66 0 m 1
 218 716 l 1
 307 716 l 1
 253 460 l 1
 302 507 360 530 423 530 c 0
 513 530 561 498 567 434 c 0
 567 426 569 418 569 411 c 0
 569 386 564 359 558 328 c 2
 489 0 l 1
 400 0 l 1
 469 328 l 2
 472 345 475 360 475 374 c 0
 475 428 446 455 388 455 c 0
 320 455 273 428 245 372 c 0
 231 348 222 319 215 284 c 2
 155 0 l 1
 66 0 l 1
EndSplineSet
EndChar
StartChar: i
Encoding: 105 105 74
Width: 222
VWidth: 2048
Flags: W
HStem: 0 21G<66 155>
Fore
196 615 m 1
 218 716 l 1
 307 716 l 1
 285 615 l 1
 196 615 l 1
66 0 m 1
 176 518 l 1
 265 518 l 1
 155 0 l 1
 66 0 l 1
EndSplineSet
EndChar
StartChar: j
Encoding: 106 106 75
Width: 222
VWidth: 2048
Flags: W
HStem: -210 77<-26 -8>
Fore
195 615 m 1
 216 716 l 1
 305 716 l 1
 284 615 l 1
 195 615 l 1
-89 -201 m 1
 -57 -127 l 1
 -40 -130 -26 -133 -15 -133 c 0
 14 -133 34 -118 44 -87 c 0
 49 -74 54 -54 58 -26 c 2
 175 518 l 1
 264 518 l 1
 147 -29 l 2
 129 -112 101 -166 61 -190 c 0
 38 -204 11 -210 -21 -210 c 0
 -44 -210 -67 -207 -89 -201 c 1
EndSplineSet
EndChar
StartChar: k
Encoding: 107 107 76
Width: 499
VWidth: 2048
Flags: W
HStem: 0 21G<66 155 388 497>
Fore
66 0 m 1
 218 716 l 1
 307 716 l 1
 221 308 l 1
 472 518 l 1
 587 518 l 1
 346 326 l 1
 497 0 l 1
 388 0 l 1
 273 265 l 1
 198 205 l 1
 155 0 l 1
 66 0 l 1
EndSplineSet
EndChar
StartChar: l
Encoding: 108 108 77
Width: 222
VWidth: 2048
Flags: W
HStem: 0 21G<64 152>
Fore
64 0 m 1
 216 716 l 1
 303 716 l 1
 152 0 l 1
 64 0 l 1
EndSplineSet
EndChar
StartChar: m
Encoding: 109 109 78
Width: 832
VWidth: 2048
Flags: W
HStem: 0 21G<66 155 374 463 682 769> 454 76<379 415 685 722>
VStem: 757 95<379 415>
Fore
66 0 m 1
 176 518 l 1
 254 518 l 1
 239 446 l 1
 288 503 346 530 415 530 c 0
 492 530 532 500 541 440 c 1
 595 500 656 530 722 530 c 0
 809 530 852 492 852 415 c 0
 852 397 849 377 845 356 c 2
 769 0 l 1
 682 0 l 1
 751 326 l 2
 756 346 757 363 757 379 c 0
 757 429 734 454 685 454 c 0
 601 454 549 403 527 302 c 2
 463 0 l 1
 374 0 l 1
 446 337 l 2
 449 354 451 368 451 382 c 0
 451 429 428 454 379 454 c 0
 322 454 279 429 250 379 c 0
 235 353 222 316 212 270 c 2
 155 0 l 1
 66 0 l 1
EndSplineSet
EndChar
StartChar: n
Encoding: 110 110 79
Width: 556
VWidth: 2048
Flags: W
HStem: 0 21G<66 155 400 487> 454 76<388 425>
VStem: 474 93<368 406>
Fore
66 0 m 1
 176 518 l 1
 256 518 l 1
 241 446 l 1
 290 503 351 530 425 530 c 0
 520 530 567 489 567 406 c 0
 567 386 564 365 559 342 c 2
 487 0 l 1
 400 0 l 1
 468 316 l 2
 472 336 474 353 474 368 c 0
 474 425 445 454 388 454 c 0
 297 454 239 397 215 284 c 2
 155 0 l 1
 66 0 l 1
EndSplineSet
EndChar
StartChar: o
Encoding: 111 111 80
Width: 556
VWidth: 2048
Flags: W
HStem: -12 73<271 292> 458 72<365 391>
VStem: 78 92<179 197> 492 92<323 344>
Fore
87 259 m 0
 104 340 139 405 190 452 c 0
 244 504 311 530 389 530 c 0
 483 530 544 492 573 415 c 0
 581 394 584 369 584 342 c 0
 584 319 582 294 576 267 c 0
 559 184 524 118 475 69 c 0
 420 15 353 -12 273 -12 c 0
 172 -12 109 31 87 113 c 0
 81 135 78 156 78 181 c 0
 78 205 81 230 87 259 c 0
179 259 m 0
 173 233 170 208 170 187 c 0
 170 141 184 106 213 84 c 0
 233 69 258 61 290 61 c 0
 343 61 386 81 422 124 c 0
 452 159 472 205 484 262 c 0
 489 285 492 307 492 325 c 0
 492 353 487 377 478 397 c 0
 461 437 426 458 374 458 c 0
 322 458 277 437 242 395 c 0
 212 362 192 316 179 259 c 0
EndSplineSet
EndChar
StartChar: p
Encoding: 112 112 81
Width: 556
VWidth: 2048
Flags: W
HStem: -12 73<285 301> 461 69<386 409>
VStem: 490 92<328 347>
Fore
23 -199 m 1
 176 518 l 1
 256 518 l 1
 241 451 l 1
 291 504 348 530 409 530 c 0
 483 530 532 503 559 449 c 0
 575 418 582 385 582 345 c 0
 582 319 579 293 573 264 c 0
 556 189 524 126 477 74 c 0
 423 17 360 -12 287 -12 c 0
 231 -12 190 11 166 54 c 1
 112 -199 l 1
 23 -199 l 1
199 256 m 0
 193 230 192 207 192 185 c 0
 192 139 204 106 228 84 c 0
 245 69 268 61 299 61 c 0
 348 61 389 83 425 129 c 0
 452 164 471 210 483 264 c 0
 487 288 490 311 490 333 c 0
 490 356 487 377 481 395 c 0
 466 440 434 461 386 461 c 0
 339 461 297 438 261 392 c 0
 231 354 212 310 199 256 c 0
EndSplineSet
EndChar
StartChar: q
Encoding: 113 113 82
Width: 556
VWidth: 2048
Flags: W
HStem: -12 73<258 282> 461 69<352 372>
VStem: 83 90<168 202>
Fore
354 -199 m 1
 409 55 l 1
 366 11 316 -12 258 -12 c 0
 190 -12 141 15 110 67 c 0
 92 101 83 141 83 184 c 0
 83 208 86 236 92 264 c 0
 107 339 136 400 182 449 c 0
 233 503 294 530 368 530 c 0
 432 530 477 504 501 449 c 1
 517 518 l 1
 595 518 l 1
 441 -199 l 1
 354 -199 l 1
181 261 m 0
 175 235 173 210 173 189 c 0
 173 143 185 109 210 86 c 0
 228 69 253 61 282 61 c 0
 330 61 368 81 402 124 c 0
 429 159 449 202 460 253 c 0
 466 277 469 302 469 323 c 0
 469 348 464 369 458 389 c 0
 443 437 411 461 360 461 c 0
 311 461 271 438 239 394 c 0
 212 359 193 314 181 261 c 0
EndSplineSet
EndChar
StartChar: r
Encoding: 114 114 83
Width: 332
VWidth: 2048
Flags: W
HStem: 0 21G<64 153> 440 90<346 369>
Fore
64 0 m 1
 175 518 l 1
 254 518 l 1
 238 440 l 1
 284 500 328 530 369 530 c 0
 400 530 426 521 454 503 c 1
 406 420 l 1
 388 434 368 440 346 440 c 0
 300 440 265 414 241 360 c 0
 227 331 218 302 212 271 c 2
 153 0 l 1
 64 0 l 1
EndSplineSet
EndChar
StartChar: s
Encoding: 115 115 84
Width: 499
VWidth: 2048
Flags: W
HStem: -12 73<248 272> 458 72<320 351>
VStem: 63 90<141 155> 124 88<353 379> 403 94<155 184>
Fore
63 155 m 1xe8
 153 169 l 1
 153 155 l 0xe8
 153 92 192 61 267 61 c 0
 345 61 389 87 402 143 c 0
 402 147 403 150 403 155 c 0
 403 173 392 187 372 199 c 0
 363 202 340 210 303 221 c 0
 259 231 235 238 227 241 c 0
 199 250 176 261 161 274 c 0
 136 294 124 320 124 353 c 0
 124 362 126 371 127 382 c 0
 139 437 175 480 236 509 c 0
 265 523 305 530 349 530 c 0
 434 530 486 510 509 469 c 0
 520 451 524 426 524 397 c 0
 524 394 524 389 524 385 c 1
 435 374 l 1
 435 377 435 380 435 385 c 0
 435 432 403 458 340 458 c 0
 265 458 222 435 213 391 c 0
 212 386 212 382 212 379 c 0xd8
 212 360 221 348 239 340 c 0
 251 334 277 326 320 314 c 0
 349 307 379 297 408 288 c 1
 441 276 466 261 480 241 c 0
 492 224 497 205 497 184 c 0
 497 173 497 164 494 153 c 0
 483 98 452 57 402 28 c 0
 356 2 305 -12 250 -12 c 0
 124 -12 63 40 63 147 c 0
 63 150 63 152 63 155 c 1xe8
EndSplineSet
EndChar
StartChar: t
Encoding: 116 116 85
Width: 277
VWidth: 2048
Flags: W
HStem: -6 81<202 235> 451 67<128 178 281 353>
VStem: 103 93<63 109>
Fore
274 78 m 1
 271 0 l 1
 244 -5 222 -6 202 -6 c 0
 147 -6 115 9 104 43 c 0
 103 48 103 54 103 63 c 0
 103 83 106 112 115 152 c 2
 178 451 l 1
 113 451 l 1
 129 518 l 1
 193 518 l 1
 221 647 l 1
 319 700 l 1
 281 518 l 1
 368 518 l 1
 353 451 l 1
 265 451 l 1
 201 147 l 2
 198 132 196 120 196 109 c 0
 196 95 199 84 207 81 c 0
 215 78 222 75 235 75 c 0
 245 75 259 77 274 78 c 1
EndSplineSet
EndChar
StartChar: u
Encoding: 117 117 86
Width: 556
VWidth: 2048
Flags: W
HStem: -12 76<238 273>
VStem: 95 94<112 139>
Fore
406 0 m 1
 423 77 l 1
 369 17 308 -12 238 -12 c 0
 175 -12 132 6 110 41 c 0
 100 58 95 81 95 112 c 0
 95 135 98 164 106 198 c 2
 175 518 l 1
 262 518 l 1
 201 231 l 2
 193 193 189 162 189 139 c 0
 189 121 192 109 196 100 c 0
 210 77 235 64 273 64 c 0
 342 64 391 92 418 149 c 0
 431 173 440 204 448 241 c 2
 507 518 l 1
 595 518 l 1
 484 0 l 1
 406 0 l 1
EndSplineSet
EndChar
StartChar: v
Encoding: 118 118 87
Width: 499
VWidth: 2048
Flags: W
HStem: 0 21G<210 291>
Fore
210 0 m 1
 123 518 l 1
 216 518 l 1
 262 208 l 2
 265 175 270 139 271 103 c 1
 285 130 303 164 326 202 c 2
 509 518 l 1
 599 518 l 1
 291 0 l 1
 210 0 l 1
EndSplineSet
EndChar
StartChar: w
Encoding: 119 119 88
Width: 721
VWidth: 2048
Flags: W
HStem: 0 21G<161 254 461 552>
Fore
161 0 m 1
 113 518 l 1
 204 518 l 1
 230 107 l 1
 239 130 256 166 281 215 c 2
 428 518 l 1
 518 518 l 1
 536 120 l 1
 740 518 l 1
 825 518 l 1
 552 0 l 1
 461 0 l 1
 443 399 l 1
 254 0 l 1
 161 0 l 1
EndSplineSet
EndChar
StartChar: x
Encoding: 120 120 89
Width: 499
VWidth: 2048
Flags: W
HStem: 0 21G<8 113 385 494>
Fore
8 0 m 1
 253 270 l 1
 132 518 l 1
 242 518 l 1
 296 397 l 2
 303 377 313 357 319 339 c 1
 331 353 346 371 371 395 c 2
 484 518 l 1
 589 518 l 1
 359 274 l 1
 494 0 l 1
 385 0 l 1
 293 205 l 1
 113 0 l 1
 8 0 l 1
EndSplineSet
EndChar
StartChar: y
Encoding: 121 121 90
Width: 499
VWidth: 2048
Flags: W
HStem: -210 84<67 85>
Fore
20 -199 m 1
 28 -118 l 1
 46 -123 61 -126 77 -126 c 0
 116 -126 146 -110 166 -83 c 0
 172 -71 189 -44 210 -5 c 1
 213 0 l 1
 127 518 l 1
 221 518 l 1
 265 219 l 2
 271 175 276 135 277 98 c 1
 296 138 314 176 339 216 c 2
 513 518 l 1
 602 518 l 1
 293 -9 l 2
 264 -60 242 -92 233 -106 c 0
 207 -143 181 -170 156 -185 c 0
 130 -202 104 -210 75 -210 c 0
 58 -210 38 -207 20 -199 c 1
EndSplineSet
EndChar
StartChar: z
Encoding: 122 122 91
Width: 499
VWidth: 2048
Flags: W
HStem: 0 75<211 478> 448 70<148 389>
Fore
20 0 m 1
 35 71 l 1
 445 451 l 1
 408 449 374 448 346 448 c 2
 133 448 l 1
 149 518 l 1
 573 518 l 1
 561 461 l 1
 143 71 l 1
 182 74 219 75 254 75 c 2
 494 75 l 1
 478 0 l 1
 20 0 l 1
EndSplineSet
EndChar
StartChar: braceleft
Encoding: 123 123 92
Width: 334
VWidth: 2048
Flags: W
HStem: -210 77<245 268> 219 80<74 90> 651 77<425 449>
VStem: 113 85<-115 -95> 150 80<109 143>
CounterMasks: 1 00
Fore
90 299 m 1xe8
 143 300 178 323 199 371 c 0
 212 395 224 446 239 521 c 0
 253 587 270 635 290 662 c 0
 313 696 342 717 376 723 c 0
 391 727 411 728 438 728 c 2
 466 728 l 1
 449 651 l 1
 434 651 l 2
 397 651 372 644 357 628 c 0
 346 616 337 590 330 552 c 0
 314 480 305 440 303 432 c 0
 288 385 271 346 247 319 c 0
 225 294 198 274 164 259 c 1
 208 239 230 198 230 132 c 0xe8
 230 106 227 74 219 38 c 0
 205 -29 198 -74 198 -95 c 0
 198 -101 198 -104 199 -107 c 0
 207 -126 228 -133 268 -133 c 2
 284 -133 l 1
 267 -210 l 1
 239 -210 l 2
 192 -210 159 -202 139 -184 c 0
 123 -167 113 -143 113 -115 c 0
 113 -110 113 -107 113 -103 c 1xf0
 143 58 l 1
 147 83 150 104 150 124 c 0
 150 185 124 218 74 219 c 1
 90 299 l 1xe8
EndSplineSet
EndChar
StartChar: bar
Encoding: 124 124 93
Width: 259
VWidth: 2048
Flags: W
Fore
48 -210 m 1
 247 728 l 1
 323 728 l 1
 124 -210 l 1
 48 -210 l 1
EndSplineSet
EndChar
StartChar: braceright
Encoding: 125 125 94
Width: 334
VWidth: 2048
Flags: W
HStem: 651 77<178 199.86>
VStem: 210 86<365 391> 245 83<593 627>
Fore
369 299 m 1xc0
 353 219 l 1
 307 218 273 198 250 156 c 0
 236 133 224 94 212 35 c 0
 192 -55 175 -113 158 -139 c 0
 133 -175 104 -198 67 -205 c 0
 51 -208 31 -210 6 -210 c 2
 -21 -210 l 1
 -5 -133 l 1
 11 -133 l 2
 48 -133 72 -126 86 -110 c 0
 97 -98 107 -72 116 -32 c 0
 132 43 139 83 141 87 c 0
 155 136 173 173 198 201 c 0
 218 227 247 245 279 259 c 1
 233 285 210 322 210 376 c 0
 210 380 210 386 210 391 c 0xc0
 215 423 225 490 245 593 c 1
 245 598 247 602 247 607 c 0
 247 624 241 635 231 642 c 0
 222 648 202 651 176 651 c 2
 161 651 l 1
 178 728 l 1
 205 728 l 2
 261 728 297 716 314 688 c 0
 323 676 328 656 328 627 c 0xa0
 328 598 323 561 313 515 c 0
 300 460 296 415 296 383 c 0
 296 354 299 334 308 323 c 0
 320 308 342 300 369 299 c 1xc0
EndSplineSet
EndChar
StartChar: asciitilde
Encoding: 126 126 95
Width: 583
VWidth: 2048
Flags: W
Fore
101 273 m 1
 123 372 l 1
 164 411 215 431 270 431 c 0
 305 431 354 417 414 388 c 0
 448 372 474 365 494 365 c 0
 538 365 584 388 635 432 c 1
 612 328 l 1
 564 291 517 273 466 273 c 0
 431 273 388 287 333 313 c 0
 299 330 268 339 242 339 c 0
 202 339 156 316 101 273 c 1
EndSplineSet
EndChar
StartChar: uni0E34.left
Encoding: 129 63233 96
Width: 0
Flags: W
HStem: 699 55<-298 -241> 825 55<-267 -241>
Fore
-69 653 m 0
 -69 653 l 0
 -143 687 -189 699 -279 699 c 0
 -285 699 -290 699 -296 699 c 0
 -376 699 -434 688 -517 659 c 1
 -487 783 -380 878 -247 880 c 0
 -245 880 -245 880 -244 880 c 0
 -133 880 -64 803 -64 702 c 0
 -64 687 -66 670 -69 653 c 0
-118 727 m 1
 -133 789 -184 825 -254 825 c 0
 -325 825 -380 792 -422 734 c 1
 -385 743 -351 753 -277 754 c 0
 -268 754 l 0
 -201 754 -155 739 -118 727 c 1
EndSplineSet
EndChar
StartChar: uni0E35.left
Encoding: 130 63234 97
Width: 0
Flags: W
HStem: 699 54<-267 -242> 823 55<-258 -234>
Fore
-58 651 m 0
 -58 651 l 0
 -136 687 -182 699 -284 699 c 0
 -365 697 -423 687 -506 658 c 1
 -480 783 -360 878 -236 878 c 0
 -124 878 -107 820 -106 820 c 1
 -80 946 l 1
 -11 946 l 1
 -52 751 l 2
 -52 750 -51 736 -51 719 c 0
 -51 705 l 0
 -52 684 -57 656 -58 651 c 0
-107 725 m 1
 -123 788 -172 823 -244 823 c 0
 -314 823 -369 791 -411 733 c 1
 -374 743 -340 751 -267 753 c 0
 -264 753 -261 753 -256 753 c 0
 -189 753 -144 739 -107 725 c 1
EndSplineSet
EndChar
StartChar: uni0E36.left
Encoding: 131 63235 98
Width: 0
Flags: W
HStem: 693 53<-300 -256> 819 56<-272 -246> 929 43<-106 -88>
VStem: -199 46<871 880> -60 48<892 903>
Fore
-31 846 m 0
 -31 846 l 0
 -43 825 -63 808 -86 799 c 1
 -75 777 -69 768 -66 734 c 0
 -66 720 l 0
 -66 682 -71 665 -75 645 c 1
 -152 681 -198 693 -300 693 c 0
 -380 691 -438 681 -521 651 c 1
 -504 733 -454 802 -386 838 c 0
 -331 869 -282 875 -248 875 c 0
 -221 875 -202 871 -199 871 c 1
 -199 874 -199 875 -199 878 c 0
 -199 891 -198 907 -178 932 c 0
 -155 961 -120 972 -90 972 c 0
 -71 972 -54 967 -43 960 c 0
 -23 946 -12 926 -12 903 c 0
 -12 884 -18 864 -31 846 c 0
-116 837 m 0
 -116 837 l 0
 -81 837 -60 868 -60 894 c 0
 -60 912 -72 929 -97 929 c 0
 -132 929 -153 898 -153 872 c 0
 -153 854 -143 837 -116 837 c 0
-123 719 m 1
 -136 783 -187 819 -258 819 c 0
 -328 819 -385 785 -426 727 c 1
 -389 737 -356 745 -282 746 c 0
 -273 746 l 0
 -205 746 -158 733 -123 719 c 1
EndSplineSet
EndChar
StartChar: uni0E37.left
Encoding: 132 63236 99
Width: 0
Flags: W
HStem: 700 54<-281 -233> 825 61<-253 -228>
Fore
-52 653 m 0
 -52 653 l 0
 -132 688 -178 700 -279 700 c 0
 -360 699 -418 688 -501 659 c 1
 -495 693 -472 776 -397 832 c 0
 -339 875 -271 886 -233 886 c 0
 -224 886 -218 886 -212 884 c 1
 -198 952 l 1
 -132 952 l 1
 -149 871 l 1
 -147 871 -132 864 -123 858 c 0
 -113 851 -103 835 -103 835 c 1
 -78 952 l 1
 -12 952 l 1
 -55 751 l 2
 -55 748 -49 722 -49 704 c 0
 -49 682 -52 659 -52 653 c 0
-103 727 m 1
 -118 789 -167 825 -239 825 c 0
 -310 825 -365 792 -406 734 c 1
 -369 743 -336 753 -261 754 c 0
 -251 754 l 0
 -184 754 -138 740 -103 727 c 1
EndSplineSet
EndChar
StartChar: ellipsis
Encoding: 133 8230 100
Width: 570
VWidth: 2048
Flags: W
HStem: 0 21G<98 132.5 285 319.5 473.5 508>
Fore
489 0 m 0
 458 0 443 17 443 49 c 0
 443 58 l 1
 452 98 474 118 513 118 c 0
 546 118 563 104 563 78 c 0
 563 72 561 66 559 58 c 0
 552 20 527 0 489 0 c 0
300 0 m 0
 270 0 254 17 254 49 c 0
 254 58 l 1
 264 98 287 118 325 118 c 0
 357 118 374 104 374 78 c 0
 374 72 372 66 371 58 c 0
 363 20 339 0 300 0 c 0
113 0 m 0
 83 0 67 17 67 49 c 0
 67 58 l 1
 77 98 100 118 138 118 c 0
 170 118 187 104 187 78 c 0
 187 72 185 66 184 58 c 0
 176 20 152 0 113 0 c 0
EndSplineSet
EndChar
StartChar: uni0E48.low_left
Encoding: 134 63237 101
Width: 0
Flags: W
Fore
-106 665 m 1
 -175 665 l 1
 -127 887 l 1
 -58 887 l 1
 -106 665 l 1
EndSplineSet
EndChar
StartChar: uni0E49.low_left
Encoding: 135 63238 102
Width: 0
Flags: W
HStem: 739 38<-297 -285> 861 40<-274 -254>
VStem: -363 43<797 811> -235 45<822 837>
Fore
-15 796 m 1
 -15 796 l 0
 -51 757 -86 727 -161 696 c 0
 -213 674 -259 667 -297 667 c 0
 -317 667 -334 668 -351 671 c 1
 -336 679 -320 693 -308 707 c 0
 -299 717 -284 733 -282 740 c 1
 -288 740 -293 739 -297 739 c 0
 -325 739 -340 750 -354 766 c 0
 -360 774 -363 785 -363 797 c 0
 -363 838 -331 892 -274 900 c 0
 -267 901 -261 901 -254 901 c 0
 -205 901 -190 868 -190 835 c 0
 -190 831 -190 828 -190 823 c 0
 -196 768 -244 717 -247 717 c 0
 -199 727 -169 740 -127 768 c 0
 -69 803 -38 832 5 891 c 1
 -15 796 l 1
-285 777 m 0
 -253 777 -235 805 -235 829 c 0
 -235 846 -245 861 -268 861 c 0
 -300 861 -320 834 -320 811 c 0
 -320 792 -310 777 -285 777 c 0
EndSplineSet
EndChar
StartChar: uni0E4A.low_left
Encoding: 136 63239 103
Width: 0
Flags: W
HStem: 664 32<-369 -357> 757 31<-347 -333> 835 49<-324 -306>
VStem: -435 53<720 740> -320 33<725 740> -175 54<794 803>
Fore
2 834 m 1
 2 834 l 0
 -12 796 -34 766 -63 737 c 0
 -113 688 -167 668 -227 668 c 0
 -245 668 l 1
 -231 676 -196 711 -181 757 c 0
 -178 769 -175 782 -175 794 c 0
 -175 815 -182 834 -204 837 c 0
 -207 837 -210 837 -212 837 c 0
 -239 837 -262 819 -270 811 c 1
 -271 817 -293 835 -317 835 c 0
 -322 835 -325 835 -330 834 c 0
 -359 826 -379 802 -383 773 c 1
 -366 783 -357 788 -333 788 c 0
 -303 788 -287 766 -287 740 c 0
 -287 736 -287 730 -288 725 c 0
 -297 691 -330 664 -369 664 c 0
 -371 664 -371 664 -372 664 c 0
 -412 665 -435 697 -435 740 c 0
 -435 760 -429 783 -420 806 c 0
 -403 846 -369 880 -323 884 c 0
 -319 884 l 0
 -293 884 -271 871 -264 846 c 1
 -242 871 -213 884 -184 884 c 0
 -146 884 -120 854 -120 815 c 0
 -120 812 -121 808 -121 803 c 0
 -126 751 -159 713 -164 708 c 1
 -127 725 -101 746 -80 777 c 0
 -55 811 -40 863 -37 877 c 1
 2 834 l 1
-357 696 m 0
 -334 696 -320 716 -320 733 c 0
 -320 746 -328 757 -345 757 c 0
 -368 757 -382 737 -382 720 c 0
 -382 707 -374 696 -357 696 c 0
EndSplineSet
EndChar
StartChar: uni0E4B.low_left
Encoding: 137 63240 104
Width: 0
Flags: W
HStem: 753 66<-274 -205 -120 -54>
Fore
-54 753 m 1
 -135 753 l 1
 -153 667 l 1
 -224 667 l 1
 -205 753 l 1
 -288 753 l 1
 -273 819 l 1
 -190 819 l 1
 -172 909 l 1
 -101 909 l 1
 -120 819 l 1
 -38 819 l 1
 -54 753 l 1
EndSplineSet
EndChar
StartChar: uni0E4C.low_left
Encoding: 138 63241 105
Width: 0
Flags: W
HStem: 668 39<-228 -218> 789 37<-203 -185> 952 20G<-2 67 67 67>
VStem: -308 57<738 754> -167 43<753 766>
Fore
67 972 m 1
 67 972 l 0
 61 960 54 917 -3 889 c 0
 -71 855 -143 877 -201 851 c 0
 -231 837 -238 812 -241 809 c 1
 -224 820 -213 826 -185 826 c 0
 -150 826 -124 802 -124 766 c 0
 -124 760 -124 756 -126 750 c 0
 -136 699 -179 670 -224 668 c 0
 -228 668 l 0
 -281 668 -308 707 -308 754 c 0
 -308 773 -303 792 -294 812 c 0
 -258 891 -192 912 -90 912 c 0
 -11 912 -8 969 -2 972 c 1
 67 972 l 1
-218 707 m 0
 -187 707 -167 733 -167 756 c 0
 -167 774 -178 789 -202 789 c 0
 -233 789 -251 762 -251 739 c 0
 -251 722 -241 707 -218 707 c 0
EndSplineSet
EndChar
StartChar: uni0E48.low
Encoding: 139 63242 106
Width: 0
Flags: HW
AnchorPoint: "AboveBase" 26 659 mark 0
Fore
21 665 m 1
 -48 665 l 1
 0 887 l 1
 69 887 l 1
 21 665 l 1
EndSplineSet
EndChar
StartChar: uni0E49.low
Encoding: 140 63243 107
Width: 0
Flags: HW
AnchorPoint: "AboveBase" 26 659 mark 0
Fore
178 820 m 0
 178 820 l 0
 172 806 97 734 11 707 c 0
 -74 679 -162 679 -215 705 c 1
 -198 714 -205 710 -162 742 c 0
 -149 753 -115 791 -113 799 c 1
 -147 794 -172 805 -189 828 c 0
 -218 866 -189 961 -103 973 c 0
 -21 986 -6 932 -11 889 c 0
 -17 829 -69 769 -94 742 c 1
 -3 750 54 785 77 802 c 0
 98 817 152 851 199 926 c 1
 190 881 182 842 178 820 c 0
-113 840 m 0
 -54 840 -34 932 -94 932 c 0
 -155 932 -175 840 -113 840 c 0
EndSplineSet
EndChar
StartChar: uni0E4A.low
Encoding: 141 63244 108
Width: 0
Flags: HW
HStem: 673 20G<-181 -141> 753 32<-149 -133>
AnchorPoint: "AboveBase" 26 659 mark 0
Fore
201 831 m 1
 201 831 l 0
 187 792 166 765 136 736 c 0
 81 682 21 661 -48 665 c 1
 -34 673 3 708 18 754 c 0
 28 788 28 829 -5 834 c 0
 -35 838 -64 817 -71 809 c 1
 -72 817 -103 838 -132 831 c 0
 -161 823 -179 799 -184 771 c 1
 -169 780 -156 785 -133 785 c 0
 -98 785 -81 754 -90 722 c 0
 -100 687 -133 659 -173 661 c 0
 -233 665 -253 731 -222 803 c 0
 -204 845 -170 877 -126 881 c 0
 -95 884 -72 869 -64 845 c 1
 -44 868 -15 881 15 881 c 0
 58 881 83 846 80 800 c 0
 74 748 38 710 35 705 c 1
 71 722 97 743 120 776 c 0
 144 809 158 860 161 874 c 1
 201 831 l 1
-147 753 m 0
 -187 753 -201 693 -161 693 c 0
 -121 693 -107 753 -147 753 c 0
EndSplineSet
EndChar
StartChar: uni0E4B.low
Encoding: 142 63245 109
Width: 0
Flags: HW
HStem: 746 60<-87 -20 57 123>
AnchorPoint: "AboveBase" 26 659 mark 0
Fore
136 808 m 1
 123 746 l 1
 43 748 l 1
 38 727 25 664 26 668 c 1
 -37 668 l 1
 -20 748 l 1
 -101 746 l 1
 -87 806 l 1
 -6 808 l 1
 12 892 l 1
 74 892 l 1
 57 808 l 1
 136 808 l 1
EndSplineSet
EndChar
StartChar: uni0E4C.low
Encoding: 143 63246 110
Width: 0
Flags: HW
HStem: 802 41<-20 -2>
AnchorPoint: "AboveBase" 26 659 mark 0
Fore
277 1006 m 1
 277 1006 l 0
 273 992 264 946 202 914 c 0
 127 875 49 901 -18 871 c 0
 -51 855 -60 829 -63 825 c 1
 -43 837 -34 843 -2 843 c 0
 43 843 75 809 64 757 c 0
 54 704 5 670 -44 667 c 0
 -129 664 -162 751 -123 828 c 0
 -80 915 -8 938 104 940 c 0
 195 941 198 1002 202 1006 c 1
 277 1006 l 1
-37 710 m 0
 23 708 41 802 -18 802 c 0
 -80 802 -97 711 -37 710 c 0
EndSplineSet
EndChar
StartChar: uni0E0D.descless
Encoding: 144 63247 111
Width: 800
Flags: W
HStem: 0 66<365 615> 139 51<216 230> 532 61<374 390>
VStem: 101 60<74 86> 256 51<104 118> 492 71<464 477>
Fore
719 110 m 1
 719 110 l 0
 714 86 713 64 696 43 c 0
 674 17 645 0 615 0 c 2
 353 0 l 1
 366 66 l 1
 409 66 l 1
 490 445 l 2
 492 452 492 458 492 464 c 0
 492 509 455 530 374 532 c 0
 371 532 366 532 363 532 c 0
 284 532 236 501 236 501 c 2
 239 501 276 483 297 466 c 0
 322 448 345 423 345 423 c 1
 340 423 297 415 265 386 c 0
 241 366 224 339 218 308 c 2
 192 184 l 1
 192 184 208 190 230 190 c 0
 242 190 254 189 267 182 c 0
 291 172 307 149 307 118 c 0
 307 106 303 92 299 77 c 0
 281 29 235 -2 184 -2 c 0
 124 -2 101 32 101 74 c 0
 101 83 103 92 104 101 c 2
 152 322 l 2
 155 340 167 365 187 389 c 0
 204 412 231 426 231 426 c 1
 231 426 210 451 179 463 c 0
 152 475 136 483 110 487 c 1
 135 513 241 587 383 593 c 0
 389 593 394 593 400 593 c 0
 513 593 563 541 563 477 c 0
 563 468 561 457 559 448 c 2
 478 66 l 1
 604 66 l 2
 616 66 627 69 636 80 c 0
 648 90 648 101 651 113 c 2
 753 590 l 1
 822 590 l 1
 719 110 l 1
199 48 m 0
 235 48 256 78 256 104 c 0
 256 123 244 139 218 139 c 0
 182 139 161 109 161 84 c 0
 161 64 172 48 199 48 c 0
EndSplineSet
EndChar
StartChar: quoteleft
Encoding: 145 8216 112
Width: 268
Flags: W
Fore
313 679 m 1
 299 676 276 664 251 641 c 0
 231 621 222 592 222 589 c 1
 228 590 235 592 241 592 c 0
 259 592 274 584 285 572 c 0
 293 564 296 552 296 538 c 0
 296 506 274 468 242 454 c 0
 227 449 213 446 202 446 c 0
 170 446 150 463 146 483 c 0
 143 490 143 500 143 509 c 0
 143 558 173 625 216 665 c 0
 247 693 282 711 322 719 c 1
 313 679 l 1
EndSplineSet
EndChar
StartChar: quoteright
Encoding: 146 8217 113
Width: 278
Flags: W
Fore
351 691 m 0
 353 685 354 677 354 668 c 0
 354 619 320 550 277 509 c 0
 245 481 212 463 172 455 c 1
 181 495 l 1
 195 498 218 510 242 533 c 0
 262 553 271 582 271 586 c 1
 265 584 258 582 251 582 c 0
 235 582 219 590 208 602 c 0
 201 612 198 624 198 638 c 0
 198 670 218 708 251 720 c 0
 267 727 281 728 293 728 c 0
 325 728 345 710 351 691 c 0
EndSplineSet
EndChar
StartChar: quotedblleft
Encoding: 147 8220 114
Width: 484
Flags: W
VStem: 159 155<506 538> 386 158<506 536>
Fore
559 676 m 1
 559 676 l 0
 546 673 523 661 498 638 c 0
 478 618 469 589 468 586 c 1
 475 587 481 589 487 589 c 0
 506 589 521 581 533 570 c 1
 541 563 544 550 544 536 c 0
 544 504 523 464 490 452 c 0
 474 446 460 443 448 443 c 0
 415 443 395 461 391 480 c 0
 388 487 386 497 386 506 c 0
 386 556 422 622 464 662 c 0
 495 691 527 708 567 716 c 1
 559 676 l 1
330 679 m 1
 317 676 293 664 270 641 c 0
 248 621 239 592 239 589 c 1
 245 590 251 592 258 592 c 0
 276 592 291 584 302 572 c 0
 310 563 314 550 314 538 c 0
 314 506 293 466 261 454 c 0
 245 449 231 446 219 446 c 0
 187 446 169 463 162 483 c 0
 161 490 159 498 159 506 c 0
 159 555 192 625 235 665 c 0
 265 693 299 711 339 719 c 1
 330 679 l 1
EndSplineSet
EndChar
StartChar: quotedblright
Encoding: 148 8221 115
Width: 531
Flags: W
VStem: 207 158<638 668> 435 155<635 662>
Fore
587 688 m 0
 587 688 l 0
 590 681 590 671 590 662 c 0
 590 613 559 546 517 506 c 0
 484 478 452 460 412 452 c 1
 420 492 l 1
 435 495 457 507 483 530 c 0
 501 550 510 579 512 582 c 1
 506 581 498 579 492 579 c 0
 475 579 458 587 448 599 c 0
 440 609 435 621 435 635 c 0
 435 667 457 705 489 717 c 0
 504 723 518 725 530 725 c 0
 563 725 581 707 587 688 c 0
362 691 m 0
 363 685 365 677 365 668 c 0
 365 619 331 550 287 509 c 0
 256 481 222 463 182 455 c 1
 192 495 l 1
 204 498 228 510 251 533 c 0
 273 553 282 582 282 586 c 1
 276 584 268 582 262 582 c 0
 245 582 230 590 219 602 c 0
 212 612 207 624 207 638 c 0
 207 670 227 708 261 720 c 0
 276 727 290 728 302 728 c 0
 336 728 356 710 362 691 c 0
EndSplineSet
EndChar
StartChar: bullet
Encoding: 149 8226 116
Width: 528
Flags: W
Fore
293 98 m 0
 199 98 158 158 158 227 c 0
 158 322 235 434 363 434 c 0
 457 434 498 374 498 305 c 0
 498 210 422 98 293 98 c 0
EndSplineSet
EndChar
StartChar: endash
Encoding: 150 8211 117
Width: 548
Flags: W
HStem: 258 68<109 578>
Fore
578 258 m 1
 97 258 l 1
 110 326 l 1
 592 326 l 1
 578 258 l 1
EndSplineSet
EndChar
StartChar: emdash
Encoding: 151 8212 118
Width: 709
Flags: W
HStem: 258 68<109 737>
Fore
737 258 m 1
 97 258 l 1
 110 326 l 1
 751 326 l 1
 737 258 l 1
EndSplineSet
EndChar
StartChar: uni0E31.left
Encoding: 152 63248 119
Width: 0
Flags: W
HStem: 694 63<-156 -125.633> 871 46<-199 -183>
VStem: -307 53<794 811> -153 46<833 843>
Fore
149 794 m 1
 149 794 l 0
 110 765 38 727 -34 710 c 0
 -72 700 -116 694 -156 694 c 0
 -228 694 -291 714 -305 777 c 0
 -307 782 -307 788 -307 794 c 0
 -307 842 -268 909 -198 917 c 0
 -193 917 -189 917 -185 917 c 0
 -135 917 -107 884 -107 843 c 0
 -107 832 -109 822 -113 809 c 0
 -127 771 -138 768 -149 757 c 1
 -141 757 -132 757 -124 757 c 0
 -90 757 -55 760 -2 782 c 0
 86 817 161 889 172 901 c 1
 149 794 l 1
-192 871 m 0
 -230 871 -254 837 -254 811 c 0
 -254 791 -242 774 -215 774 c 0
 -176 774 -153 808 -153 835 c 0
 -153 854 -166 871 -192 871 c 0
EndSplineSet
EndChar
StartChar: uni0E4D.left
Encoding: 153 63249 120
Width: 0
Flags: W
HStem: 653 47<-194 -177> 811 47<-163 -147>
VStem: -274 47<732 745> -113 47<764 779>
Fore
-192 653 m 0
 -192 653 l 0
 -248 653 -274 690 -274 733 c 0
 -274 789 -227 858 -149 858 c 0
 -90 858 -66 822 -66 779 c 0
 -66 722 -113 653 -192 653 c 0
-182 700 m 0
 -139 700 -113 737 -113 768 c 0
 -113 791 -127 811 -159 811 c 0
 -202 811 -227 774 -227 743 c 0
 -227 720 -213 700 -182 700 c 0
EndSplineSet
EndChar
StartChar: uni0E47.left
Encoding: 154 63250 121
Width: 0
Flags: W
HStem: 665 43<-150 -137> 745 60<-295 -282> 763 42<-129 -116> 860 55<-161 -139> 872 54<-270 -245> 950 20G<12 12>
VStem: -437 69<756 774> -106 45<742 753>
Fore
12 970 m 1x97
 12 970 l 0
 11 969 -11 872 -127 860 c 0
 -132 860 -138 860 -143 860 c 0x97
 -178 860 -212 868 -245 871 c 0
 -253 872 -261 872 -268 872 c 0
 -297 872 -322 864 -346 840 c 0
 -362 822 -368 803 -368 785 c 0
 -368 782 -368 777 -368 774 c 1
 -368 765 l 1
 -349 785 -331 799 -303 803 c 0
 -296 805 -290 805 -284 805 c 0xcf
 -238 805 -204 776 -192 760 c 1
 -172 791 -143 805 -116 805 c 0xa7
 -86 805 -61 786 -61 753 c 0
 -61 745 -63 736 -66 727 c 0
 -78 691 -110 665 -150 665 c 0
 -156 665 -161 665 -167 667 c 0
 -225 676 -241 745 -293 745 c 0
 -299 745 -305 743 -313 742 c 0
 -342 733 -359 700 -366 667 c 2
 -368 659 l 1
 -411 677 -437 708 -437 756 c 0
 -437 762 -435 766 -435 773 c 0
 -428 846 -376 903 -320 917 c 0
 -293 924 -270 926 -251 926 c 0xcf
 -239 926 -228 926 -219 924 c 0
 -192 921 -170 915 -139 915 c 0
 -78 917 -61 970 -61 970 c 1
 -61 976 l 1
 12 976 l 1
 12 970 l 1x97
-106 736 m 0
 -106 737 -106 740 -106 742 c 0
 -106 754 -112 763 -127 763 c 0xa7
 -144 763 -156 750 -159 736 c 0
 -159 733 -159 731 -159 728 c 0
 -159 717 -153 708 -139 708 c 0
 -121 708 -109 720 -106 736 c 0
EndSplineSet
EndChar
StartChar: uni0E48.left
Encoding: 155 63251 122
Width: 0
Flags: W
Fore
-3 998 m 1
 -72 998 l 1
 -34 1173 l 1
 35 1173 l 1
 -3 998 l 1
EndSplineSet
EndChar
StartChar: uni0E49.left
Encoding: 156 63252 123
Width: 0
Flags: W
HStem: 1059 38<-124 -107> 1176 36<-100 -81>
VStem: -185 46<1117 1129> -61 43<1139 1152>
Fore
150 1113 m 1
 150 1113 l 0
 116 1076 84 1045 11 1016 c 0
 -40 996 -83 989 -121 989 c 0
 -141 989 -158 990 -175 993 c 1
 -159 1002 -147 1013 -135 1025 c 0
 -124 1038 -113 1055 -110 1061 c 1
 -115 1061 -120 1059 -124 1059 c 0
 -147 1059 -164 1070 -176 1087 c 0
 -182 1094 -185 1107 -185 1117 c 0
 -185 1156 -155 1205 -100 1212 c 0
 -94 1212 -89 1214 -83 1214 c 0
 -32 1214 -18 1182 -18 1150 c 0
 -18 1140 l 0
 -25 1088 -69 1041 -72 1039 c 0
 -28 1048 9 1065 46 1090 c 0
 103 1125 150 1174 170 1205 c 1
 150 1113 l 1
-107 1097 m 0
 -77 1097 -61 1122 -61 1145 c 0
 -61 1162 -71 1176 -89 1176 c 0
 -90 1176 -90 1176 -92 1176 c 0
 -121 1173 -139 1147 -139 1127 c 0
 -139 1111 -130 1097 -107 1097 c 0
EndSplineSet
EndChar
StartChar: uni0E4A.left
Encoding: 157 63253 124
Width: 0
Flags: W
HStem: 981 32<-129 -114> 1071 30<-108 -95> 1147 47<-87 -76>
VStem: -195 52<1035 1056> -83 34<1048 1058> 58 54<1107 1127>
Fore
230 1145 m 1
 230 1145 l 0
 216 1108 196 1081 167 1053 c 0
 118 1006 66 986 8 986 c 0
 -11 986 l 1
 3 992 37 1027 52 1071 c 0
 55 1082 58 1094 58 1107 c 0
 58 1127 51 1145 29 1148 c 0
 26 1148 23 1148 21 1148 c 0
 -5 1148 -28 1131 -32 1124 c 1
 -35 1130 -57 1147 -80 1147 c 0
 -84 1147 -87 1147 -92 1145 c 0
 -121 1139 -139 1114 -144 1087 c 1
 -129 1096 -118 1101 -95 1101 c 0
 -66 1101 -49 1081 -49 1056 c 0
 -49 1052 -51 1045 -52 1039 c 0
 -61 1007 -90 981 -127 981 c 0
 -129 981 -132 981 -133 981 c 0
 -173 983 -195 1015 -195 1056 c 0
 -195 1074 -190 1096 -181 1117 c 0
 -162 1159 -130 1189 -86 1194 c 0
 -83 1194 -81 1194 -78 1194 c 0
 -55 1194 -35 1180 -26 1159 c 1
 -8 1182 21 1194 49 1194 c 0
 89 1194 112 1165 112 1127 c 0
 112 1124 112 1119 112 1116 c 0
 106 1065 74 1029 69 1024 c 1
 103 1039 129 1061 150 1091 c 0
 175 1124 189 1174 192 1186 c 1
 230 1145 l 1
-106 1071 m 0
 -129 1071 -143 1052 -143 1035 c 0
 -143 1022 -136 1013 -120 1013 c 0
 -98 1013 -83 1033 -83 1050 c 0
 -83 1062 -90 1071 -106 1071 c 0
EndSplineSet
EndChar
StartChar: uni0E4B.left
Encoding: 158 63254 125
Width: 0
Flags: W
HStem: 1053 63<-125 -57 25 90>
Fore
90 1053 m 1
 11 1053 l 1
 -5 978 l 1
 -72 978 l 1
 -57 1053 l 1
 -138 1053 l 1
 -124 1116 l 1
 -43 1116 l 1
 -26 1196 l 1
 41 1196 l 1
 25 1116 l 1
 104 1116 l 1
 90 1053 l 1
EndSplineSet
EndChar
StartChar: uni0E4C.left
Encoding: 159 63255 126
Width: 0
Flags: W
HStem: 920 35<-109 -103> 1030 34<-90 -74>
VStem: -184 51<984 1001> -57 39<999 1009>
Fore
153 1194 m 1
 153 1194 l 0
 149 1185 141 1143 90 1119 c 0
 31 1090 -35 1108 -89 1085 c 0
 -112 1074 -121 1052 -124 1048 c 1
 -107 1058 -100 1064 -74 1064 c 0
 -40 1064 -18 1042 -18 1009 c 0
 -18 1004 -18 998 -20 993 c 0
 -29 949 -67 921 -107 920 c 0
 -156 920 -184 956 -184 1001 c 0
 -184 1018 -179 1035 -172 1052 c 0
 -139 1119 -80 1142 12 1142 c 0
 84 1142 87 1193 92 1194 c 2
 153 1194 l 1
-103 955 m 0
 -75 955 -57 979 -57 1001 c 0
 -57 1016 -66 1030 -87 1030 c 0
 -115 1030 -133 1006 -133 984 c 0
 -133 969 -124 955 -103 955 c 0
EndSplineSet
EndChar
StartChar: uni0E01
Encoding: 161 3585 128
Width: 626
Flags: W
HStem: 0 21G<100 169 451 520> 532 61<403 437>
VStem: 543 70<444 460>
Fore
520 0 m 1
 451 0 l 1
 540 418 l 2
 541 429 543 438 543 446 c 0
 543 507 490 532 414 532 c 0
 412 532 409 532 408 532 c 0
 322 532 264 498 264 498 c 2
 267 498 293 483 314 466 c 0
 334 451 362 423 362 423 c 1
 357 423 314 415 282 386 c 0
 258 366 241 339 235 308 c 2
 169 0 l 1
 100 0 l 1
 169 322 l 2
 172 340 184 365 204 389 c 0
 221 412 248 426 248 426 c 1
 248 426 227 451 196 463 c 0
 169 475 153 483 127 487 c 1
 152 512 281 593 417 593 c 4
 538 593 613 544 613 460 c 0
 613 448 612 435 609 422 c 2
 520 0 l 1
EndSplineSet
EndChar
StartChar: uni0E02
Encoding: 162 3586 129
Width: 648
Flags: W
HStem: 0 66<195 431> 354 52<214 218> 536 56<297 336>
VStem: 126 53<429 449> 276 54<464 470> 400 71<464 483>
Fore
555 118 m 1
 555 118 l 0
 552 98 546 69 524 46 c 0
 498 15 463 0 425 0 c 2
 182 0 l 1
 196 66 l 1
 270 66 l 1
 316 284 l 2
 320 305 323 319 334 340 c 0
 357 383 400 415 400 475 c 0
 400 477 l 0
 400 518 359 536 319 536 c 0
 310 536 300 535 293 533 c 1
 317 521 330 507 330 468 c 0
 328 428 296 360 216 354 c 0
 204 354 l 0
 152 354 126 385 126 429 c 0
 126 437 126 445 127 452 c 0
 139 527 213 587 297 592 c 0
 305 592 313 592 319 592 c 0
 417 592 458 552 469 497 c 0
 469 492 471 486 471 481 c 0
 471 440 451 400 425 366 c 0
 408 343 392 313 389 297 c 2
 340 66 l 1
 423 66 l 2
 440 66 457 71 468 83 c 0
 478 92 484 106 487 120 c 2
 587 590 l 1
 656 590 l 1
 555 118 l 1
238 500 m 0
 202 500 179 468 179 441 c 0
 179 423 192 406 218 406 c 0
 253 406 276 438 276 464 c 0
 276 483 264 500 238 500 c 0
EndSplineSet
EndChar
StartChar: uni0E03
Encoding: 163 3587 130
Width: 677
Flags: W
HStem: -6 66<250 471> 259 44<205 218> 400 46<229 247>
VStem: 118 60<338 351> 276 46<361 376> 451 72<477 487>
Fore
592 112 m 1
 592 112 l 0
 587 94 579 63 559 40 c 0
 533 11 497 -6 458 -6 c 2
 238 -6 l 1
 251 60 l 1
 322 60 l 1
 399 418 l 2
 399 422 449 452 451 472 c 0
 451 477 l 0
 451 500 420 523 418 523 c 2
 337 486 l 1
 277 523 l 1
 259 515 244 506 231 490 c 0
 215 471 202 452 199 437 c 1
 215 445 228 446 242 446 c 0
 256 446 270 445 282 440 c 0
 308 431 322 405 322 376 c 0
 322 351 314 325 297 303 c 0
 274 273 239 259 207 259 c 0
 173 259 143 273 129 302 c 0
 123 316 118 333 118 351 c 0
 118 395 136 449 167 492 c 0
 199 538 230 566 279 587 c 1
 349 541 l 1
 440 587 l 1
 461 573 478 558 492 536 c 1
 512 512 523 489 523 487 c 2
 515 454 l 2
 515 452 500 438 494 432 c 0
 484 423 477 417 466 411 c 1
 391 60 l 1
 458 60 l 2
 474 60 492 64 504 77 c 0
 512 86 518 100 521 113 c 2
 621 584 l 1
 691 584 l 1
 592 112 l 1
216 303 m 0
 253 303 276 336 276 363 c 0
 276 383 264 400 236 400 c 0
 199 400 178 368 178 340 c 0
 178 320 190 303 216 303 c 0
EndSplineSet
EndChar
StartChar: uni0E04
Encoding: 164 3588 131
Width: 613
Flags: W
HStem: 0 21G<123 192 432 501> 228 49<275 286> 371 49<301 313> 532 61<382 406>
VStem: 101 63<311 344> 340 54<336 348> 520 70<418 441>
Fore
501 0 m 1
 432 0 l 1
 517 394 l 2
 518 405 520 415 520 426 c 0
 520 490 474 532 382 532 c 0
 377 532 l 0
 253 532 192 449 172 382 c 0
 166 362 164 342 164 325 c 0
 164 284 178 254 179 253 c 1
 193 317 l 2
 201 353 239 420 313 420 c 0
 363 420 394 392 394 348 c 0
 394 346 394 343 394 342 c 0
 391 291 360 253 319 236 c 0
 303 230 290 228 277 228 c 0
 256 228 242 235 242 235 c 1
 192 0 l 1
 123 0 l 1
 144 98 l 2
 146 106 146 113 146 120 c 0
 146 129 146 136 143 146 c 0
 133 187 101 254 101 328 c 0
 101 346 103 365 107 383 c 0
 136 497 238 589 395 593 c 0
 399 593 403 593 406 593 c 0
 526 593 590 532 590 441 c 0
 590 428 589 412 586 397 c 2
 501 0 l 1
284 277 m 0
 319 277 340 308 340 336 c 0
 340 354 330 371 303 371 c 0
 268 371 247 340 247 313 c 0
 247 294 258 277 284 277 c 0
EndSplineSet
EndChar
StartChar: uni0E05
Encoding: 165 3589 132
Width: 591
Flags: W
HStem: 0 21G<101 173 406 475> 231 45<293 308> 377 49<321 339>
VStem: 78 66<288 323> 166 99<199 316> 371 46<335 349> 500 69<447 465>
Fore
475 0 m 1
 406 0 l 1
 494 409 l 2
 498 429 500 443 500 455 c 0
 500 466 498 477 494 489 c 0
 483 512 475 521 457 530 c 1
 363 472 l 1
 294 535 l 1
 242 509 184 475 152 379 c 0
 146 362 144 343 144 323 c 0
 144 265 164 202 166 199 c 1
 166 199 l 0
 166 212 190 368 277 411 c 0
 299 422 320 426 337 426 c 0
 385 426 415 397 417 356 c 0
 417 354 417 351 417 349 c 0
 417 290 377 233 293 231 c 0
 256 231 236 248 236 248 c 1
 219 201 216 192 198 120 c 0
 184 74 181 44 173 0 c 1
 101 0 l 1
 103 15 106 32 106 66 c 0
 106 77 106 90 104 107 c 0
 98 164 78 218 78 288 c 0
 78 317 81 349 92 385 c 0
 124 497 213 556 320 593 c 1
 377 541 l 1
 463 593 l 1
 495 586 526 569 547 535 c 0
 561 515 569 492 569 463 c 0
 569 448 567 432 563 414 c 2
 475 0 l 1
308 276 m 0
 346 276 371 310 371 339 c 0
 371 359 359 377 330 377 c 0
 290 377 265 343 265 316 c 0
 265 294 279 276 308 276 c 0
EndSplineSet
EndChar
StartChar: uni0E06
Encoding: 166 3590 133
Width: 770
Flags: W
HStem: -3 58<263 275> 0 67<564 575> 189 62<323 342> 265 45<187 200> 406 46<211 229>
VStem: 100 59<344 357> 184 61<81 98> 258 45<367 382> 432 71<483 492>
Fore
687 136 m 1x7f80
 687 136 l 0
 676 89 667 41 622 17 c 0
 602 5 582 0 564 0 c 0x7f80
 536 0 512 12 492 35 c 2
 392 156 l 1
 376 83 l 2
 366 37 319 -3 271 -3 c 0xbf80
 212 -3 184 37 184 87 c 0
 184 118 195 155 218 187 c 0
 247 230 294 251 342 251 c 1
 379 425 l 2
 379 428 429 457 432 478 c 0
 432 483 l 0
 432 506 402 529 400 529 c 2
 319 492 l 1
 259 529 l 1
 241 521 225 512 213 495 c 0
 196 477 182 457 179 443 c 1
 195 449 212 452 225 452 c 0
 239 452 251 449 264 446 c 0
 290 437 303 411 303 382 c 0
 303 357 296 331 279 310 c 0
 256 279 221 265 189 265 c 0
 155 265 124 279 110 308 c 0
 104 322 100 339 100 357 c 0
 100 402 118 455 149 498 c 0
 179 544 212 570 261 593 c 1
 331 547 l 1
 422 593 l 1
 443 579 460 564 474 543 c 1
 494 518 503 494 503 492 c 2
 497 460 l 2
 497 458 481 445 475 438 c 0
 466 429 455 422 448 415 c 1
 409 238 l 1
 515 118 l 2
 535 98 547 67 575 67 c 0
 601 69 610 100 615 124 c 2
 714 590 l 1
 783 590 l 1
 687 136 l 1x7f80
198 310 m 0
 198 310 l 0
 235 310 258 342 258 369 c 0
 258 389 245 406 218 406 c 0
 181 406 159 374 159 346 c 0
 159 326 172 310 198 310 c 0
308 95 m 2
 328 189 l 1
 307 189 285 187 268 164 c 0
 254 146 245 116 245 94 c 0
 245 72 253 55 270 55 c 0
 274 55 l 0xbf80
 293 58 302 63 308 95 c 2
EndSplineSet
EndChar
StartChar: uni0E07
Encoding: 167 3591 134
Width: 496
Flags: W
HStem: -6 64<285 296> 402 49<365 380> 543 50<398 411>
VStem: 288 54<474 486> 437 57<505 518>
Fore
412 120 m 1
 412 120 l 0
 402 75 389 34 348 12 c 0
 326 0 305 -6 285 -6 c 0
 256 -6 231 6 213 32 c 0
 185 74 198 164 155 207 c 0
 133 227 113 227 86 228 c 1
 98 291 l 1
 98 291 101 291 104 291 c 0
 121 291 167 290 199 264 c 0
 268 208 236 58 294 58 c 0
 296 58 296 58 296 58 c 0
 326 60 336 89 340 110 c 2
 405 408 l 1
 405 408 386 402 365 402 c 0
 353 402 340 403 328 409 c 0
 303 420 288 443 288 474 c 0
 288 486 291 500 296 515 c 0
 314 563 360 593 411 593 c 0
 471 593 494 559 494 518 c 0
 494 509 492 500 490 490 c 2
 412 120 l 1
380 451 m 0
 415 451 437 481 437 507 c 0
 437 526 426 543 400 543 c 0
 363 543 342 512 342 486 c 0
 342 468 354 451 380 451 c 0
EndSplineSet
EndChar
StartChar: uni0E08
Encoding: 168 3592 135
Width: 551
Flags: W
HStem: -3 61<331 349> 213 49<233 249> 356 50<265 277> 530 63<340 367>
VStem: 156 54<287 299> 305 57<316 330> 468 72<445 463>
Fore
464 95 m 1
 464 95 l 0
 452 37 397 -3 331 -3 c 0
 277 -3 242 28 242 71 c 0
 242 77 242 83 244 89 c 2
 271 219 l 1
 271 219 254 213 233 213 c 0
 221 213 208 215 196 221 c 0
 172 233 156 256 156 287 c 0
 156 299 159 313 164 328 c 0
 182 376 228 406 277 406 c 0
 339 406 362 372 362 330 c 0
 362 320 360 311 359 302 c 2
 317 107 l 2
 316 103 316 98 316 94 c 0
 316 75 323 60 349 58 c 0
 383 58 394 86 399 109 c 2
 464 418 l 2
 466 428 468 435 468 445 c 0
 468 500 423 530 351 530 c 0
 342 530 l 0
 267 529 202 497 162 432 c 1
 110 460 l 1
 170 550 254 592 362 593 c 0
 474 593 540 544 540 463 c 0
 540 451 538 438 535 426 c 2
 464 95 l 1
247 262 m 0
 284 262 305 293 305 320 c 0
 305 339 293 356 267 356 c 0
 231 356 210 325 210 297 c 0
 210 279 221 262 247 262 c 0
EndSplineSet
EndChar
StartChar: uni0E09
Encoding: 169 3593 136
Width: 596
Flags: W
HStem: -3 60<497 513> 181 57<520 528> 199 49<156 172> 340 51<190 202> 532 61<361 385>
VStem: 80 53<271 284> 167 74<60 83> 228 57<300 316> 423 67<61 80> 495 72<439 461> 558 64<129 149>
Fore
609 81 m 0xdca0
 609 81 l 0
 586 18 540 -3 497 -3 c 0
 448 -3 423 25 423 61 c 0
 423 67 423 74 425 80 c 2
 440 152 l 1
 440 152 425 149 369 84 c 0
 323 31 282 -3 238 -3 c 0
 235 -3 230 -3 227 -3 c 0
 182 2 167 26 167 60 c 0xdea0
 167 69 169 78 170 89 c 2
 195 205 l 1
 195 205 178 199 156 199 c 0
 144 199 132 201 120 207 c 0
 95 218 80 241 80 271 c 0
 80 284 83 297 87 313 c 0
 106 360 152 391 202 391 c 0
 262 391 285 357 285 316 c 0xbd80
 285 307 284 297 282 288 c 2
 245 116 l 2
 244 106 241 94 241 83 c 0
 241 71 244 61 256 61 c 0
 287 61 325 112 363 158 c 0
 411 213 448 227 452 228 c 1
 492 418 l 2
 494 426 495 434 495 441 c 0
 495 498 445 532 374 532 c 0
 369 532 l 0
 293 532 227 504 179 437 c 1
 133 466 l 1
 195 550 281 592 374 593 c 0
 379 593 l 0
 492 593 567 546 567 461 c 0xbec0
 567 451 567 440 564 428 c 2
 524 238 l 1
 524 238 524 238 526 238 c 0
 533 238 569 236 596 215 c 0
 615 198 622 175 622 149 c 0
 622 127 618 104 609 81 c 0xdca0
555 155 m 0
 555 155 l 0
 549 178 530 181 520 181 c 0
 515 181 510 181 510 181 c 1
 492 95 l 2
 490 89 490 84 490 80 c 0
 490 63 497 57 509 57 c 0
 510 57 510 57 512 57 c 0
 540 57 558 97 558 130 c 0
 558 139 558 147 555 155 c 0
172 248 m 0xbd80
 207 248 228 279 228 305 c 0
 228 323 218 340 192 340 c 0
 155 340 133 310 133 284 c 0
 133 265 146 248 172 248 c 0xbd80
EndSplineSet
EndChar
StartChar: uni0E0A
Encoding: 170 3594 137
Width: 602
Flags: W
HStem: 0 66<160 395> 354 52<179 182> 490 25<429 501> 536 56<262 299>
VStem: 90 54<429 443> 241 53<464 470> 365 70<475 481> 506 70<383 399>
Fore
676 569 m 1
 676 569 l 0
 673 567 645 543 598 524 c 0
 559 509 506 490 501 490 c 0
 503 490 538 478 558 451 c 0
 572 432 576 414 576 397 c 0
 576 388 575 379 573 371 c 2
 520 118 l 2
 517 98 510 69 489 46 c 0
 463 15 428 0 389 0 c 2
 147 0 l 1
 161 66 l 1
 235 66 l 1
 281 284 l 2
 285 305 288 319 299 340 c 0
 322 383 365 415 365 475 c 0
 365 477 l 0
 365 518 323 536 284 536 c 0
 274 536 265 535 258 533 c 1
 282 521 294 507 294 468 c 0
 293 428 261 360 181 354 c 0
 176 354 173 354 169 354 c 0
 116 354 90 385 90 429 c 0
 90 437 90 445 92 452 c 0
 104 527 178 587 262 592 c 0
 270 592 277 592 284 592 c 0
 382 592 423 552 434 497 c 0
 434 492 435 486 435 481 c 0
 435 440 415 400 389 366 c 0
 372 343 357 313 354 297 c 2
 305 66 l 1
 388 66 l 2
 405 66 422 71 432 83 c 0
 443 92 449 106 452 120 c 2
 501 353 l 2
 504 365 506 377 506 388 c 0
 506 402 501 415 492 429 c 0
 469 455 432 463 432 463 c 1
 429 515 l 1
 435 515 506 536 561 564 c 0
 618 592 664 636 664 638 c 1
 676 569 l 1
202 500 m 0
 167 500 144 468 144 441 c 0
 144 423 156 406 182 406 c 0
 218 406 241 438 241 464 c 0
 241 483 228 500 202 500 c 0
EndSplineSet
EndChar
StartChar: uni0E0B
Encoding: 171 3595 138
Width: 648
Flags: W
HStem: 0 66<215 447> 274 52<171 182> 420 51<200 216> 490 20<486 556>
VStem: 90 54<352 369> 241 53<385 394> 561 71<385 399>
Fore
731 569 m 1
 731 569 l 0
 728 567 700 543 653 524 c 0
 615 509 561 490 556 490 c 0
 558 490 593 478 613 451 c 0
 627 432 632 414 632 397 c 0
 632 388 630 379 628 371 c 2
 575 118 l 2
 572 98 566 69 544 46 c 0
 520 15 483 0 445 0 c 2
 202 0 l 1
 216 66 l 1
 290 66 l 1
 366 428 l 1
 423 475 l 1
 423 475 422 495 412 507 c 0
 399 529 388 532 388 532 c 1
 314 498 l 1
 256 532 l 1
 241 529 236 526 219 509 c 0
 199 492 189 471 189 468 c 1
 189 468 201 471 216 471 c 0
 248 471 294 460 294 394 c 0
 294 392 294 389 294 388 c 0
 291 348 261 279 181 274 c 0
 178 274 176 274 173 274 c 0
 116 274 90 307 90 354 c 0
 90 360 90 366 92 372 c 0
 107 536 248 595 251 595 c 2
 326 561 l 1
 412 593 l 2
 415 593 451 578 466 553 c 0
 474 538 484 523 486 507 c 2
 489 463 l 1
 434 412 l 1
 360 66 l 1
 445 66 l 2
 460 66 478 71 489 83 c 0
 498 92 504 106 507 120 c 2
 556 353 l 2
 559 365 561 377 561 388 c 0
 561 402 556 415 547 429 c 0
 526 455 489 463 489 463 c 1
 486 510 l 1
 489 510 561 536 616 564 c 0
 674 592 719 636 719 638 c 1
 731 569 l 1
204 420 m 0
 167 420 144 388 144 362 c 0
 144 343 156 326 182 326 c 0
 218 326 241 359 241 385 c 0
 241 403 230 420 204 420 c 0
EndSplineSet
EndChar
StartChar: uni0E0C
Encoding: 172 3596 139
Width: 792
Flags: W
HStem: -2 51<171 186> -2 77<604 608> 141 49<202 218> 532 61<356 379>
VStem: 89 57<74 90> 241 53<104 118> 302 54<76 98> 481 71<463 478>
Fore
549 449 m 0xbf
 504 228 l 0
 504 228 l 0
 504 227 535 222 556 167 c 0
 572 130 584 75 604 75 c 0
 605 75 605 75 607 75 c 0
 624 77 627 98 630 113 c 2
 731 590 l 1
 800 590 l 1
 694 95 l 2
 684 41 653 5 618 0 c 0
 613 0 609 -2 604 -2 c 0x7f
 572 -2 550 14 535 52 c 0
 513 107 486 149 486 149 c 1
 469 69 l 2
 461 37 422 -3 377 -3 c 0
 372 -3 l 0
 326 0 302 35 302 83 c 0
 302 98 305 113 310 130 c 0
 333 207 377 230 435 239 c 1
 480 446 l 2
 481 452 481 458 481 463 c 0
 481 509 437 532 356 532 c 0
 271 532 235 498 235 498 c 2
 238 498 264 483 285 466 c 0
 305 451 333 423 333 423 c 1
 328 423 285 415 253 386 c 0
 228 366 212 339 205 308 c 2
 179 184 l 1
 179 184 196 190 218 190 c 0
 230 190 242 189 254 182 c 0
 279 172 294 149 294 118 c 0
 294 106 291 92 287 77 c 0
 268 29 222 -2 172 -2 c 0
 112 -2 89 32 89 74 c 0
 89 83 90 92 92 101 c 2
 139 322 l 2
 143 340 155 365 175 389 c 0
 192 412 219 426 219 426 c 1
 219 426 198 451 167 463 c 0
 139 475 124 483 98 487 c 1
 123 513 228 587 371 593 c 1
 492 593 552 547 552 478 c 0
 552 469 550 460 549 449 c 0xbf
400 78 m 0
 423 184 l 0
 423 184 422 184 418 184 c 0
 408 184 382 181 366 138 c 0
 362 123 356 103 356 87 c 0
 356 71 362 58 377 58 c 0
 386 58 399 69 400 78 c 0
182 49 m 0xbf
 219 49 241 80 241 106 c 0
 241 124 228 141 202 141 c 0
 167 141 146 110 146 84 c 0
 146 66 156 49 182 49 c 0xbf
EndSplineSet
EndChar
StartChar: uni0E0D
Encoding: 173 3597 140
Width: 833
Flags: W
HStem: -284 66<452 460 452 475> -110 47<417 436> 0 66<401 635> 141 49<249 265> 532 61<418 435>
VStem: 136 57<74 86> 288 54<105 118> 320 54<-184 -164> 460 49<-145 -133> 527 71<463 477>
Fore
740 110 m 1xfec0
 740 110 l 0
 736 86 733 64 716 43 c 0
 696 15 665 0 635 0 c 2
 388 0 l 1
 402 66 l 1
 445 66 l 1
 526 445 l 2
 527 451 527 458 527 463 c 0
 527 509 486 532 409 532 c 0
 323 532 282 498 282 498 c 2
 285 498 311 483 333 466 c 0
 353 451 380 423 380 423 c 1
 376 423 333 415 300 386 c 0
 276 366 259 339 253 308 c 2
 227 184 l 1
 227 184 244 190 265 190 c 0
 277 190 290 189 302 182 c 0
 326 172 342 149 342 118 c 0
 342 106 339 92 334 77 c 0
 316 29 270 -2 219 -2 c 0
 159 -2 136 32 136 74 c 0
 136 83 138 92 139 101 c 2
 187 322 l 2
 190 340 202 365 222 389 c 0
 239 412 267 426 267 426 c 1
 267 426 245 451 215 463 c 0
 187 475 172 483 146 487 c 1
 170 513 276 587 418 593 c 0
 425 593 429 593 435 593 c 0
 549 593 598 541 598 477 c 0
 598 468 596 457 595 448 c 2
 513 66 l 1
 625 66 l 2
 636 66 647 69 658 80 c 0
 670 90 670 101 673 113 c 2
 774 590 l 1
 843 590 l 1
 740 110 l 1xfec0
697 -61 m 1
 697 -61 l 0
 696 -78 677 -149 638 -198 c 0
 604 -239 544 -279 475 -284 c 0
 471 -284 464 -284 460 -284 c 0
 383 -284 320 -253 320 -184 c 0
 320 -170 l 0xfdc0
 325 -123 360 -64 432 -63 c 0
 483 -63 509 -94 509 -133 c 0
 509 -146 506 -161 500 -175 c 0
 484 -212 454 -218 452 -218 c 0
 454 -218 463 -224 481 -224 c 0
 490 -224 501 -222 513 -218 c 0
 550 -207 576 -185 599 -152 c 0
 618 -121 632 -61 632 -61 c 1
 697 -61 l 1
230 49 m 0
 230 49 l 0
 267 49 288 80 288 106 c 0xfec0
 288 124 276 141 250 141 c 0
 215 141 193 110 193 84 c 0
 193 66 204 49 230 49 c 0
426 -110 m 0
 394 -110 374 -139 374 -164 c 0xfdc0
 374 -181 383 -196 406 -196 c 0
 440 -196 460 -167 460 -143 c 0
 460 -126 449 -110 426 -110 c 0
EndSplineSet
Substitution: 0 65534 'ndsc' uni0E0D.descless
Substitution: 0 65534 'nds0' uni0E0D.descless
EndChar
StartChar: uni0E0E
Encoding: 174 3598 141
Width: 668
Flags: HW
HStem: -301 57<96 114> -159 52<145 166> -28 20G<319 388> -2 51<133 148> 141 49<155 173> 532 61<453 493>
VStem: 12 67<-233 -213> 52 54<71 84> 580 70<448 466>
AnchorPoint: "BelowBase" 488 -311 basechar 0
Fore
521 -162 m 1xfd80
 337 -317 l 1
 337 -317 323 -294 299 -256 c 0
 287 -241 264 -219 261 -218 c 1
 254 -225 221 -256 193 -271 c 0
 160 -292 126 -301 96 -301 c 0
 58 -301 27 -286 17 -261 c 0
 13 -252 12 -243 12 -233 c 0xfe80
 12 -192 42 -143 86 -124 c 0
 115 -111 142 -107 166 -107 c 0
 219 -107 255 -130 258 -132 c 1
 258 -130 279 -104 294 -71 c 0
 310 -40 317 -12 319 -8 c 1
 388 -8 l 1
 388 -11 377 -48 354 -86 c 0
 325 -138 305 -158 300 -164 c 1
 360 -225 l 1
 455 -153 l 1
 576 415 l 2
 579 428 580 440 580 450 c 0
 580 507 543 532 470 532 c 0
 464 532 l 0
 379 532 328 498 328 498 c 2
 331 498 357 483 380 466 c 0
 400 451 426 423 426 423 c 1
 422 423 380 415 346 386 c 0
 323 366 307 339 300 308 c 2
 256 101 l 2
 245 49 207 -2 133 -2 c 0
 85 -2 52 27 52 71 c 0
 52 77 l 0
 55 129 86 167 127 182 c 0
 142 188 157 190 169 190 c 0
 191 190 205 184 205 184 c 1
 235 322 l 2
 238 340 248 365 268 389 c 0
 287 412 313 426 313 426 c 1
 313 426 293 451 262 463 c 0
 235 475 219 483 193 487 c 1
 216 513 337 593 474 593 c 0
 592 593 650 543 650 462 c 0
 650 448 649 434 645 418 c 2
 521 -162 l 1xfd80
144 49 m 0
 144 49 l 0
 180 49 201 80 201 106 c 0
 201 125 190 141 164 141 c 0
 128 141 106 110 106 84 c 0xfd80
 106 65 118 49 144 49 c 0
213 -179 m 0
 213 -178 181 -159 146 -159 c 0
 129 -159 110 -164 95 -179 c 0
 84 -191 79 -202 79 -213 c 0xfe80
 79 -230 93 -244 114 -244 c 0
 115 -244 117 -244 118 -244 c 0
 175 -238 212 -187 213 -179 c 0
EndSplineSet
EndChar
StartChar: uni0E0F
Encoding: 175 3599 142
Width: 663
Flags: HW
HStem: -313 54<82 94> -152 54<123 131> -29 20G<262 323> -2 51<135 148> 141 49<155 174> 532 61<450 477>
VStem: 13 57<-241 -227> 53 54<71 84> 582 70<461 477>
AnchorPoint: "BelowBase" 484 -311 basechar 0
Fore
521 -159 m 1xfd80
 521 -159 l 0
 506 -190 489 -212 466 -236 c 0
 437 -268 411 -290 371 -310 c 1
 323 -216 l 1
 233 -311 l 1
 196 -238 l 1
 196 -238 172 -271 155 -282 c 0
 129 -299 112 -313 82 -313 c 0
 76 -313 71 -312 64 -311 c 0
 29 -306 13 -276 13 -240 c 0xfe80
 13 -219 19 -196 29 -176 c 0
 49 -136 84 -100 129 -98 c 0
 172 -98 202 -133 204 -138 c 1
 204 -138 222 -107 239 -69 c 0
 259 -31 262 -11 262 -9 c 1
 323 -9 l 1
 323 -11 305 -63 282 -110 c 0
 262 -149 241 -176 238 -178 c 1
 250 -213 l 1
 346 -106 l 1
 397 -222 l 1
 409 -216 418 -207 429 -195 c 0
 440 -182 448 -173 452 -159 c 1
 579 440 l 2
 581 448 582 455 582 463 c 0
 582 508 547 532 466 532 c 0
 380 532 330 498 330 498 c 2
 333 498 359 483 382 466 c 0
 402 451 428 423 428 423 c 1
 423 423 382 415 348 386 c 0
 325 366 308 339 302 308 c 2
 258 101 l 2
 247 49 208 -2 135 -2 c 0
 86 -2 53 27 53 71 c 0
 53 73 54 75 54 77 c 0
 57 129 87 167 129 182 c 0
 144 188 158 190 170 190 c 0
 192 190 207 184 207 184 c 1
 236 322 l 2
 239 340 250 365 270 389 c 0
 288 412 314 426 314 426 c 1
 314 426 294 451 264 463 c 0
 236 475 221 483 195 487 c 1
 218 513 339 592 475 593 c 0
 594 593 652 550 652 477 c 0
 652 467 651 455 648 443 c 2
 521 -159 l 1xfd80
146 49 m 0
 146 49 l 0
 181 49 203 80 203 106 c 0
 203 125 191 141 166 141 c 0
 129 141 107 110 107 84 c 0xfd80
 107 65 119 49 146 49 c 0
167 -184 m 1
 167 -184 146 -152 123 -152 c 0
 120 -152 l 0
 91 -155 70 -199 70 -229 c 0xfe80
 70 -245 75 -257 89 -259 c 0
 92 -259 l 0
 122 -259 167 -184 167 -184 c 1
EndSplineSet
EndChar
StartChar: uni0E10
Encoding: 176 3600 143
Width: 528
Flags: W
HStem: -290 52<15 25> -181 45<308 319> -175 54<32 51> -77 43<323 339> -3 61<313 331> 158 49<204 219> 299 50<236 248> 455 42<143 254> 506 83<365 385> 521 40<532 545.164> 521 54<589 595> 530 59<351 369>
VStem: -48 53<-225 -215> 126 55<228 244> 224 73<72 94> 247 47<-122 -111> 276 55<262 274> 354 48<-107 -92> 426 71<332 349>
Fore
595 521 m 1x9f2ce0
 595 521 l 0x9f2ce0
 593 521 559 506 532 506 c 0x9f8ce0
 464 506 432 530 365 530 c 0
 360 530 l 0
 290 530 254 497 254 497 c 2
 256 497 386 489 461 429 c 0
 483 409 497 383 497 349 c 0
 497 340 497 331 494 320 c 2
 446 95 l 2
 434 37 379 -3 313 -3 c 0
 259 -3 224 28 224 72 c 0x9f1e60
 224 77 224 83 225 89 c 2
 242 164 l 1
 242 164 225 158 204 158 c 0
 192 158 178 159 166 166 c 0
 141 176 126 198 126 228 c 0
 126 241 129 256 135 271 c 0
 152 319 198 349 248 349 c 0
 308 349 331 316 331 274 c 0x9f1ce0
 331 265 330 256 328 247 c 2
 299 107 l 2
 297 103 297 98 297 94 c 0x9f1e60
 297 75 305 60 331 58 c 0
 365 58 376 86 380 109 c 2
 423 313 l 2
 425 320 426 328 426 334 c 0
 426 386 377 414 325 429 c 0
 250 449 169 455 143 455 c 0
 138 455 136 455 135 455 c 1
 192 530 241 575 336 587 c 0
 348 589 359 589 369 589 c 0x9f8ce0
 428 589 461 566 524 561 c 0
 527 561 529 561 532 561 c 0x9f4ce0
 559 561 587 575 589 575 c 1
 595 521 l 1x9f2ce0
377 -225 m 1
 256 -296 l 1
 198 -250 l 1
 110 -296 l 1
 109 -296 l 2
 106 -296 104 -287 104 -285 c 0
 101 -273 100 -262 92 -251 c 2
 90 -247 l 1
 80 -259 46 -290 18 -290 c 0
 -25 -290 -48 -261 -48 -225 c 0
 -48 -219 -46 -212 -44 -204 c 0
 -35 -166 -14 -141 21 -127 c 0
 31 -123 40 -121 51 -121 c 0xbf0d60
 74 -121 97 -132 106 -143 c 1
 106 -141 l 1
 113 -130 l 1
 129 -101 139 -69 150 -38 c 1
 208 -38 l 1
 207 -40 l 2
 205 -48 190 -90 176 -124 c 0
 159 -161 139 -184 136 -190 c 1
 146 -221 l 1
 213 -189 l 1
 270 -230 l 1
 330 -198 l 1
 334 -176 l 1
 325 -179 316 -181 308 -181 c 0xdf0d60
 293 -181 281 -176 270 -169 c 0
 254 -158 247 -141 247 -121 c 0xbf0d60
 247 -101 254 -81 270 -64 c 0
 288 -43 313 -34 337 -34 c 0
 346 -34 354 -34 362 -37 c 0
 392 -46 402 -69 402 -94 c 0
 402 -104 400 -116 397 -127 c 2
 377 -225 l 1
219 207 m 0
 219 207 l 0
 254 207 276 238 276 264 c 0x9f0ce0
 276 282 264 299 238 299 c 0
 202 299 181 268 181 244 c 0
 181 224 192 207 219 207 c 0
354 -106 m 0
 354 -106 l 0
 354 -103 354 -101 354 -100 c 0
 354 -84 343 -77 331 -77 c 0xdf0ce0
 316 -77 299 -87 294 -107 c 0
 294 -110 294 -112 294 -113 c 0
 294 -130 305 -136 317 -136 c 0xdf0d60
 333 -136 351 -126 354 -106 c 0
66 -195 m 1
 66 -192 49 -175 32 -175 c 0
 28 -175 l 0xbf0c60
 14 -179 5 -199 5 -215 c 0
 5 -227 9 -238 21 -238 c 0
 23 -238 23 -238 25 -238 c 0
 38 -236 49 -227 55 -216 c 0
 63 -205 66 -195 66 -195 c 1
EndSplineSet
Substitution: 0 65534 'ndsc' uni0E10.descless
Substitution: 0 65534 'nds0' uni0E10.descless
EndChar
StartChar: uni0E11
Encoding: 177 3601 144
Width: 815
Flags: W
HStem: 0 21G<296 369 633 702> 265 45<193 206> 406 46<217 235>
VStem: 106 60<344 357> 264 46<367 382> 438 71<483 492> 736 72<486 506>
Fore
702 0 m 1
 633 0 l 1
 734 474 l 2
 734 478 736 481 736 486 c 0
 736 500 730 510 716 513 c 0
 714 513 713 513 713 513 c 0
 697 513 679 498 671 489 c 1
 668 487 592 394 547 330 c 0
 483 236 412 144 392 84 c 0
 382 52 376 32 369 0 c 1
 296 0 l 1
 386 425 l 2
 386 428 435 457 438 478 c 0
 438 483 l 0
 438 506 408 529 406 529 c 2
 325 492 l 1
 265 529 l 1
 247 521 231 512 219 495 c 0
 202 477 189 457 185 443 c 1
 201 449 218 452 231 452 c 0
 245 452 258 449 270 446 c 0
 296 437 310 411 310 382 c 0
 310 357 302 331 285 310 c 0
 262 279 227 265 195 265 c 0
 161 265 130 279 116 308 c 0
 110 322 106 339 106 357 c 0
 106 402 124 455 155 498 c 0
 185 544 218 570 267 593 c 1
 337 547 l 1
 428 593 l 1
 449 579 466 564 480 543 c 1
 500 518 509 494 509 492 c 2
 503 460 l 2
 503 458 487 445 481 438 c 0
 474 431 464 423 454 415 c 1
 415 235 l 1
 438 282 494 359 544 426 c 0
 615 520 676 584 727 590 c 0
 730 590 731 590 733 590 c 0
 759 590 777 575 789 558 c 0
 800 541 808 526 808 506 c 0
 808 500 808 494 806 487 c 2
 702 0 l 1
204 310 m 0
 241 310 264 342 264 369 c 0
 264 389 251 406 224 406 c 0
 187 406 166 374 166 346 c 0
 166 326 178 310 204 310 c 0
EndSplineSet
EndChar
StartChar: uni0E12
Encoding: 178 3602 145
Width: 820
Flags: W
HStem: -3 60<413 426> -3 69<626 635> 236 45<273 291> 379 46<305 322>
VStem: 89 66<297 322> 201 50<307 321> 342 55<85 106> 351 51<338 349> 523 67<446.076 470>
Fore
723 100 m 1x7d80
 723 100 l 0
 716 61 702 23 665 6 c 0
 650 0 638 -3 627 -3 c 0x7d80
 579 -3 564 48 550 89 c 0
 533 139 527 152 526 152 c 0
 524 152 524 150 524 149 c 0
 524 147 526 144 526 144 c 0
 526 144 l 1
 510 71 l 2
 506 49 486 14 452 3 c 0
 438 -2 428 -3 415 -3 c 0
 383 -3 360 15 349 43 c 0
 345 57 342 72 342 87 c 0xbe80
 342 130 359 176 391 210 c 0
 418 239 463 250 481 251 c 1
 518 428 l 2
 521 438 523 449 523 460 c 0
 523 474 520 486 512 497 c 0
 501 517 489 527 477 530 c 1
 379 468 l 1
 305 530 l 1
 302 530 208 492 170 399 c 0
 159 369 155 342 155 314 c 0
 155 279 162 242 172 205 c 0
 185 155 195 113 195 110 c 1
 196 112 216 147 239 178 c 0
 261 208 276 230 281 236 c 1
 279 236 277 236 273 236 c 0
 259 236 236 238 218 258 c 0
 207 270 201 287 201 307 c 0
 201 333 212 362 233 385 c 0
 258 412 291 425 320 425 c 0
 342 425 362 418 376 406 c 0
 392 391 402 371 402 349 c 0
 402 334 397 317 388 299 c 0
 363 242 277 161 235 72 c 0
 218 38 216 32 208 0 c 1
 135 0 l 1
 135 2 136 18 136 43 c 0
 136 58 136 78 133 100 c 0
 123 181 89 231 89 303 c 0
 89 322 92 342 97 363 c 0
 130 506 227 556 326 593 c 1
 392 535 l 1
 486 595 l 1
 486 595 524 579 552 550 c 0
 582 517 590 486 590 460 c 0
 590 448 589 437 587 428 c 2
 546 230 l 2
 546 228 566 216 578 182 c 0
 604 113 605 66 633 66 c 0
 650 66 651 92 655 106 c 2
 757 590 l 1
 828 590 l 1
 723 100 l 1x7d80
291 281 m 0
 291 281 l 0
 293 281 l 0
 330 281 351 313 351 340 c 0
 351 360 339 379 313 379 c 0
 311 379 l 0
 274 379 251 346 251 319 c 0
 251 299 264 281 291 281 c 0
445 78 m 2
 471 199 l 1
 445 192 426 178 411 155 c 0
 402 139 397 118 397 98 c 0
 397 75 403 57 420 57 c 0xbe80
 437 57 441 67 445 78 c 2
EndSplineSet
EndChar
StartChar: uni0E13
Encoding: 179 3603 146
Width: 818
Flags: W
HStem: -3 60<717 737> -2 51<187 200> 141 49<217 233> 193 63<736 754> 532 61<375 409>
VStem: 104 57<74 86> 256 54<105 118> 501 71<460 478> 644 69<63 80> 791 60<143 162>
Fore
849 139 m 0x7fc0
 849 139 l 0
 837 46 779 -3 717 -3 c 0xbfc0
 662 -2 644 29 644 63 c 0
 644 71 645 78 647 86 c 2
 667 182 l 1
 625 159 598 138 561 104 c 0
 526 69 474 0 472 0 c 2
 405 0 l 1
 498 443 l 2
 500 451 501 457 501 464 c 0
 501 506 466 532 385 532 c 0
 299 532 250 498 250 498 c 2
 253 498 279 483 300 466 c 0
 320 451 348 423 348 423 c 1
 343 423 300 415 268 386 c 0
 244 366 227 339 221 308 c 2
 195 184 l 1
 195 184 212 190 233 190 c 0
 245 190 258 189 270 182 c 0
 294 172 310 149 310 118 c 0
 310 106 307 92 302 77 c 0
 284 29 238 -2 187 -2 c 0
 127 -2 104 32 104 74 c 0
 104 83 106 92 107 101 c 2
 155 322 l 2
 158 340 170 365 190 389 c 0
 207 412 235 426 235 426 c 1
 235 426 213 451 182 463 c 0
 155 475 139 483 113 487 c 1
 138 513 258 592 394 593 c 0
 517 593 572 547 572 478 c 0
 572 468 572 457 569 446 c 2
 498 115 l 1
 500 118 543 169 590 202 c 0
 633 233 676 250 679 250 c 1
 751 590 l 1
 820 590 l 1
 748 256 l 1
 800 256 851 231 851 162 c 0
 851 155 851 147 849 139 c 0x7fc0
791 149 m 0
 791 149 l 0
 789 192 759 193 736 193 c 1
 714 92 l 2
 713 87 713 83 713 80 c 0
 713 66 719 57 737 57 c 0
 739 57 739 57 740 57 c 0
 777 57 791 113 791 144 c 0
 791 149 l 0
198 49 m 0x7fc0
 235 49 256 80 256 106 c 0
 256 124 244 141 218 141 c 0
 182 141 161 110 161 84 c 0
 161 66 172 49 198 49 c 0x7fc0
EndSplineSet
EndChar
StartChar: uni0E14
Encoding: 180 3604 147
Width: 614
Flags: W
HStem: 0 21G<152 212 432 503> 380 48<337 350> 533 57<378 399>
VStem: 109 60<303 320> 225 51<307 321> 380 49<340 353> 521 74<431 446>
Fore
503 0 m 1
 432 0 l 1
 518 405 l 2
 520 414 521 423 521 432 c 0
 521 492 471 533 388 533 c 0
 300 532 212 480 179 383 c 0
 172 359 169 337 169 316 c 0
 169 282 178 251 189 216 c 0
 207 159 215 123 219 123 c 0
 219 123 l 0
 245 159 239 147 258 175 c 1
 270 190 288 213 302 230 c 1
 279 231 258 244 244 258 c 0
 231 271 225 290 225 310 c 0
 225 336 236 365 258 388 c 0
 282 414 316 428 348 428 c 0
 376 428 400 417 414 399 c 0
 425 385 429 369 429 353 c 0
 429 311 399 264 368 225 c 0
 317 162 300 143 256 87 c 0
 236 61 224 34 212 0 c 1
 152 0 l 1
 158 26 166 38 166 60 c 0
 166 72 162 86 158 107 c 0
 143 166 109 227 109 307 c 0
 109 331 112 359 121 388 c 0
 152 498 274 590 397 590 c 0
 526 590 595 529 595 446 c 0
 595 435 593 423 590 411 c 2
 503 0 l 1
317 279 m 0
 356 279 380 313 380 342 c 0
 380 362 368 380 339 380 c 0
 300 380 276 346 276 317 c 0
 276 297 288 279 317 279 c 0
EndSplineSet
EndChar
StartChar: uni0E15
Encoding: 181 3605 148
Width: 645
Flags: W
HStem: 0 107<240 241> 377 52<363 373>
VStem: 127 58<303 322> 247 53<309 322> 406 45<339 356> 559 68<447 465>
Fore
533 0 m 1
 464 0 l 1
 552 409 l 2
 556 429 559 443 559 457 c 0
 559 468 556 478 552 489 c 0
 541 513 533 523 515 532 c 1
 423 474 l 1
 353 536 l 1
 297 517 230 480 198 383 c 0
 190 357 185 334 185 313 c 0
 185 279 195 248 208 216 c 0
 230 162 238 107 241 107 c 0
 241 107 l 0
 253 126 262 139 291 176 c 1
 308 199 316 212 333 230 c 1
 308 231 284 236 265 258 c 0
 253 273 247 291 247 311 c 0
 247 337 256 365 277 388 c 0
 302 415 339 429 371 429 c 0
 399 429 423 418 437 400 c 0
 446 386 451 371 451 356 c 0
 451 313 422 265 394 225 c 0
 362 178 331 141 296 84 c 0
 277 57 259 40 250 0 c 1
 176 0 l 1
 179 26 181 41 181 63 c 0
 181 75 181 89 179 107 c 0
 173 172 127 236 127 320 c 0
 127 342 130 365 138 389 c 0
 172 501 268 567 379 595 c 1
 435 543 l 1
 521 595 l 1
 555 587 584 570 605 536 c 0
 619 515 627 492 627 461 c 0
 627 448 625 432 622 415 c 2
 533 0 l 1
343 276 m 0
 382 276 406 310 406 339 c 0
 406 359 394 377 365 377 c 0
 325 377 300 343 300 316 c 0
 300 294 314 276 343 276 c 0
EndSplineSet
EndChar
StartChar: uni0E16
Encoding: 182 3606 149
Width: 628
Flags: W
HStem: -2 51<202 217> 141 49<232 248> 532 61<391 441>
VStem: 120 56<74 86> 271 54<105 118> 544 71<444 460>
Fore
521 0 m 1
 452 0 l 1
 541 418 l 2
 543 429 544 438 544 446 c 0
 544 507 492 532 415 532 c 0
 414 532 411 532 409 532 c 0
 323 532 265 498 265 498 c 2
 268 498 294 483 316 466 c 0
 336 451 363 423 363 423 c 1
 359 423 316 415 284 386 c 0
 259 366 242 339 236 308 c 2
 210 184 l 1
 210 184 227 190 248 190 c 0
 261 190 273 189 285 182 c 0
 310 172 325 149 325 118 c 0
 325 106 322 92 317 77 c 0
 299 29 253 -2 202 -2 c 0
 143 -2 120 32 120 74 c 0
 120 83 121 92 123 101 c 2
 170 322 l 2
 173 340 185 365 205 389 c 0
 222 412 250 426 250 426 c 1
 250 426 228 451 198 463 c 0
 170 475 155 483 129 487 c 1
 153 512 282 593 418 593 c 0
 540 593 615 544 615 460 c 0
 615 448 613 435 610 422 c 2
 521 0 l 1
213 49 m 0
 250 49 271 80 271 106 c 0
 271 124 259 141 233 141 c 0
 198 141 176 110 176 84 c 0
 176 66 187 49 213 49 c 0
EndSplineSet
EndChar
StartChar: uni0E17
Encoding: 183 3607 150
Width: 691
Flags: W
HStem: 0 21G<176 245 512 581> 400 49<224 239> 541 51<257 270>
VStem: 147 54<472 484> 296 57<504 517> 618 66<495 513>
Fore
581 0 m 1
 512 0 l 1
 610 461 l 2
 613 474 618 494 618 509 c 0
 618 515 616 521 615 524 c 0
 612 530 602 533 592 533 c 0
 576 533 556 526 540 507 c 0
 504 466 394 348 322 218 c 0
 276 135 264 89 245 0 c 1
 176 0 l 1
 262 406 l 1
 262 406 245 400 224 400 c 0
 212 400 199 402 187 408 c 0
 162 418 147 441 147 472 c 0
 147 484 150 498 155 513 c 0
 173 561 219 592 270 592 c 0
 330 592 353 558 353 517 c 0
 353 507 351 498 349 489 c 2
 308 299 l 1
 308 299 379 400 428 463 c 0
 487 541 544 592 601 592 c 0
 605 592 l 0
 644 590 647 586 665 561 c 0
 679 540 684 518 684 498 c 0
 684 481 681 464 677 452 c 2
 581 0 l 1
239 449 m 0
 274 449 296 480 296 506 c 0
 296 524 285 541 259 541 c 0
 222 541 201 510 201 484 c 0
 201 466 213 449 239 449 c 0
EndSplineSet
EndChar
StartChar: uni0E18
Encoding: 184 3608 151
Width: 548
Flags: W
HStem: 0 66<99 349> 498 60<532 538> 498 91<339 536> 535 54<333 349>
VStem: 124 83<455 497>
Fore
438 434 m 0x98
 438 434 l 0
 483 400 500 379 509 337 c 1
 455 89 l 2
 451 64 440 51 422 32 c 0
 402 12 379 5 349 0 c 1
 87 0 l 1
 100 66 l 1
 167 66 l 1
 245 435 l 1
 193 443 l 1
 135 445 l 2
 127 445 124 449 124 455 c 0
 124 472 146 504 162 523 c 0
 218 578 265 587 333 589 c 0x98
 334 589 337 589 339 589 c 0xa8
 420 589 449 559 536 558 c 0
 570 558 605 569 628 590 c 1
 647 533 l 1
 625 521 610 512 587 506 c 0
 566 501 549 498 532 498 c 0xc8
 512 498 494 501 469 506 c 1
 414 524 377 527 353 533 c 0
 345 535 337 535 330 535 c 0
 314 535 299 533 285 533 c 0
 267 533 250 527 235 518 c 0
 221 510 207 500 207 497 c 0
 207 495 207 495 208 495 c 0
 325 490 411 457 438 434 c 0x98
388 95 m 1
 435 319 l 1
 429 351 422 366 388 388 c 0
 365 402 337 414 311 418 c 1
 236 64 l 1
 248 64 259 64 270 64 c 0
 299 64 325 66 353 67 c 0
 368 67 377 83 388 95 c 1
EndSplineSet
EndChar
StartChar: uni0E19
Encoding: 185 3609 152
Width: 668
Flags: W
HStem: -5 60<538 556> 204 64<492 507> 397 49<195 210> 540 49<228 241>
VStem: 118 54<469 483> 267 55<502 517> 469 64<66 83> 612 65<151 169>
Fore
635 44 m 0
 635 44 l 0
 612 14 573 -5 538 -5 c 0
 524 -5 510 0 500 6 c 0
 477 18 469 40 469 66 c 0
 469 80 472 95 475 112 c 2
 494 204 l 1
 494 204 494 204 492 204 c 0
 486 204 443 201 340 130 c 0
 259 72 221 5 216 -3 c 1
 147 -3 l 1
 233 403 l 1
 233 403 216 397 195 397 c 0
 182 397 169 399 156 405 c 0
 132 417 118 438 118 469 c 0
 118 481 120 495 126 510 c 0
 143 558 190 589 241 589 c 0
 300 589 322 556 322 517 c 0
 322 506 322 497 319 486 c 2
 241 116 l 1
 241 116 291 170 368 215 c 0
 431 251 503 268 507 268 c 1
 575 587 l 1
 644 587 l 1
 576 267 l 1
 578 267 579 267 582 267 c 0
 595 267 627 264 658 230 c 0
 671 216 677 193 677 169 c 0
 677 126 661 77 635 44 c 0
610 138 m 0
 610 138 l 0
 612 144 612 149 612 153 c 0
 612 199 576 204 563 204 c 0
 559 204 556 204 556 204 c 1
 538 113 l 2
 535 101 533 90 533 83 c 0
 533 63 541 55 556 55 c 0
 558 55 558 55 559 55 c 0
 593 58 607 109 610 138 c 0
210 446 m 0
 245 446 267 477 267 504 c 0
 267 523 256 540 230 540 c 0
 193 540 172 509 172 481 c 0
 172 463 184 446 210 446 c 0
EndSplineSet
EndChar
StartChar: uni0E1A
Encoding: 186 3610 153
Width: 643
Flags: W
HStem: 0 66<79 440> 400 49<190 204> 541 51<222 235>
VStem: 118 51<471 486> 261 52<504 518>
Fore
547 89 m 1
 547 89 l 0
 543 63 530 44 510 26 c 0
 490 11 464 0 438 0 c 2
 66 0 l 1
 80 66 l 1
 153 66 l 1
 225 406 l 1
 225 406 210 400 190 400 c 0
 178 400 166 402 155 408 c 0
 132 418 118 440 118 471 c 0
 118 483 120 498 126 513 c 0
 143 561 187 592 235 592 c 0
 291 592 313 558 313 518 c 0
 313 509 311 498 310 489 c 2
 219 66 l 1
 432 66 l 2
 446 66 461 71 472 81 c 0
 486 92 484 104 487 118 c 2
 589 590 l 1
 655 590 l 1
 547 89 l 1
204 449 m 0
 239 449 261 480 261 506 c 0
 261 524 248 541 224 541 c 0
 190 541 169 510 169 484 c 0
 169 464 179 449 204 449 c 0
EndSplineSet
EndChar
StartChar: uni0E1B
Encoding: 187 3611 154
Width: 636
Flags: HW
HStem: 0 66<86 443> 400 49<197 212> 541 51<227 242>
VStem: 125 52<470 484> 268 52<504 518>
AnchorPoint: "AboveBase" 564 659 basechar 0
Fore
550 89 m 1
 550 89 l 0
 546 63 533 44 513 26 c 0
 494 11 468 0 441 0 c 2
 74 0 l 1
 87 66 l 1
 161 66 l 1
 233 406 l 1
 233 406 217 400 197 400 c 0
 186 400 174 402 162 408 c 0
 139 418 125 440 125 470 c 0
 125 483 128 498 133 513 c 0
 150 561 195 592 242 592 c 0
 300 592 320 558 320 518 c 0
 320 508 319 499 317 489 c 2
 227 66 l 1
 435 66 l 2
 449 66 464 71 475 81 c 0
 489 92 487 104 490 118 c 2
 655 886 l 1
 720 886 l 1
 550 89 l 1
212 449 m 0
 246 449 268 480 268 506 c 0
 268 525 256 541 231 541 c 0
 197 541 177 510 177 484 c 0
 177 465 187 449 212 449 c 0
EndSplineSet
EndChar
StartChar: uni0E1C
Encoding: 188 3612 155
Width: 639
Flags: W
HStem: 0 21G<454 520> 400 49<269 278> 541 51<296 307>
VStem: 331 51<506 523>
Fore
520 0 m 1
 454 0 l 0
 451 29 435 90 409 141 c 0
 388 185 366 212 349 227 c 1
 326 212 303 193 254 143 c 0
 207 97 169 35 150 2 c 1
 84 2 l 1
 189 489 l 2
 198 535 239 590 307 592 c 0
 351 592 382 564 382 523 c 0
 382 513 l 0
 379 461 349 423 311 408 c 0
 296 402 282 400 271 400 c 0
 250 400 236 406 236 406 c 1
 178 130 l 1
 181 135 230 195 271 230 c 0
 307 261 330 281 366 303 c 1
 392 282 408 261 429 231 c 0
 457 195 481 132 481 130 c 2
 579 590 l 1
 645 590 l 1
 520 0 l 1
276 449 m 0
 310 449 331 480 331 506 c 0
 331 526 320 541 296 541 c 0
 262 541 241 510 241 484 c 0
 241 464 251 449 276 449 c 0
EndSplineSet
EndChar
StartChar: uni0E1D
Encoding: 189 3613 156
Width: 639
Flags: HW
HStem: 0 21G<466 532> 400 49<281 290> 541 51<308 319>
VStem: 343 51<506 522>
AnchorPoint: "AboveBase" 567 659 basechar 0
Fore
532 0 m 1
 466 0 l 0
 463 29 448 90 422 141 c 0
 400 185 379 212 362 227 c 1
 339 212 316 193 267 143 c 0
 219 97 181 35 162 2 c 1
 97 2 l 1
 201 489 l 2
 210 535 251 590 319 592 c 0
 363 592 394 565 394 522 c 0
 394 519 394 517 394 513 c 0
 391 461 362 423 323 408 c 0
 309 402 295 400 283 400 c 0
 262 400 248 406 248 406 c 1
 190 130 l 1
 193 135 242 195 284 230 c 0
 319 261 342 281 379 303 c 1
 405 282 420 261 441 231 c 0
 469 195 494 132 494 130 c 2
 655 886 l 1
 720 886 l 1
 532 0 l 1
288 449 m 0
 322 449 343 480 343 506 c 0
 343 525 332 541 308 541 c 0
 274 541 253 510 253 484 c 0
 253 465 264 449 288 449 c 0
EndSplineSet
EndChar
StartChar: uni0E1E
Encoding: 190 3614 157
Width: 698
Flags: W
HStem: 0 21G<143 210 521 586> 400 49<193 207> 541 51<225 238>
VStem: 121 51<471 486> 264 52<504 518> 460 52<446 472> 521 40<11 196>
Fore
586 0 m 1
 521 0 l 0
 521 2 521 5 521 11 c 0
 521 38 518 121 483 254 c 0
 463 337 460 414 460 446 c 0
 460 457 460 463 460 463 c 1
 460 460 431 366 348 247 c 0
 241 90 210 2 210 0 c 1
 143 0 l 1
 228 406 l 1
 228 406 213 400 193 400 c 0
 181 400 169 402 158 408 c 0
 135 418 121 440 121 471 c 0
 121 483 123 498 129 513 c 0
 146 561 190 592 238 592 c 0
 294 592 316 558 316 518 c 0
 316 509 314 498 313 489 c 2
 250 196 l 1
 250 196 291 258 328 317 c 0
 360 368 388 422 409 471 c 0
 445 549 448 587 449 590 c 1
 518 590 l 1
 518 589 512 556 512 492 c 0
 512 486 512 480 512 472 c 0
 513 420 523 374 533 328 c 0
 549 262 561 202 561 196 c 1
 645 590 l 1
 711 590 l 1
 586 0 l 1
207 449 m 0
 242 449 264 480 264 506 c 0
 264 524 251 541 227 541 c 0
 193 541 172 510 172 484 c 0
 172 464 182 449 207 449 c 0
EndSplineSet
EndChar
StartChar: uni0E1F
Encoding: 191 3615 158
Width: 698
Flags: HW
HStem: 0 21G<139 207 518 582> 400 49<189 204> 541 51<222 235>
VStem: 117 52<470 484> 260 53<504 518> 456 53<446 472> 518 40<11 196>
AnchorPoint: "AboveBase" 627 659 basechar 0
Fore
582 0 m 1
 518 0 l 0
 518 1 518 5 518 11 c 0
 518 39 515 121 480 254 c 0
 459 337 456 413 456 446 c 0
 456 457 457 463 457 463 c 1
 457 460 428 366 345 247 c 0
 238 90 207 2 207 0 c 1
 139 0 l 1
 225 406 l 1
 225 406 209 400 189 400 c 0
 178 400 166 402 155 408 c 0
 131 418 117 440 117 470 c 0
 117 483 120 498 126 513 c 0
 143 561 187 592 235 592 c 0
 292 592 313 558 313 518 c 0
 313 508 312 499 310 489 c 2
 247 196 l 1
 247 196 288 258 325 317 c 0
 357 368 385 422 406 471 c 0
 441 549 445 587 446 590 c 1
 515 590 l 1
 515 589 509 556 509 492 c 0
 509 486 509 479 509 472 c 0
 510 420 520 374 530 328 c 0
 546 262 558 202 558 196 c 1
 705 884 l 1
 771 884 l 1
 582 0 l 1
204 449 m 0
 239 449 260 480 260 506 c 0
 260 525 249 541 224 541 c 0
 190 541 169 510 169 484 c 0
 169 465 180 449 204 449 c 0
EndSplineSet
EndChar
StartChar: uni0E20
Encoding: 192 3616 159
Width: 712
Flags: W
HStem: -2 51<145 161> 141 49<174 183> 532 61<479 513>
VStem: 64 54<71 84> 621 70<444 460>
Fore
598 0 m 1
 529 0 l 1
 618 418 l 2
 619 428 621 437 621 446 c 0
 621 507 567 532 492 532 c 0
 490 532 487 532 486 532 c 0
 400 532 340 498 340 498 c 2
 343 498 369 483 392 466 c 0
 412 451 438 423 438 423 c 1
 434 423 392 415 359 386 c 0
 336 366 319 339 313 308 c 2
 268 101 l 2
 258 49 219 -2 146 -2 c 0
 97 -2 64 26 64 71 c 0
 64 72 64 75 64 77 c 0
 67 129 98 167 139 182 c 0
 155 189 169 190 181 190 c 0
 202 190 218 184 218 184 c 1
 247 322 l 2
 250 340 261 365 281 389 c 0
 299 412 325 426 325 426 c 1
 325 426 305 451 274 463 c 0
 247 475 231 483 205 487 c 1
 228 512 357 593 495 593 c 0
 615 593 691 544 691 458 c 0
 691 448 690 435 687 422 c 2
 598 0 l 1
156 49 m 0
 192 49 213 80 213 106 c 0
 213 124 202 141 176 141 c 0
 139 141 118 110 118 84 c 0
 118 66 130 49 156 49 c 0
EndSplineSet
EndChar
StartChar: uni0E21
Encoding: 193 3617 160
Width: 665
Flags: W
HStem: -3 58<166 179> -2 69<449 463> 189 62<230 247> 400 49<241 256> 541 51<274 287>
VStem: 87 62<81 98> 164 54<472 484> 313 56<504 517>
Fore
575 136 m 1x7f
 575 136 l 0
 564 89 555 41 510 17 c 0
 490 5 469 -2 449 -2 c 0x7f
 422 -2 397 11 380 35 c 2
 296 156 l 1
 279 83 l 2
 270 37 222 -3 175 -3 c 0xbf
 116 -3 87 37 87 87 c 0
 87 120 98 155 121 187 c 0
 152 230 198 251 247 251 c 1
 279 406 l 1
 279 406 262 400 241 400 c 0
 228 400 216 402 204 408 c 0
 179 418 164 441 164 472 c 0
 164 484 167 498 172 513 c 0
 190 561 236 592 287 592 c 0
 346 592 369 558 369 517 c 0
 369 507 368 498 366 489 c 2
 313 238 l 1
 403 118 l 2
 420 97 435 67 463 67 c 0
 489 69 497 100 501 124 c 2
 601 590 l 1
 671 590 l 1
 575 136 l 1x7f
256 449 m 0
 256 449 l 0
 291 449 313 480 313 506 c 0
 313 524 302 541 276 541 c 0
 239 541 218 510 218 484 c 0
 218 466 230 449 256 449 c 0
213 95 m 2
 233 189 l 1
 210 189 189 187 172 164 c 0
 158 146 149 116 149 94 c 0
 149 72 156 55 173 55 c 0
 178 55 l 0xbf
 198 58 207 63 213 95 c 2
EndSplineSet
EndChar
StartChar: uni0E22
Encoding: 194 3618 161
Width: 622
Flags: W
HStem: 0 66<169 407> 399 49<275 284> 540 50<300 313>
VStem: 162 71<349 359> 340 54<504 518>
Fore
185 146 m 0
 185 146 l 0
 175 104 169 66 169 66 c 1
 402 66 l 2
 414 66 425 71 435 77 c 0
 448 86 457 100 460 116 c 2
 561 590 l 1
 630 590 l 1
 529 113 l 2
 521 81 509 55 481 32 c 0
 455 9 426 0 392 0 c 2
 86 0 l 1
 116 141 l 2
 123 173 138 215 159 238 c 0
 179 259 216 274 236 281 c 1
 218 284 187 296 173 317 c 0
 166 331 162 340 162 351 c 0
 162 357 164 365 166 376 c 2
 190 487 l 2
 199 533 242 589 313 590 c 0
 362 590 394 563 394 518 c 0
 394 517 394 513 394 512 c 0
 391 460 359 422 317 406 c 0
 302 400 288 399 277 399 c 0
 256 399 241 405 241 405 c 1
 235 372 l 2
 233 366 233 362 233 357 c 0
 233 345 238 336 254 320 c 0
 273 303 336 297 336 297 c 1
 336 297 330 265 328 258 c 0
 328 258 325 259 322 259 c 0
 303 259 256 253 231 230 c 0
 205 205 198 193 185 146 c 0
282 448 m 0
 319 448 340 478 340 504 c 0
 340 523 328 540 302 540 c 0
 267 540 245 509 245 483 c 0
 245 464 256 448 282 448 c 0
EndSplineSet
EndChar
StartChar: uni0E23
Encoding: 195 3619 162
Width: 501
Flags: W
HStem: -2 51<302 315> 141 49<323 341> 504 88<346 510> 506 55<510 521> 536 56<334 354>
VStem: 222 54<67 84> 403 74<337 356>
Fore
596 529 m 1xd6
 596 529 l 0
 569 518 556 510 521 506 c 0xd6
 515 506 509 504 504 504 c 0xe6
 449 504 406 536 346 536 c 0xce
 333 536 319 535 303 530 c 0
 268 523 244 501 244 500 c 0
 244 500 l 2
 244 500 354 487 425 438 c 0
 464 411 477 386 477 356 c 0
 477 342 475 326 471 308 c 2
 426 101 l 2
 415 49 376 -2 302 -2 c 0
 254 -2 222 26 222 67 c 0
 222 77 l 0
 225 129 254 167 296 182 c 0
 311 189 325 190 337 190 c 0
 359 190 374 184 374 184 c 1
 402 319 l 2
 403 325 403 331 403 337 c 0
 403 382 365 408 299 429 c 0
 230 451 132 464 132 466 c 0
 132 466 l 1
 132 466 l 0
 132 468 190 552 267 576 c 0
 300 587 330 592 354 592 c 0xe6
 422 592 458 561 510 561 c 0
 544 561 573 581 575 581 c 1
 596 529 l 1xd6
313 49 m 0
 349 49 371 80 371 106 c 0
 371 124 359 141 333 141 c 0
 297 141 276 110 276 84 c 0
 276 66 287 49 313 49 c 0
EndSplineSet
EndChar
StartChar: uni0E24
Encoding: 196 3620 163
Width: 610
Flags: W
HStem: -2 51<191 206> 141 49<222 238> 532 61<393 430>
VStem: 109 57<74 90> 261 53<104 118> 533 71<444 460>
Fore
464 -215 m 1
 395 -215 l 1
 530 418 l 2
 532 429 533 438 533 446 c 0
 533 507 481 532 405 532 c 0
 403 532 400 532 399 532 c 0
 313 532 254 498 254 498 c 2
 258 498 284 483 305 466 c 0
 325 451 353 423 353 423 c 1
 348 423 305 415 273 386 c 0
 248 366 231 339 225 308 c 2
 199 184 l 1
 199 184 216 190 238 190 c 0
 250 190 262 189 274 182 c 0
 299 172 314 149 314 118 c 0
 314 106 311 92 307 77 c 0
 288 29 242 -2 192 -2 c 0
 132 -2 109 32 109 74 c 0
 109 83 110 92 112 101 c 2
 159 322 l 2
 162 340 175 365 195 389 c 0
 212 412 239 426 239 426 c 1
 239 426 218 451 187 463 c 0
 159 475 144 483 118 487 c 1
 143 512 271 593 408 593 c 0
 529 593 604 544 604 460 c 0
 604 448 602 435 599 422 c 2
 464 -215 l 1
202 49 m 0
 239 49 261 80 261 106 c 0
 261 124 248 141 222 141 c 0
 187 141 166 110 166 84 c 0
 166 66 176 49 202 49 c 0
EndSplineSet
EndChar
StartChar: uni0E25
Encoding: 197 3621 164
Width: 593
Flags: W
HStem: -2 51<190 203> 141 49<219 235> 363 57<277 290> 530 60<375 399>
VStem: 106 56<74 86> 258 53<105 118> 504 71<444 459>
Fore
481 0 m 1
 412 0 l 1
 426 63 l 2
 426 67 l 0
 426 94 409 175 380 239 c 0
 356 296 320 363 279 363 c 0
 274 363 271 363 267 362 c 0
 245 356 227 333 222 308 c 2
 196 184 l 1
 196 184 213 190 235 190 c 0
 247 190 259 189 271 182 c 0
 296 172 311 149 311 118 c 0
 311 106 308 92 303 77 c 0
 285 29 239 -2 190 -2 c 0
 129 -2 106 32 106 74 c 0
 106 83 107 92 109 101 c 2
 152 305 l 2
 166 366 216 411 262 417 c 0
 271 418 281 420 290 420 c 0
 359 420 388 365 414 319 c 0
 448 259 457 219 458 215 c 1
 500 409 l 2
 503 422 504 434 504 446 c 0
 504 497 472 530 382 530 c 0
 377 530 l 0
 274 530 216 471 196 437 c 1
 152 472 l 1
 178 503 208 536 268 566 c 0
 302 582 351 590 397 590 c 0
 443 590 486 582 513 564 c 0
 561 533 575 494 575 457 c 0
 575 441 572 426 569 412 c 2
 481 0 l 1
201 49 m 0
 236 49 258 80 258 106 c 0
 258 124 247 141 221 141 c 0
 184 141 162 110 162 84 c 0
 162 66 175 49 201 49 c 0
EndSplineSet
EndChar
StartChar: uni0E26
Encoding: 198 3622 165
Width: 666
Flags: W
HStem: -2 51<104 122> 141 49<133 141> 532 61<439 474>
VStem: 25 53<67 84> 579 72<440 460>
Fore
512 -215 m 1
 441 -215 l 1
 576 418 l 2
 578 429 579 438 579 446 c 0
 579 507 527 532 451 532 c 0
 449 532 446 532 445 532 c 0
 360 532 300 498 300 498 c 2
 303 498 330 483 351 466 c 0
 372 451 399 423 399 423 c 1
 394 423 351 415 319 386 c 0
 294 366 279 339 273 308 c 2
 228 101 l 2
 218 49 178 -2 104 -2 c 0
 57 -2 25 26 25 67 c 0
 25 77 l 0
 28 129 57 167 98 182 c 0
 113 189 127 190 139 190 c 0
 161 190 176 184 176 184 c 1
 205 322 l 2
 208 340 221 365 241 389 c 0
 258 412 285 426 285 426 c 1
 285 426 265 451 233 463 c 0
 205 475 192 483 164 487 c 1
 189 512 317 593 455 593 c 0
 575 593 651 544 651 458 c 0
 651 448 650 435 647 422 c 2
 512 -215 l 1
115 49 m 0
 152 49 173 80 173 106 c 0
 173 124 161 141 135 141 c 0
 100 141 78 110 78 84 c 0
 78 66 89 49 115 49 c 0
EndSplineSet
EndChar
StartChar: uni0E27
Encoding: 199 3623 166
Width: 545
Flags: W
HStem: -2 51<335 354> 141 49<355 373> 533 60<328 357>
VStem: 254 54<71 84> 460 70<445 463>
Fore
458 101 m 1
 458 101 l 0
 448 49 409 -2 336 -2 c 0
 287 -2 254 26 254 71 c 0
 254 72 254 75 254 77 c 0
 258 129 288 167 330 182 c 0
 345 189 359 190 371 190 c 0
 392 190 408 184 408 184 c 1
 455 412 l 2
 458 426 460 437 460 448 c 0
 460 512 411 533 339 533 c 0
 337 533 337 533 336 533 c 0
 248 533 184 477 161 429 c 1
 112 454 l 1
 150 518 231 592 349 593 c 0
 354 593 l 0
 468 593 530 535 530 457 c 0
 530 446 530 435 527 425 c 2
 458 101 l 1
346 49 m 0
 382 49 403 80 403 106 c 0
 403 124 392 141 366 141 c 0
 330 141 308 110 308 84 c 0
 308 66 320 49 346 49 c 0
EndSplineSet
EndChar
StartChar: uni0E28
Encoding: 200 3624 167
Width: 610
Flags: W
HStem: 0 21G<121 190 431 500> 227 50<272 284> 371 49<300 313> 532 61<368 405>
VStem: 100 62<311 344> 339 50<327 344> 515 74<415 446>
Fore
673 598 m 1
 673 598 l 1
 673 598 656 563 628 530 c 0
 604 506 582 487 578 486 c 1
 578 484 589 472 589 446 c 0
 589 426 587 409 584 397 c 2
 500 0 l 1
 431 0 l 1
 509 366 l 2
 510 374 510 385 513 397 c 0
 515 405 515 411 515 415 c 0
 515 432 510 438 510 440 c 1
 510 440 486 417 449 392 c 0
 423 372 389 354 388 354 c 1
 388 349 389 346 389 342 c 0
 389 300 363 254 317 236 c 0
 300 228 285 227 274 227 c 0
 253 227 241 235 241 235 c 1
 190 0 l 1
 121 0 l 1
 143 98 l 2
 144 106 144 113 144 120 c 0
 144 129 144 136 141 146 c 0
 132 187 100 254 100 328 c 0
 100 346 101 365 106 383 c 0
 135 497 235 592 394 593 c 0
 399 593 l 0
 520 593 550 535 552 535 c 0
 552 535 l 1
 552 535 569 549 589 576 c 0
 607 602 615 619 615 619 c 1
 673 598 l 1
498 490 m 0
 498 490 l 0
 486 501 481 532 383 532 c 0
 380 532 379 532 376 532 c 0
 253 532 190 449 170 382 c 0
 164 362 162 342 162 325 c 0
 162 284 176 254 178 253 c 1
 192 317 l 2
 199 353 236 420 311 420 c 0
 316 420 l 0
 357 420 368 400 369 399 c 1
 395 412 414 425 435 440 c 0
 466 460 477 471 498 490 c 0
282 277 m 0
 317 277 339 308 339 336 c 0
 339 354 328 371 302 371 c 0
 267 371 245 340 245 313 c 0
 245 294 256 277 282 277 c 0
EndSplineSet
EndChar
StartChar: uni0E29
Encoding: 201 3625 168
Width: 666
Flags: W
HStem: 0 66<94 462> 216 57<472 481> 222 59<532 544> 400 49<205 219> 541 51<235 250>
VStem: 133 51<471 486> 276 52<504 518> 339 47<303 320> 469 46<339 353>
Fore
743 362 m 1xbf80
 743 362 l 1
 743 362 723 319 676 282 c 0
 647 258 630 248 601 236 c 1
 569 89 l 2
 564 63 553 44 533 26 c 0
 513 11 486 0 460 0 c 2
 81 0 l 1
 95 66 l 1
 169 66 l 1
 241 406 l 1
 241 406 225 400 205 400 c 0
 193 400 181 402 170 408 c 0
 147 418 133 440 133 471 c 0
 133 483 135 498 141 513 c 0
 158 561 202 592 250 592 c 0
 307 592 328 558 328 518 c 0
 328 509 326 498 325 489 c 2
 235 66 l 1
 454 66 l 2
 468 66 483 71 495 81 c 0
 507 92 506 104 509 118 c 2
 532 222 l 1xbf80
 530 222 512 216 481 216 c 0xdf80
 466 216 449 218 429 222 c 0xbf80
 379 233 339 256 339 303 c 0
 339 357 379 415 445 417 c 0
 446 417 449 417 451 417 c 0
 494 417 515 388 515 353 c 0
 515 346 515 342 513 336 c 0
 504 296 483 281 472 273 c 1xdf80
 475 273 490 271 507 271 c 0
 529 273 543 281 544 281 c 1
 610 590 l 1
 676 590 l 1
 613 299 l 1
 618 300 642 317 661 336 c 0
 688 365 697 392 699 394 c 1
 743 362 l 1xbf80
420 288 m 0
 420 288 l 0
 451 290 469 317 469 340 c 0
 469 359 458 374 435 374 c 0
 405 372 386 345 386 320 c 0
 386 303 397 288 418 288 c 0
 420 288 l 0
219 449 m 0
 254 449 276 480 276 506 c 0
 276 524 264 541 239 541 c 0
 205 541 184 510 184 484 c 0
 184 464 195 449 219 449 c 0
EndSplineSet
EndChar
StartChar: uni0E2A
Encoding: 202 3626 169
Width: 579
Flags: W
HStem: -2 51<173 186> 141 49<202 218> 363 57<262 276> 530 60<352 382>
VStem: 89 57<74 86> 241 53<104 118>
Fore
667 555 m 1
 667 555 l 0
 650 530 639 518 610 490 c 0
 582 464 558 451 558 448 c 1
 558 448 556 435 556 429 c 0
 555 423 553 422 552 412 c 2
 464 0 l 1
 395 0 l 1
 409 63 l 2
 409 67 l 0
 409 94 392 175 363 239 c 0
 339 296 303 363 262 363 c 0
 258 363 254 363 250 362 c 0
 228 356 210 333 205 308 c 2
 179 184 l 1
 179 184 196 190 218 190 c 0
 230 190 242 189 254 182 c 0
 279 172 294 149 294 118 c 0
 294 106 291 92 287 77 c 0
 268 29 222 -2 173 -2 c 0
 112 -2 89 32 89 74 c 0
 89 83 90 92 92 101 c 2
 135 305 l 2
 149 366 201 411 245 417 c 0
 256 418 267 420 276 420 c 0
 326 420 349 397 354 394 c 1
 377 403 395 412 420 425 c 0
 451 441 481 464 483 464 c 1
 480 471 477 530 365 530 c 0
 363 530 362 530 362 530 c 0
 258 530 201 469 179 437 c 1
 135 472 l 1
 161 503 192 538 251 566 c 0
 290 582 334 590 376 590 c 0
 415 590 452 582 478 570 c 0
 529 547 543 512 544 509 c 1
 559 521 566 524 589 550 c 0
 602 564 621 590 625 598 c 1
 667 555 l 1
441 215 m 0
 483 409 l 1
 483 409 451 389 432 380 c 0
 412 371 395 363 376 356 c 1
 377 353 379 351 379 351 c 0
 379 351 l 0
 379 351 l 0
 379 351 l 0
 379 351 380 348 397 319 c 0
 431 259 438 219 441 215 c 0
184 49 m 0
 219 49 241 80 241 106 c 0
 241 124 230 141 204 141 c 0
 167 141 146 110 146 84 c 0
 146 66 158 49 184 49 c 0
EndSplineSet
EndChar
StartChar: uni0E2B
Encoding: 203 3627 170
Width: 651
Flags: W
HStem: 0 21G<149 218 469 538> 400 49<196 212> 541 51<229 242> 556 45<551 566>
VStem: 120 53<472 486> 268 57<504 517> 438 57<483 501> 536 68<315 339> 596 52<514 528>
Fore
533 446 m 0xde80
 533 446 l 0
 535 448 536 449 538 449 c 0
 561 460 587 487 593 506 c 0
 595 510 596 515 596 521 c 0
 596 538 586 556 556 556 c 0
 517 556 503 532 497 513 c 0
 495 509 495 506 495 501 c 0
 495 487 501 475 510 463 c 0
 515 457 524 452 533 446 c 0xde80
536 348 m 0xdf
 536 348 l 0
 536 359 535 369 520 385 c 1
 510 376 497 365 489 357 c 0
 454 322 417 288 363 225 c 0
 296 147 258 89 218 0 c 1
 149 0 l 1
 235 406 l 1
 235 406 218 400 196 400 c 0
 184 400 172 402 159 408 c 0
 135 418 120 441 120 472 c 0
 120 484 123 498 127 513 c 0
 146 561 192 592 242 592 c 0xef
 302 592 325 558 325 517 c 0
 325 507 323 498 322 489 c 2
 256 179 l 1
 256 179 311 253 377 317 c 0
 408 348 451 388 487 415 c 1
 481 417 480 423 474 426 c 0
 445 446 438 464 438 483 c 0
 438 494 440 503 441 512 c 0
 445 543 484 601 564 601 c 0
 635 601 648 558 648 526 c 0
 648 521 648 518 648 515 c 0xde80
 647 483 624 455 605 440 c 0
 596 432 584 425 570 415 c 1
 578 406 584 397 586 392 c 0
 593 377 602 357 604 339 c 0
 604 336 604 331 604 328 c 0
 604 299 593 264 587 230 c 2
 538 0 l 1
 469 0 l 1
 527 274 l 2
 535 308 536 319 536 334 c 0
 536 348 l 0xdf
212 449 m 0
 247 449 268 480 268 506 c 0
 268 524 258 541 231 541 c 0
 195 541 173 510 173 484 c 0
 173 466 185 449 212 449 c 0
EndSplineSet
EndChar
StartChar: uni0E2C
Encoding: 204 3628 171
Width: 706
Flags: W
HStem: 0 21G<139 224 517 607> 388 49<193 210> 455 57<541 564> 530 49<224 239> 589 55<570 589>
VStem: 123 52<457 472> 267 52<493 506>
Fore
661 540 m 0
 661 540 l 0
 661 540 l 0
 661 550 632 587 584 589 c 0
 582 589 581 589 581 589 c 0
 530 589 483 558 483 550 c 0
 483 550 l 0
 489 540 515 513 564 512 c 0
 609 512 653 520 661 540 c 0
559 107 m 1
 558 103 l 1
 558 103 635 464 636 468 c 1
 636 468 613 458 547 455 c 0
 546 455 544 455 541 455 c 0
 474 455 417 504 417 538 c 0
 417 543 417 546 418 549 c 0
 426 567 484 644 589 644 c 0
 673 644 697 601 707 589 c 0
 717 570 710 581 719 566 c 1
 737 579 754 596 763 607 c 0
 776 622 796 639 808 658 c 1
 814 650 835 616 835 615 c 0
 835 615 l 0
 834 616 l 1
 815 592 817 589 779 552 c 0
 757 533 720 503 714 503 c 0
 714 503 l 1
 607 0 l 1
 517 0 l 1
 438 334 l 1
 438 334 l 0
 438 322 224 0 224 0 c 1
 139 0 l 1
 224 394 l 1
 224 394 212 388 193 388 c 0
 182 388 172 389 159 395 c 0
 136 408 123 429 123 457 c 0
 123 471 126 486 132 501 c 0
 147 549 192 579 239 579 c 0
 296 579 319 547 319 506 c 0
 319 497 319 487 316 477 c 1
 316 477 241 141 241 130 c 0
 241 130 l 0
 241 130 l 1
 437 435 l 1
 438 435 443 435 448 435 c 0
 458 435 475 435 486 435 c 1
 559 107 l 1
210 437 m 0
 245 437 267 469 267 495 c 0
 267 513 254 530 230 530 c 0
 196 530 175 498 175 472 c 0
 175 454 185 437 210 437 c 0
EndSplineSet
EndChar
StartChar: uni0E2D
Encoding: 205 3629 172
Width: 567
Flags: W
HStem: 0 66<200 382> 216 49<233 243> 359 50<259 271> 536 57<369 399>
VStem: 106 70<67 101> 296 50<323 337> 489 67<443 460>
Fore
483 92 m 1
 483 92 l 0
 477 67 468 49 451 31 c 0
 429 9 400 0 380 0 c 2
 175 0 l 2
 149 0 130 9 116 28 c 0
 109 38 106 52 106 67 c 0
 106 77 107 87 109 98 c 2
 152 305 l 2
 162 353 204 408 271 409 c 0
 317 409 346 380 346 337 c 0
 346 336 346 333 346 331 c 0
 343 279 313 241 273 224 c 0
 259 218 245 216 235 216 c 0
 215 216 201 222 201 222 c 1
 179 120 l 2
 178 112 176 106 176 101 c 0
 176 95 178 89 181 83 c 0
 187 74 196 66 208 66 c 2
 371 66 l 2
 383 66 399 69 406 78 c 0
 415 87 418 101 422 115 c 2
 486 417 l 2
 487 428 489 437 489 446 c 0
 489 501 451 536 380 536 c 0
 297 536 235 497 204 445 c 1
 158 477 l 1
 215 558 297 592 391 593 c 0
 394 593 395 593 399 593 c 0
 495 593 556 543 556 460 c 0
 556 448 555 434 552 420 c 2
 483 92 l 1
241 265 m 0
 274 265 296 297 296 323 c 0
 296 342 285 359 261 359 c 0
 225 359 204 326 204 300 c 0
 204 282 216 265 241 265 c 0
EndSplineSet
EndChar
StartChar: uni0E2E
Encoding: 206 3630 173
Width: 547
Flags: W
HStem: 0 66<171 363> 149 49<180 198> 291 49<206 219> 400 52<297 326> 536 57<340 374>
VStem: 129 72<487 494> 245 51<256 268>
Fore
619 566 m 1
 619 566 l 0
 605 544 595 530 578 512 c 0
 564 497 549 484 535 474 c 1
 535 471 538 463 538 455 c 0
 538 454 536 451 536 448 c 0
 533 434 533 431 530 420 c 2
 461 92 l 2
 455 67 448 49 431 31 c 0
 409 9 380 0 359 0 c 2
 139 0 l 2
 113 0 95 9 81 28 c 0
 74 38 69 54 69 71 c 0
 69 80 71 89 72 98 c 2
 101 238 l 2
 112 285 153 340 219 340 c 0
 221 340 221 340 222 340 c 0
 267 340 296 311 296 268 c 0
 296 267 296 264 296 262 c 0
 293 212 264 173 224 156 c 0
 208 150 195 149 184 149 c 0
 162 149 149 155 149 155 c 1
 143 120 l 2
 141 113 139 109 139 103 c 0
 139 95 143 89 146 83 c 0
 150 74 161 66 173 66 c 2
 351 66 l 2
 363 66 377 69 386 78 c 0
 394 87 397 101 400 115 c 2
 461 403 l 2
 463 411 464 414 466 423 c 0
 466 428 466 431 466 435 c 0
 466 440 l 1
 454 434 395 400 297 400 c 0
 293 400 290 400 285 400 c 0
 190 402 129 452 129 487 c 0
 129 490 130 494 130 495 c 0
 141 530 247 593 360 593 c 0
 480 593 495 549 517 529 c 1
 521 530 540 547 550 561 c 0
 561 573 569 584 578 599 c 1
 619 566 l 1
460 494 m 0
 460 494 l 0
 426 523 405 536 357 536 c 0
 354 536 353 536 349 536 c 0
 277 536 204 507 201 494 c 0
 201 494 l 0
 201 481 259 452 320 452 c 0
 325 452 328 452 333 452 c 0
 394 455 414 466 460 494 c 0
189 198 m 0
 224 198 245 230 245 256 c 0
 245 274 233 291 208 291 c 0
 175 291 153 259 153 233 c 0
 153 215 164 198 189 198 c 0
EndSplineSet
EndChar
StartChar: uni0E2F
Encoding: 207 3631 174
Width: 518
Flags: W
HStem: 282 54<262 288> 405 47<233 248> 546 44<262 275>
VStem: 127 68<397 415> 127 78<415 487> 300 49<509 523>
Fore
477 144 m 1xf4
 477 144 l 0
 471 115 454 66 411 35 c 0
 380 14 356 0 319 -2 c 1
 300 51 l 1
 316 51 345 58 374 83 c 0
 394 98 403 121 408 146 c 2
 457 372 l 1
 422 328 354 282 270 282 c 0
 265 282 l 0
 166 284 127 345 127 415 c 0
 127 437 130 460 138 481 c 0
 158 549 216 590 273 590 c 0
 285 590 297 589 308 584 c 0
 337 575 349 550 349 523 c 0
 349 489 330 449 299 428 c 0
 279 412 256 405 235 405 c 0
 221 405 207 409 195 415 c 1
 195 412 195 409 195 405 c 0
 195 385 199 349 245 339 c 0
 256 337 265 336 276 336 c 0
 340 336 397 382 432 428 c 0
 486 497 501 575 503 590 c 1
 506 590 509 592 512 592 c 0
 527 592 540 586 550 575 c 0
 558 567 561 558 561 546 c 0
 561 541 561 535 559 530 c 2
 477 144 l 1xf4
244 452 m 0
 279 452 300 483 300 510 c 0
 300 529 290 546 264 546 c 0
 227 546 205 515 205 487 c 0xec
 205 469 218 452 244 452 c 0
EndSplineSet
EndChar
StartChar: uni0E30
Encoding: 208 3632 175
Width: 510
Flags: W
HStem: 11 61<179 205> 169 46<195 210> 366 62<254 282> 524 46<270 286>
VStem: 87 52<95 109> 162 54<451 466> 238 50<132 147> 314 49<487 503>
Fore
535 472 m 1
 535 472 l 0
 527 463 463 409 374 380 c 0
 349 372 316 366 282 366 c 0
 242 366 201 376 176 405 c 0
 167 415 162 432 162 451 c 0
 162 500 196 559 271 570 c 0
 285 570 l 0
 331 570 363 543 363 503 c 0
 363 494 l 0
 360 463 353 449 337 428 c 1
 356 432 400 445 449 477 c 0
 500 509 533 544 556 572 c 1
 535 472 l 1
460 116 m 1
 460 116 l 0
 452 107 386 54 297 25 c 0
 273 17 239 11 205 11 c 0
 166 11 126 20 101 49 c 0
 92 60 87 77 87 95 c 0
 87 144 121 204 196 215 c 0
 210 215 l 0
 256 215 288 187 288 147 c 0
 288 138 l 0
 285 107 277 94 262 72 c 1
 281 77 323 89 374 121 c 0
 423 153 458 189 481 216 c 1
 460 116 l 1
254 428 m 0
 254 428 l 0
 291 428 314 460 314 487 c 0
 314 507 302 524 276 524 c 0
 239 524 216 492 216 464 c 0
 216 445 227 428 254 428 c 0
179 72 m 0
 216 72 238 104 238 132 c 0
 238 152 225 169 199 169 c 0
 162 169 139 136 139 109 c 0
 139 89 152 72 179 72 c 0
EndSplineSet
EndChar
StartChar: uni0E31
Encoding: 209 3633 176
Width: 0
Flags: HW
HStem: 789 21G<-150 -82.5>
AnchorPoint: "AboveMark" 96 988 basemark 0
AnchorPoint: "AboveBase" 26 659 mark 0
Fore
251 812 m 1
 251 812 l 0
 213 783 138 745 67 730 c 0
 -38 704 -181 697 -204 797 c 0
 -215 842 -178 926 -97 935 c 0
 -21 944 9 886 -11 828 c 0
 -26 789 -37 786 -48 776 c 1
 -8 774 32 774 101 802 c 0
 189 835 262 907 274 921 c 1
 251 812 l 1
-116 789 m 0
 -49 789 -28 891 -95 891 c 0
 -162 891 -184 789 -116 789 c 0
EndSplineSet
EndChar
StartChar: uni0E32
Encoding: 210 3634 177
Width: 438
Flags: W
HStem: 0 21G<290 359> 532 60<282 316>
VStem: 383 72<463 480>
Fore
359 0 m 1
 290 0 l 1
 376 406 l 2
 380 431 383 451 383 468 c 0
 383 512 362 532 302 532 c 0
 212 532 173 472 152 441 c 1
 107 477 l 1
 144 530 189 592 303 592 c 0
 308 592 311 592 316 592 c 0
 425 589 455 538 455 478 c 0
 455 458 452 438 448 418 c 2
 359 0 l 1
EndSplineSet
EndChar
StartChar: uni0E33
Encoding: 211 3635 178
Width: 438
Flags: W
HStem: 0 21G<284 353> 532 60<282 311> 676 52<-40 -26> 837 52<-7 6>
VStem: -124 52<759 771> 40 52<794 806> 377 72<463 480>
Fore
-38 676 m 0
 -38 676 l 0
 -98 676 -124 714 -124 759 c 0
 -124 819 -75 889 6 889 c 0
 66 889 92 851 92 806 c 0
 92 746 43 676 -38 676 c 0
-28 728 m 0
 -28 728 l 0
 15 728 40 765 40 796 c 0
 40 817 26 837 -5 837 c 0
 -46 837 -72 800 -72 769 c 0
 -72 748 -58 728 -28 728 c 0
353 0 m 1
 284 0 l 1
 369 406 l 2
 374 431 377 451 377 468 c 0
 377 512 356 532 296 532 c 0
 205 532 167 472 146 441 c 1
 101 477 l 1
 138 530 182 592 297 592 c 0
 302 592 305 592 310 592 c 0
 418 589 449 538 449 478 c 0
 449 458 446 438 441 418 c 2
 353 0 l 1
EndSplineSet
Substitution: 0 65534 'amaa' uni0E32
MultipleSubs: 0 65534 'G001' uni0E4D uni0E32
EndChar
StartChar: uni0E34
Encoding: 212 3636 179
Width: 0
Flags: HW
HStem: 704 55<-198 -147.692> 829 54<-165 -148>
AnchorPoint: "AboveMark" 62 988 basemark 0
AnchorPoint: "AboveBase" 26 659 mark 0
Fore
28 656 m 0
 28 656 l 0
 -51 691 -97 705 -198 704 c 0
 -279 704 -337 691 -420 662 c 1
 -392 788 -285 881 -150 883 c 0
 -20 884 54 780 28 656 c 0
-21 730 m 1
 -37 794 -86 829 -156 829 c 0
 -228 829 -282 797 -326 737 c 1
 -288 748 -253 757 -181 759 c 0
 -109 760 -58 743 -21 730 c 1
EndSplineSet
EndChar
StartChar: uni0E35
Encoding: 213 3637 180
Width: 0
Flags: HW
HStem: 708 54<-184 -135.546> 834 53<-151 -134> 936 20G<21 90>
AnchorPoint: "AboveMark" 62 988 basemark 0
AnchorPoint: "AboveBase" 26 659 mark 0
Fore
43 661 m 0
 43 661 l 0
 -35 696 -83 708 -184 708 c 0
 -265 707 -322 696 -406 667 c 1
 -380 792 -261 887 -136 887 c 0
 -25 887 -8 829 -6 829 c 1
 21 956 l 1
 90 956 l 1
 48 760 l 1
 48 760 51 737 49 714 c 0
 48 693 43 665 43 661 c 0
-8 734 m 1
 -21 799 -71 834 -143 834 c 0
 -213 834 -270 800 -311 742 c 1
 -274 753 -241 760 -166 762 c 0
 -94 763 -44 748 -8 734 c 1
EndSplineSet
EndChar
StartChar: uni0E36
Encoding: 214 3638 181
Width: 0
Flags: HW
HStem: 688 55<-215 -184> 814 54<-159 -101>
AnchorPoint: "AboveMark" 13 988 basemark 0
AnchorPoint: "AboveBase" 26 659 mark 0
Fore
69 843 m 0
 69 843 l 0
 57 820 37 805 11 796 c 1
 23 773 29 763 31 730 c 0
 35 684 29 664 25 642 c 1
 -54 677 -98 690 -202 688 c 0
 -284 688 -339 677 -422 648 c 1
 -406 728 -354 797 -287 835 c 0
 -187 891 -107 868 -101 868 c 1
 -100 880 -103 898 -80 927 c 0
 -41 976 29 975 57 956 c 0
 92 932 94 884 69 843 c 0
-18 834 m 0
 -18 834 l 0
 43 834 61 924 0 924 c 0
 -60 924 -78 834 -18 834 c 0
-25 716 m 1
 -40 779 -89 814 -159 814 c 0
 -230 814 -287 782 -328 723 c 1
 -290 733 -256 742 -184 743 c 0
 -112 745 -61 728 -25 716 c 1
EndSplineSet
EndChar
StartChar: uni0E37
Encoding: 215 3639 182
Width: 0
Flags: HW
HStem: 705 55<-190 -159> 831 46<-135 -44> 938 20G<-95 -28 25 92>
AnchorPoint: "AboveMark" 4 988 basemark 0
AnchorPoint: "AboveBase" 26 659 mark 0
Fore
49 658 m 0
 49 658 l 0
 -29 693 -74 707 -176 705 c 0
 -258 705 -314 693 -397 664 c 1
 -391 697 -371 780 -293 838 c 0
 -224 891 -139 894 -110 889 c 1
 -95 958 l 1
 -28 958 l 1
 -44 877 l 1
 -43 877 -29 869 -20 863 c 0
 -9 855 0 842 0 842 c 1
 25 958 l 1
 92 958 l 1
 49 757 l 2
 49 754 54 728 52 710 c 0
 52 688 51 664 49 658 c 0
2 733 m 1
 -15 796 -64 831 -135 831 c 0
 -205 831 -261 799 -303 739 c 1
 -265 750 -231 759 -159 760 c 0
 -86 762 -37 745 2 733 c 1
EndSplineSet
EndChar
StartChar: uni0E38
Encoding: 216 3640 183
Width: 0
Flags: HW
HStem: -83 48<-226 -208>
AnchorPoint: "BelowBase" -120 -35 mark 0
Fore
-178 -313 m 1
 -254 -313 l 1
 -230 -198 l 1
 -230 -198 -258 -210 -287 -196 c 0
 -317 -182 -334 -162 -322 -113 c 0
 -313 -74 -274 -34 -208 -35 c 0
 -138 -37 -129 -78 -139 -127 c 2
 -178 -313 l 1
-239 -150 m 0
 -195 -150 -179 -83 -224 -83 c 0
 -270 -83 -285 -150 -239 -150 c 0
EndSplineSet
EndChar
StartChar: uni0E39
Encoding: 217 3641 184
Width: 0
Flags: HW
HStem: -308 47<-300 -252> -87 47<-355 -340>
AnchorPoint: "BelowBase" -120 -35 mark 0
Fore
-268 -261 m 1
 -268 -261 l 1
 -268 -261 -265 -261 -254 -261 c 0
 -238 -261 -236 -253 -233 -236 c 0
 -231 -233 -192 -44 -192 -44 c 1
 -127 -44 l 1
 -127 -44 -170 -242 -170 -247 c 0
 -178 -279 -189 -308 -219 -308 c 0
 -242 -308 -284 -308 -284 -308 c 1
 -372 -308 l 1
 -348 -198 l 1
 -348 -198 -380 -210 -409 -196 c 0
 -438 -182 -452 -150 -437 -107 c 0
 -422 -66 -382 -40 -340 -40 c 0
 -277 -40 -261 -81 -270 -126 c 1
 -300 -261 l 1
 -268 -261 l 1
-366 -155 m 0
 -320 -155 -307 -87 -353 -87 c 0
 -397 -87 -411 -155 -366 -155 c 0
EndSplineSet
EndChar
StartChar: uni0E3A
Encoding: 218 3642 185
Width: 0
Flags: HW
AnchorPoint: "BelowBase" -120 -35 mark 0
Fore
-205 -196 m 0
 -239 -196 -254 -175 -254 -149 c 0
 -254 -115 -226 -74 -179 -74 c 0
 -145 -74 -130 -95 -130 -121 c 0
 -130 -155 -158 -196 -205 -196 c 0
EndSplineSet
EndChar
StartChar: uni0E4D.high
Encoding: 219 63262 186
Width: 0
Flags: W
TeX: 0 0 0 0
HStem: 963 46<-50 81.5 -32.5 103> 1121 46<10.5 146>
AnchorPoint: "AboveMark" 40 988 mark 0
Fore
35 963 m 0
 -100 963 -57 1167 78 1167 c 0
 214 1167 171 963 35 963 c 0
44 1009 m 0
 119 1009 143 1121 68 1121 c 0
 -6 1121 -30 1009 44 1009 c 0
EndSplineSet
EndChar
StartChar: uni0E3F
Encoding: 223 3647 187
Width: 629
Flags: W
HStem: 0 71<170 258 343 416> 322 72<239 326 406 437> 624 70<231 391>
VStem: 558 67<225 243> 589 76<529 559>
Fore
342 394 m 1xe0
 391 624 l 1
 288 624 l 1
 239 394 l 1
 342 394 l 1xe0
273 71 m 1
 326 322 l 1
 224 322 l 1
 170 71 l 1
 273 71 l 1
397 322 m 1
 343 71 l 1
 400 71 l 2
 497 71 541 141 553 199 c 0
 556 213 558 224 558 235 c 0xf0
 558 316 478 322 406 322 c 2
 397 322 l 1
461 624 m 0
 412 394 l 1
 429 394 l 2
 527 394 575 452 586 503 c 0
 587 510 589 520 589 529 c 0xe8
 589 570 566 619 461 624 c 0
423 779 m 1
 494 779 l 1
 475 694 l 1
 523 694 l 2
 573 694 665 661 665 559 c 0xe8
 665 547 664 533 661 520 c 0
 647 457 604 400 529 368 c 1
 547 357 556 353 567 346 c 0
 605 323 625 287 625 239 c 0xf0
 625 225 624 212 621 195 c 0
 590 52 460 0 414 0 c 2
 328 0 l 1
 308 -94 l 1
 238 -94 l 1
 258 0 l 1
 84 0 l 1
 231 694 l 1
 405 694 l 1
 423 779 l 1
EndSplineSet
EndChar
StartChar: uni0E40
Encoding: 224 3648 188
Width: 340
Flags: W
HStem: -2 51<194 209> 141 49<225 241>
VStem: 112 57<74 86> 264 53<104 118>
Fore
310 77 m 0
 310 77 l 0
 291 29 245 -2 195 -2 c 0
 135 -2 112 32 112 74 c 0
 112 83 113 92 115 101 c 2
 219 590 l 1
 288 590 l 1
 202 184 l 1
 202 184 219 190 241 190 c 0
 253 190 265 189 277 182 c 0
 302 172 317 149 317 118 c 0
 317 106 314 92 310 77 c 0
205 49 m 0
 242 49 264 80 264 106 c 0
 264 124 251 141 225 141 c 0
 190 141 169 110 169 84 c 0
 169 66 179 49 205 49 c 0
EndSplineSet
EndChar
StartChar: uni0E41
Encoding: 225 3649 189
Width: 600
Flags: W
HStem: -2 51<194 209 463 476> 141 49<225 241 493 509>
VStem: 112 57<74 86> 264 53<104 118> 379 56<75 86> 530 54<104 120>
Fore
576 77 m 0
 576 77 l 0
 559 29 512 -2 463 -2 c 0
 402 -2 379 34 379 75 c 0
 379 83 380 92 382 101 c 2
 486 590 l 1
 556 590 l 1
 471 184 l 1
 471 184 487 190 509 190 c 0
 521 190 533 189 546 182 c 0
 570 172 584 150 584 120 c 0
 584 107 582 92 576 77 c 0
310 77 m 0
 310 77 l 0
 291 29 245 -2 195 -2 c 0
 135 -2 112 32 112 74 c 0
 112 83 113 92 115 101 c 2
 219 590 l 1
 288 590 l 1
 202 184 l 1
 202 184 219 190 241 190 c 0
 253 190 265 189 277 182 c 0
 302 172 317 149 317 118 c 0
 317 106 314 92 310 77 c 0
474 49 m 0
 474 49 l 0
 509 49 530 80 530 106 c 0
 530 124 520 141 494 141 c 0
 457 141 435 110 435 84 c 0
 435 66 448 49 474 49 c 0
205 49 m 0
 242 49 264 80 264 106 c 0
 264 124 251 141 225 141 c 0
 190 141 169 110 169 84 c 0
 169 66 179 49 205 49 c 0
EndSplineSet
EndChar
StartChar: uni0E42
Encoding: 226 3650 190
Width: 413
Flags: W
HStem: -2 51<240 253> 141 49<271 287> 938 92<334 483> 981 49<314 341>
VStem: 158 57<74 86> 310 53<104 118> 313 70<820 834>
Fore
556 963 m 1xea
 556 963 l 1
 556 963 532 938 483 938 c 0
 481 938 478 938 475 938 c 0xea
 417 943 383 981 326 981 c 0
 319 981 311 981 303 979 c 0
 273 975 251 958 245 955 c 1
 248 955 307 932 339 907 c 0
 366 886 383 866 383 834 c 0xda
 383 826 382 819 380 809 c 2
 248 184 l 1
 248 184 265 190 287 190 c 0
 299 190 311 189 323 182 c 0
 348 172 363 149 363 118 c 0
 363 106 360 92 356 77 c 0
 337 29 291 -2 241 -2 c 0
 181 -2 158 32 158 74 c 0
 158 83 159 92 161 101 c 2
 310 799 l 2xdc
 311 808 313 814 313 822 c 0
 313 854 291 868 247 894 c 0
 202 920 146 937 139 937 c 1
 173 973 219 1004 251 1015 c 0
 284 1025 310 1030 334 1030 c 0
 402 1030 441 996 483 996 c 0
 492 996 l 0
 540 1001 543 1013 546 1013 c 1
 556 963 l 1xea
251 49 m 0
 288 49 310 80 310 106 c 0xcc
 310 124 297 141 271 141 c 0
 236 141 215 110 215 84 c 0
 215 66 225 49 251 49 c 0
EndSplineSet
EndChar
StartChar: uni0E43
Encoding: 227 3651 191
Width: 400
Flags: W
HStem: -2 51<250 263> 141 49<280 296> 765 43<200 210> 886 43<225 231> 976 49<294 314>
VStem: 143 44<827 836> 167 57<74 86> 245 46<857 880> 319 53<104 118> 345 69<927 940>
Fore
365 77 m 0xf980
 365 77 l 0
 346 29 300 -2 250 -2 c 0
 190 -2 167 32 167 74 c 0xfb80
 167 83 169 92 170 101 c 2
 343 917 l 2
 345 921 345 924 345 929 c 0
 345 955 326 976 299 976 c 0
 268 976 242 958 231 929 c 1
 233 929 239 930 245 930 c 0
 251 930 261 929 273 923 c 0
 285 915 291 898 291 880 c 0
 291 846 276 806 254 786 c 0
 241 773 221 765 202 765 c 0
 176 765 153 779 146 806 c 0
 144 812 143 820 143 829 c 0
 143 869 162 935 199 972 c 0
 230 1006 264 1025 314 1025 c 0
 382 1025 414 989 414 940 c 0xfd40
 414 930 412 921 411 912 c 2
 258 184 l 1
 258 184 274 190 296 190 c 0
 308 190 320 189 333 182 c 0
 357 172 372 149 372 118 c 0
 372 106 369 92 365 77 c 0xf980
208 808 m 0
 208 808 l 0
 231 808 245 835 245 857 c 0
 245 874 239 886 225 886 c 0
 204 886 187 857 187 834 c 0xfd
 187 819 193 808 208 808 c 0
261 49 m 0
 297 49 319 80 319 106 c 0
 319 124 307 141 281 141 c 0
 245 141 224 110 224 84 c 0xfb80
 224 66 235 49 261 49 c 0
EndSplineSet
EndChar
StartChar: uni0E44
Encoding: 228 3652 192
Width: 449
Flags: W
HStem: -2 51<288 301> 141 49<318 334> 952 20G<377 386> 973 57<139 162>
VStem: 205 56<74 86> 356 53<101 120> 391 70<957 975>
Fore
402 77 m 0xfc
 402 77 l 0
 385 29 339 -2 288 -2 c 0
 228 -2 205 32 205 74 c 0
 205 83 207 92 208 101 c 2
 386 935 l 2
 388 943 391 953 391 961 c 0
 391 967 389 972 383 972 c 0
 371 972 363 955 359 944 c 1
 268 737 l 2
 256 708 236 681 199 677 c 0
 195 677 l 0
 162 677 149 700 149 728 c 0
 149 731 150 736 150 740 c 1
 172 906 l 1
 173 914 175 923 175 929 c 0
 175 937 173 944 172 950 c 0
 166 972 144 973 139 973 c 0
 138 973 138 973 138 973 c 1
 150 1030 l 1
 155 1030 158 1030 162 1030 c 0
 185 1030 205 1022 219 1009 c 0
 233 996 238 981 238 963 c 0
 238 955 238 947 236 938 c 1
 208 728 l 1
 317 973 l 1
 328 998 356 1030 402 1030 c 0
 403 1030 403 1030 405 1030 c 0
 446 1029 461 1007 461 975 c 0xfa
 461 966 460 953 457 941 c 2
 296 184 l 1
 296 184 313 190 334 190 c 0
 346 190 359 189 371 182 c 0
 395 172 409 150 409 120 c 0
 409 107 408 92 402 77 c 0xfc
299 49 m 0
 334 49 356 80 356 106 c 0xfc
 356 124 345 141 319 141 c 0
 282 141 261 110 261 84 c 0
 261 66 273 49 299 49 c 0
EndSplineSet
EndChar
StartChar: uni0E45
Encoding: 229 3653 193
Width: 220
Flags: W
HStem: 535 55<110 138>
VStem: 187 74<468 490>
Fore
116 -218 m 1
 48 -218 l 1
 173 376 l 2
 179 402 187 437 187 468 c 0
 187 504 175 533 129 535 c 0
 127 535 126 535 123 535 c 0
 43 535 18 501 -6 455 c 1
 -14 461 -49 481 -49 481 c 0
 -49 481 l 0
 -48 481 l 1
 -25 533 11 590 138 590 c 0
 236 590 261 547 261 490 c 0
 261 460 253 423 245 386 c 2
 116 -218 l 1
EndSplineSet
EndChar
StartChar: uni0E46
Encoding: 230 3654 194
Width: 565
Flags: W
HStem: 241 46<251 268> 386 46<282 295> 529 61<472 476>
VStem: 155 67<325 353> 325 47<346 356> 529 72<467 483>
Fore
490 -58 m 1
 490 -58 l 0
 480 -110 455 -152 409 -185 c 0
 365 -219 302 -242 274 -244 c 1
 253 -193 l 1
 258 -193 326 -175 366 -144 c 0
 397 -123 412 -94 420 -58 c 2
 526 441 l 2
 529 451 529 461 529 469 c 0
 529 484 526 498 515 507 c 0
 504 518 486 529 472 529 c 0
 469 529 466 529 463 527 c 2
 383 486 l 1
 326 523 l 2
 322 523 l 0
 308 523 274 507 256 481 c 0
 235 454 230 437 228 412 c 1
 228 412 253 432 293 432 c 0
 299 432 303 431 310 431 c 0
 348 426 372 394 372 354 c 0
 372 333 365 311 349 290 c 0
 323 254 287 241 253 241 c 0
 224 241 196 251 181 268 c 0
 161 288 155 319 155 353 c 0
 155 403 172 460 192 490 c 0
 228 546 276 575 336 590 c 1
 395 541 l 1
 474 590 l 1
 483 590 535 582 559 563 c 0
 586 540 601 507 601 475 c 0
 601 469 601 463 599 457 c 2
 490 -58 l 1
262 287 m 0
 300 287 325 320 325 348 c 0
 325 368 313 386 284 386 c 0
 245 386 222 353 222 325 c 0
 222 305 235 287 262 287 c 0
EndSplineSet
EndChar
StartChar: uni0E47
Encoding: 231 3655 195
Width: 0
Flags: HW
HStem: 955 20G<143 143>
AnchorPoint: "AboveMark" -183 659 mark 0
AnchorPoint: "AboveBase" 26 659 mark 0
Fore
143 975 m 1
 143 975 l 0
 139 958 129 940 118 924 c 0
 69 861 -11 858 -71 864 c 0
 -97 868 -121 871 -146 874 c 0
 -193 878 -236 875 -264 843 c 0
 -284 823 -287 800 -285 777 c 1
 -285 769 l 1
 -227 832 -153 811 -112 766 c 1
 -80 845 49 838 26 739 c 0
 15 688 -38 659 -84 671 c 0
 -118 679 -136 702 -158 723 c 0
 -176 742 -196 756 -231 745 c 0
 -262 737 -276 705 -284 671 c 2
 -285 664 l 1
 -333 684 -359 719 -353 776 c 0
 -346 849 -293 907 -238 921 c 0
 -150 944 -92 912 -9 917 c 0
 29 918 61 937 69 975 c 2
 71 979 l 1
 144 979 l 1
 143 975 l 1
-20 743 m 0
 -17 757 -21 769 -40 769 c 0
 -57 769 -67 757 -71 743 c 0
 -74 731 -69 717 -52 717 c 0
 -34 717 -23 731 -20 743 c 0
EndSplineSet
EndChar
StartChar: uni0E48
Encoding: 232 3656 196
Width: 0
Flags: HW
AnchorPoint: "AboveMark" 62 988 mark 0
Fore
98 992 m 1
 32 992 l 1
 71 1179 l 1
 136 1179 l 1
 98 992 l 1
EndSplineSet
Substitution: 0 65534 'loww' uni0E48.low
MultipleSubs: 0 65534 'amtn' uni0E4D uni0E48
EndChar
StartChar: uni0E49
Encoding: 233 3657 197
Width: 0
Flags: HW
AnchorPoint: "AboveMark" 59 988 mark 0
Fore
251 1104 m 1
 251 1104 l 0
 216 1068 182 1036 109 1007 c 4
 34 976 -26 978 -77 984 c 5
 -60 993 -44 1006 -34 1018 c 0
 -23 1029 -14 1047 -11 1052 c 1
 -41 1048 -61 1058 -78 1078 c 0
 -103 1113 -74 1196 0 1203 c 0
 71 1211 84 1171 81 1133 c 0
 75 1079 31 1030 28 1029 c 0
 72 1039 116 1062 146 1082 c 0
 202 1119 251 1168 271 1199 c 1
 251 1104 l 1
-8 1090 m 0
 46 1090 54 1170 8 1166 c 0
 -43 1163 -61 1090 -8 1090 c 0
EndSplineSet
Substitution: 0 65534 'loww' uni0E49.low
MultipleSubs: 0 65534 'amtn' uni0E4D uni0E49
EndChar
StartChar: uni0E4A
Encoding: 234 3658 198
Width: 0
Flags: HW
HStem: 1065 34<-19 -5>
AnchorPoint: "AboveMark" 55 988 mark 0
Fore
322 1143 m 1
 322 1143 l 0
 307 1105 287 1078 259 1050 c 0
 204 998 147 978 80 983 c 1
 94 990 129 1024 143 1068 c 0
 155 1101 153 1142 121 1145 c 0
 90 1150 64 1128 60 1122 c 1
 55 1128 26 1150 0 1143 c 0
 -29 1136 -48 1111 -52 1084 c 1
 -37 1094 -28 1099 -5 1099 c 0
 31 1099 48 1068 40 1036 c 0
 31 1002 -3 976 -41 978 c 0
 -100 981 -120 1045 -87 1116 c 0
 -72 1156 -38 1188 5 1191 c 0
 35 1194 55 1180 64 1156 c 1
 83 1179 112 1191 141 1191 c 0
 182 1191 207 1157 202 1113 c 0
 196 1062 164 1025 161 1021 c 1
 196 1036 219 1061 242 1090 c 0
 268 1122 279 1171 282 1185 c 1
 322 1143 l 1
-28 1010 m 0
 8 1010 18 1065 -17 1065 c 0
 -51 1065 -64 1010 -28 1010 c 0
EndSplineSet
Substitution: 0 65534 'loww' uni0E4A.low
MultipleSubs: 0 65534 'amtn' uni0E4D uni0E4A
EndChar
StartChar: uni0E4B
Encoding: 235 3659 199
Width: 0
Flags: HW
HStem: 975 21G<32 95> 1052 62<-22 49 126 192>
AnchorPoint: "AboveMark" 61 973 mark 0
Fore
192 1052 m 1
 112 1052 l 1
 95 975 l 1
 32 975 l 1
 49 1052 l 1
 -35 1052 l 1
 -21 1114 l 1
 63 1114 l 1
 80 1196 l 1
 143 1196 l 1
 126 1114 l 1
 205 1114 l 1
 192 1052 l 1
EndSplineSet
Substitution: 0 65534 'loww' uni0E4B.low
MultipleSubs: 0 65534 'amtn' uni0E4D uni0E4B
EndChar
StartChar: uni0E4C
Encoding: 236 3660 200
Width: 0
Flags: HW
HStem: 1012 36<21 37>
AnchorPoint: "AboveMark" -1 889 mark 0
Fore
290 1196 m 1
 290 1196 l 0
 284 1183 277 1140 221 1113 c 0
 153 1079 83 1101 23 1074 c 0
 -6 1061 -12 1038 -15 1033 c 1
 2 1044 9 1048 37 1048 c 0
 78 1048 107 1018 98 972 c 0
 87 923 44 894 0 891 c 0
 -77 889 -104 967 -71 1036 c 0
 -32 1114 34 1136 135 1136 c 0
 215 1136 218 1193 224 1196 c 1
 290 1196 l 1
8 930 m 0
 61 930 77 1012 23 1012 c 0
 -32 1012 -48 930 8 930 c 0
EndSplineSet
Substitution: 0 65534 'loww' uni0E4C.low
MultipleSubs: 0 65534 'amtn' uni0E4D uni0E4C
EndChar
StartChar: uni0E4D
Encoding: 237 3661 201
Width: 0
Flags: HW
HStem: 633 46<-37 -21> 791 46<-7 10>
AnchorPoint: "AboveMark" 40 988 basemark 0
AnchorPoint: "AboveBase" 72 659 mark 0
Fore
-35 633 m 0
 -35 633 l 0
 -170 633 -127 837 8 837 c 0
 144 837 101 633 -35 633 c 0
-26 679 m 0
 49 679 74 791 -2 791 c 0
 -75 791 -100 679 -26 679 c 0
EndSplineSet
Substitution: 0 65534 'high' uni0E4D.high
EndChar
StartChar: uni0E4E
Encoding: 238 3662 202
Width: 0
Flags: HW
HStem: 731 42<0 40> 892 35<143 166> 1032 33<195 212>
AnchorPoint: "AboveBase" 107 659 mark 0
Fore
130 766 m 1
 98 743 54 731 0 731 c 0
 -40 731 -66 739 -78 756 c 0
 -90 769 -94 786 -89 808 c 0
 -86 831 -72 852 -51 871 c 0
 -17 903 29 918 84 918 c 1
 69 920 54 924 40 937 c 0
 28 947 23 963 28 983 c 1
 46 1025 95 1053 176 1064 c 0
 184 1065 195 1065 212 1065 c 0
 244 1067 267 1062 282 1053 c 1
 238 1024 l 2
 236 1024 231 1024 222 1027 c 0
 216 1029 207 1030 199 1032 c 0
 190 1032 181 1030 167 1027 c 0
 133 1018 112 1001 103 975 c 0
 100 960 103 947 116 940 c 0
 130 932 146 927 166 927 c 1
 143 892 l 1
 98 892 61 883 29 861 c 0
 14 849 3 834 -2 815 c 0
 -3 805 -2 797 2 789 c 0
 9 779 21 773 40 773 c 0
 66 773 86 779 104 794 c 1
 130 766 l 1
EndSplineSet
EndChar
StartChar: uni0E4F
Encoding: 239 3663 203
Width: 599
Flags: W
HStem: 0 31<296 334> 100 30<328 346> 326 36<375 388> 429 32<384 410>
VStem: 121 34<175 193> 224 30<199 209> 458 36<249 263> 561 34<262 289>
Fore
310 0 m 0
 310 0 l 0
 179 0 121 83 121 178 c 0
 121 308 230 461 408 461 c 0
 536 461 595 379 595 284 c 0
 595 155 487 0 310 0 c 0
316 31 m 0
 316 31 l 0
 469 31 561 164 561 277 c 0
 561 359 512 429 402 429 c 0
 248 429 155 296 155 182 c 0
 155 101 204 31 316 31 c 0
331 100 m 0
 331 100 l 0
 256 100 224 147 224 201 c 0
 224 274 285 362 386 362 c 0
 460 362 494 314 494 261 c 0
 494 187 432 100 331 100 c 0
336 130 m 0
 412 130 458 196 458 251 c 0
 458 291 432 326 377 326 c 0
 300 326 254 261 254 205 c 0
 254 166 281 130 336 130 c 0
EndSplineSet
EndChar
StartChar: uni0E50
Encoding: 240 3664 204
Width: 611
Flags: W
HStem: -2 59<311 345> 362 53<390 409>
VStem: 120 72<157 175> 529 72<246 258>
Fore
595 208 m 0
 595 208 l 0
 569 89 468 -2 319 -2 c 0
 319 -2 317 -2 316 -2 c 0
 187 0 120 64 120 159 c 0
 120 175 123 192 126 208 c 0
 152 330 258 415 405 415 c 0
 532 415 601 351 601 256 c 0
 601 241 598 225 595 208 c 0
524 208 m 0
 527 222 529 235 529 248 c 0
 529 314 486 362 392 362 c 0
 281 362 215 294 196 208 c 0
 193 195 192 182 192 170 c 0
 192 104 236 57 328 57 c 0
 437 57 506 123 524 208 c 0
EndSplineSet
EndChar
StartChar: uni0E51
Encoding: 241 3665 205
Width: 611
Flags: W
HStem: -2 62<262 276> 80 50<334 340> 218 53<354 369> 359 55<381 420>
VStem: 115 70<139 158> 244 61<150 166> 395 60<175 193> 544 71<210 241>
Fore
612 198 m 0
 612 198 l 0
 581 6 440 -67 411 -80 c 1
 383 -31 l 1
 448 -3 517 55 541 195 c 0
 543 204 544 215 544 225 c 0
 544 290 504 359 403 359 c 0
 402 359 399 359 397 359 c 0
 300 357 216 299 193 212 c 0
 189 192 185 173 185 158 c 0
 185 115 202 83 242 66 c 0
 254 61 265 60 274 60 c 0
 310 60 333 78 336 80 c 0
 331 80 326 80 323 80 c 0
 287 80 258 97 247 129 c 0
 245 135 244 143 244 150 c 0
 244 199 285 265 354 271 c 0
 359 271 365 273 369 273 c 0
 429 273 455 231 455 185 c 0
 455 173 452 161 449 149 c 0
 425 67 353 -2 264 -2 c 0
 158 0 115 60 115 139 c 0
 115 162 120 187 126 213 c 0
 155 330 262 414 406 414 c 0
 547 414 615 342 615 239 c 0
 615 225 615 212 612 198 c 0
343 130 m 0
 376 132 395 159 395 184 c 0
 395 202 383 218 359 218 c 0
 357 218 357 218 356 218 c 0
 323 216 305 189 305 166 c 0
 305 147 316 130 340 130 c 0
 342 130 342 130 343 130 c 0
EndSplineSet
EndChar
StartChar: uni0E52
Encoding: 242 3666 206
Width: 611
Flags: W
HStem: 0 58<172.462 491> 129 50<293 305> 261 50<317 336> 357 58<377 395 561 581> 553 60<113 123>
VStem: 74 73<63 89> 167 72<520 533> 213 58<207 220> 353 53<228 242> 595 70<318 331>
Fore
622 115 m 1xfdc0
 622 115 l 0
 615 83 615 55 590 31 c 0
 567 9 543 0 513 0 c 2
 138 0 l 2
 113 0 97 12 83 23 c 0
 77 31 74 46 74 63 c 0
 74 74 74 86 77 97 c 2
 166 510 l 2
 166 513 167 517 167 520 c 0
 167 530 162 536 152 544 c 0
 141 552 123 553 110 553 c 0
 106 553 103 553 101 553 c 1
 113 613 l 1
 115 613 118 613 121 613 c 0
 139 613 175 610 199 598 c 0
 227 582 239 559 239 533 c 0xfec0
 239 527 238 521 236 513 c 2
 152 112 l 2
 150 103 147 95 147 89 c 0
 147 84 149 80 150 75 c 0
 158 61 170 58 185 58 c 2
 484 58 l 2
 503 58 521 60 535 74 c 0
 547 84 550 100 553 115 c 2
 592 296 l 2
 593 303 595 313 595 320 c 0
 595 340 587 357 561 357 c 0
 510 357 490 285 489 284 c 1
 440 284 l 1
 440 285 440 287 440 290 c 0
 440 308 431 357 386 357 c 0
 385 357 l 0
 334 356 323 322 317 310 c 1
 323 311 330 311 336 311 c 0
 354 311 371 307 383 296 c 0
 399 284 406 264 406 242 c 0
 406 202 382 156 337 138 c 0
 322 132 307 129 293 129 c 0
 245 129 213 162 213 218 c 0
 213 230 215 242 218 256 c 0
 236 334 302 414 382 415 c 0
 385 415 386 415 389 415 c 0
 472 415 480 363 481 360 c 1
 484 365 510 415 581 415 c 0
 641 415 665 379 665 331 c 0
 665 322 664 311 662 300 c 2
 622 115 l 1xfdc0
303 179 m 0
 334 179 353 207 353 230 c 0
 353 247 342 261 320 261 c 0
 290 261 271 233 271 210 c 0xfdc0
 271 193 281 179 303 179 c 0
EndSplineSet
EndChar
StartChar: uni0E53
Encoding: 243 3667 207
Width: 611
Flags: W
HStem: -3 54<181 196> 138 52<208 222> 354 61<300 316 550 569>
VStem: 90 65<84 107> 245 54<103 115> 388 50<277 339> 610 71<293 311>
Fore
618 0 m 1
 550 0 l 1
 607 264 l 2
 609 273 610 284 610 293 c 0
 610 325 596 354 558 356 c 0
 556 356 l 0
 507 356 466 308 455 261 c 2
 400 0 l 1
 331 0 l 1
 386 262 l 2
 388 267 388 273 388 277 c 0
 388 313 365 354 300 354 c 0
 248 354 208 305 193 261 c 0
 182 233 175 202 175 182 c 0
 175 178 l 1
 190 185 205 190 222 190 c 0
 227 190 235 190 241 189 c 0
 279 182 299 153 299 115 c 0
 299 107 297 98 296 89 c 0
 284 34 230 -3 181 -3 c 0
 173 -3 166 -2 158 0 c 0
 107 14 90 55 90 107 c 0
 90 135 95 166 101 196 c 0
 120 302 192 412 316 415 c 0
 325 415 l 0
 425 415 438 340 438 339 c 0
 441 343 475 415 569 415 c 0
 642 415 681 371 681 311 c 0
 681 300 679 290 676 277 c 2
 618 0 l 1
192 51 m 0
 225 51 245 80 245 104 c 0
 245 123 235 138 210 138 c 0
 176 138 155 109 155 84 c 0
 155 66 166 51 192 51 c 0
EndSplineSet
EndChar
StartChar: uni0E54
Encoding: 244 3668 208
Width: 611
Flags: W
HStem: -2 21G<210 267.5> 28 29<243 451> 69 103<363 377> 357 60<518 548.574> 360 62<371 408>
VStem: 84 74<150 173> 268 60<189 205> 415 56<217 231>
Fore
834 621 m 1xf7
 834 621 l 0
 820 563 754 446 681 399 c 0
 627 363 573 357 518 357 c 0xf7
 481 357 445 360 408 360 c 0
 379 360 348 359 319 351 c 0
 239 333 185 285 164 204 c 0
 159 187 158 172 158 158 c 0
 158 95 195 57 251 57 c 0
 261 57 268 58 277 60 c 0
 320 67 345 69 359 69 c 0
 366 69 371 69 374 69 c 0
 376 69 376 69 377 69 c 1
 371 69 268 106 268 189 c 0
 270 238 311 300 379 307 c 0
 392 307 l 0
 446 307 471 273 471 231 c 0
 471 221 469 207 464 195 c 0
 454 166 431 146 402 133 c 0
 403 133 415 110 455 101 c 0
 498 92 524 94 561 81 c 0
 596 69 604 61 625 48 c 1
 578 -6 l 1
 573 -5 527 25 463 28 c 0
 458 28 455 28 451 28 c 0
 383 28 302 -2 233 -2 c 0
 187 -2 146 11 116 51 c 0
 95 78 84 113 84 152 c 0
 84 224 123 307 196 360 c 0
 265 411 333 422 399 422 c 0xef
 440 422 481 417 520 417 c 0
 579 417 635 428 681 478 c 0
 731 532 756 586 773 645 c 1
 834 621 l 1xf7
366 172 m 0
 397 173 415 199 415 222 c 0
 415 241 405 256 380 256 c 0
 379 256 379 256 377 256 c 0
 346 254 328 228 328 205 c 0
 328 187 339 172 363 172 c 0
 365 172 365 172 366 172 c 0
EndSplineSet
EndChar
StartChar: uni0E55
Encoding: 245 3669 209
Width: 611
Flags: W
HStem: -2 21G<204 262> 28 29<239 445> 69 103<357 371> 349 63<525 549> 359 59<361 385> 441 60<543 558> 558 57<564 584>
VStem: 80 72<148 171> 264 59<189 205> 409 57<221 235> 451 67<512 524> 642 77<461 481>
Fore
792 664 m 1xf7b0
 792 664 l 0
 783 636 771 613 756 589 c 0
 736 556 710 533 708 530 c 1
 708 530 719 510 719 481 c 0
 719 457 711 426 684 397 c 0
 647 359 599 349 547 349 c 0xf7b0
 495 349 438 359 385 359 c 0
 362 359 339 356 316 351 c 0
 236 333 179 284 158 204 c 0
 153 187 152 172 152 158 c 0
 152 95 190 57 247 57 c 0
 254 57 264 58 273 60 c 0
 316 67 339 69 353 69 c 0
 360 69 365 69 368 69 c 0
 369 69 369 69 371 69 c 1
 365 69 264 106 264 187 c 0
 264 189 l 0
 265 238 305 300 374 307 c 0
 388 307 l 0
 440 307 466 274 466 235 c 0
 466 221 463 208 458 195 c 0
 448 166 425 146 395 133 c 0
 397 133 411 110 449 101 c 0
 492 92 520 94 556 81 c 0
 592 69 598 61 619 48 c 1
 572 -6 l 1
 567 -5 521 25 457 28 c 0
 454 28 449 28 445 28 c 0
 379 28 297 -2 227 -2 c 0
 181 -2 139 11 110 51 c 0
 89 78 80 113 80 150 c 0
 80 224 118 305 190 360 c 0
 253 408 319 418 382 418 c 0xefd0
 431 418 480 412 526 412 c 0
 549 412 l 0
 636 415 642 445 642 461 c 0
 642 464 642 469 642 471 c 0
 642 474 642 475 644 475 c 1
 641 472 596 441 543 441 c 0
 530 441 520 443 507 446 c 0
 469 455 451 483 451 512 c 0
 451 550 481 593 536 609 c 0
 553 613 569 615 582 615 c 0
 641 615 674 586 674 584 c 1
 676 587 696 604 710 630 c 0
 720 650 727 665 731 688 c 1
 792 664 l 1xf7b0
630 533 m 0
 630 533 l 0
 624 543 599 558 575 558 c 0
 550 558 526 552 520 530 c 0
 520 527 518 526 518 524 c 0
 518 509 535 501 556 501 c 0
 566 501 l 0
 604 506 621 523 630 533 c 0
360 172 m 0
 391 173 409 199 409 222 c 0xe7d0
 409 241 399 256 374 256 c 0
 372 256 372 256 371 256 c 0
 340 254 323 228 323 205 c 0
 323 187 334 172 357 172 c 0
 359 172 359 172 360 172 c 0
EndSplineSet
EndChar
StartChar: uni0E56
Encoding: 246 3670 210
Width: 611
Flags: W
HStem: 0 60<333 364> 0 95<277 349> 182 53<299 310> 360 60<420 443>
VStem: 187 57<110 127> 241 66<414 449> 334 55<147 161> 540 72<235 264>
Fore
610 235 m 0xb7
 610 235 l 0
 595 98 486 3 354 0 c 0
 349 0 l 0
 267 0 187 38 187 110 c 0xbb
 187 118 189 126 190 133 c 0
 201 181 241 230 303 235 c 0
 307 235 310 235 311 235 c 0
 360 235 389 202 389 161 c 0
 389 150 388 141 385 130 c 0
 369 80 339 64 333 61 c 1
 340 60 348 60 356 60 c 0
 400 60 446 78 478 109 c 0
 518 146 540 201 540 248 c 0
 540 267 536 285 529 299 c 0
 510 340 471 360 422 360 c 0
 406 360 391 359 376 356 c 0
 320 343 274 313 242 262 c 1
 222 262 l 1
 230 288 241 348 241 414 c 0
 241 443 239 474 233 504 c 0
 224 549 210 578 189 615 c 1
 256 651 l 1
 281 609 294 575 300 523 c 0
 303 492 307 468 307 441 c 0
 307 425 305 406 302 385 c 1
 351 412 400 420 443 420 c 0
 451 420 457 420 464 420 c 0
 556 414 612 353 612 258 c 0
 612 250 610 242 610 235 c 0xb7
299 182 m 0
 297 182 l 0
 265 182 244 153 244 127 c 0
 244 110 254 95 277 95 c 0
 279 95 l 0x7b
 313 95 334 124 334 149 c 0
 334 167 323 182 299 182 c 0
EndSplineSet
EndChar
StartChar: uni0E57
Encoding: 247 3671 211
Width: 611
Flags: W
HStem: -5 56<147 160> 136 53<174 193> 360 57<249 268 463 484>
VStem: 46 78<84 133> 210 55<101 112> 314 54<251 282> 507 65<298 321>
Fore
842 602 m 1
 842 602 l 0
 835 595 765 543 740 452 c 0
 694 291 691 178 589 83 c 0
 518 17 448 -2 360 -2 c 1
 369 9 429 84 461 153 c 0
 480 189 507 258 507 307 c 0
 507 337 495 360 463 360 c 0
 461 360 l 0
 392 360 368 256 368 251 c 1
 311 251 l 1
 311 253 314 267 314 282 c 0
 314 314 305 357 256 360 c 0
 251 360 l 0
 205 360 170 316 147 273 c 0
 126 235 118 192 118 167 c 0
 118 166 118 162 118 161 c 1
 123 166 139 189 193 189 c 0
 236 189 265 155 265 112 c 0
 265 89 258 64 238 40 c 0
 210 6 176 -5 147 -5 c 0
 113 -5 84 9 74 26 c 0
 57 51 46 90 46 133 c 0
 46 193 64 261 104 319 c 0
 146 376 193 417 268 417 c 0
 316 417 345 391 359 351 c 1
 392 395 435 417 484 417 c 0
 544 417 572 371 572 310 c 0
 572 287 569 262 561 236 c 0
 535 139 477 72 472 67 c 1
 490 81 553 98 604 205 c 0
 656 311 644 380 690 487 c 0
 720 563 759 590 769 602 c 1
 842 602 l 1
159 51 m 0
 190 52 210 80 210 103 c 0
 210 121 199 136 176 136 c 0
 175 136 l 0
 143 135 124 107 124 84 c 0
 124 66 135 51 158 51 c 0
 159 51 l 0
EndSplineSet
EndChar
StartChar: uni0E58
Encoding: 248 3672 212
Width: 611
Flags: W
HStem: -2 59<472 481> -2 201<273 481> 84 52<506 520> 219 54<533 543> 345 60<544 571.39> 345 69<371 544> 356 58<356 383>
VStem: 100 66<143 175> 422 59<155 169> 567 60<177.34 192>
Fore
773 610 m 1x19c0
 773 610 l 0
 771 609 769 480 710 409 c 0
 665 357 609 345 544 345 c 0x19c0
 484 345 420 356 356 356 c 0
 270 356 204 308 178 233 c 0
 169 207 166 187 166 170 c 0
 166 124 192 112 192 110 c 0
 192 110 l 0
 193 115 215 193 273 199 c 0
 274 199 277 199 279 199 c 0x53c0
 356 199 399 57 481 57 c 0
 484 57 489 58 492 58 c 0
 515 61 518 83 520 84 c 1
 517 84 512 83 506 83 c 0
 486 83 451 89 432 116 c 0
 425 127 422 141 422 155 c 0
 422 207 466 270 540 273 c 0
 541 273 543 273 546 273 c 0
 604 273 627 235 627 189 c 0
 627 176 625 162 622 150 c 0
 605 74 555 3 481 -2 c 0
 472 -2 l 0xb1c0
 365 -2 307 129 274 129 c 0
 273 129 273 129 271 129 c 0
 250 123 245 86 242 58 c 0
 242 57 242 54 242 52 c 0
 242 31 248 6 251 -2 c 1
 164 5 106 60 100 143 c 0
 100 149 100 153 100 159 c 0
 100 274 190 394 334 411 c 0
 351 412 366 414 383 414 c 0x55c0
 441 414 497 405 544 405 c 0
 576 405 605 408 632 423 c 0
 700 463 702 607 704 610 c 1
 773 610 l 1x19c0
517 136 m 0x31c0
 549 136 567 164 567 187 c 0
 567 204 556 219 533 219 c 0
 501 219 481 192 481 169 c 0
 481 152 492 136 517 136 c 0x31c0
EndSplineSet
EndChar
StartChar: uni0E59
Encoding: 249 3673 213
Width: 611
Flags: W
HStem: -3 21G<228 233> 80 49<276 294> 208 54<309 322> 307 69<578 584> 307 110<490 578> 357 60<306 323>
VStem: 104 69<127 158> 218 50<144 158> 337 55<172 189> 517 62<0 31>
Fore
693 483 m 0xf3c0
 693 483 l 0
 677 412 653 319 592 308 c 0
 587 307 581 307 578 307 c 0xf3c0
 532 307 515 343 498 343 c 0
 497 343 495 342 494 342 c 0
 483 339 480 330 480 316 c 0
 480 290 495 247 513 199 c 0
 547 115 579 32 579 31 c 1
 517 0 l 1
 517 3 484 74 446 176 c 0
 414 268 383 357 311 357 c 0
 307 357 l 0
 236 353 187 256 176 181 c 0
 175 170 173 158 173 146 c 0
 173 98 190 54 239 52 c 0
 241 52 244 52 245 52 c 0
 284 52 300 81 303 84 c 1
 303 84 291 80 276 80 c 0
 261 80 245 83 233 98 c 0
 222 110 218 127 218 144 c 0
 218 181 238 224 268 245 c 0
 284 256 303 262 322 262 c 0
 354 262 383 247 389 216 c 0
 391 207 392 196 392 187 c 0
 392 103 326 0 233 -3 c 0
 228 -3 l 0
 139 -3 104 63 104 141 c 0
 104 166 107 189 113 213 c 0
 133 313 210 415 319 417 c 0
 320 417 320 417 322 417 c 0
 388 417 420 374 429 349 c 1
 437 379 454 412 483 417 c 0xe7c0
 486 417 487 417 490 417 c 0xebc0
 524 417 547 376 578 376 c 0
 579 376 581 376 584 376 c 0
 607 382 618 448 627 495 c 0
 635 544 636 616 638 618 c 1
 710 618 l 1
 708 615 704 532 693 483 c 0xf3c0
294 129 m 0
 296 129 l 0
 322 129 337 155 337 178 c 0
 337 195 330 208 311 208 c 0
 310 208 l 0
 285 207 268 179 268 156 c 0
 268 143 276 129 294 129 c 0
EndSplineSet
EndChar
StartChar: uni0E5A
Encoding: 250 3674 214
Width: 625
Flags: W
HStem: 293 56<266 293> 422 47<237 253> 544 66<578 610> 567 46<266 281>
VStem: 129 67<420 437> 129 79<437 506> 308 49<529 547> 612 76<517 540>
Fore
268 567 m 0xd7
 268 567 l 0
 253 567 242 563 230 552 c 0
 221 544 215 532 210 518 c 0
 208 513 208 510 208 506 c 0
 208 498 212 490 216 483 c 0
 222 475 231 469 247 469 c 0
 262 469 276 474 287 483 c 0
 296 494 303 504 307 518 c 0
 308 523 308 526 308 529 c 0
 308 538 305 546 302 552 c 0
 294 563 284 567 268 567 c 0xd7
535 578 m 0
 535 578 l 0
 556 590 579 610 610 610 c 0
 681 610 688 569 688 550 c 0
 688 544 688 541 688 540 c 0
 688 535 685 510 685 510 c 1
 607 143 l 2
 598 98 564 32 484 6 c 0
 457 -3 449 -3 449 -3 c 1
 429 51 l 1
 429 51 454 54 475 66 c 0
 497 80 520 94 527 115 c 1
 547 208 610 507 610 507 c 0
 610 507 l 0
 610 507 610 507 610 506 c 1
 610 506 612 510 612 517 c 0
 612 529 607 544 578 544 c 0xeb
 559 543 543 536 532 521 c 1
 454 150 l 2
 443 98 422 61 385 37 c 0
 351 12 319 0 290 -2 c 1
 270 52 l 1
 293 52 319 63 346 86 c 0
 363 100 376 121 382 152 c 2
 432 386 l 1
 408 354 385 331 363 316 c 0
 342 300 313 293 271 293 c 0
 213 293 170 313 150 351 c 0
 136 376 129 405 129 437 c 0
 129 455 132 477 136 500 c 1
 147 533 169 559 195 581 c 0
 222 602 250 613 279 613 c 0
 293 613 305 612 314 607 c 0
 333 602 345 592 351 575 c 0
 356 566 357 556 357 547 c 0
 357 540 356 530 354 521 c 0
 348 489 331 463 307 445 c 0
 287 429 264 422 239 422 c 0
 222 422 210 425 196 432 c 1
 196 428 196 422 196 414 c 0xdb
 198 406 198 399 201 389 c 0
 204 382 208 372 216 366 c 0
 224 360 235 356 250 353 c 0
 258 351 265 349 279 349 c 0
 305 349 325 357 342 371 c 0
 365 388 382 406 406 440 c 0
 441 486 449 518 464 584 c 1
 472 605 489 612 503 612 c 0
 513 612 521 609 526 605 c 0
 530 602 535 581 535 578 c 0
463 490 m 1
 461 490 l 0
 461 490 463 490 463 489 c 1
 463 490 l 1
EndSplineSet
EndChar
StartChar: uni0E5B
Encoding: 251 3675 215
Width: 1105
Flags: W
HStem: 48 53<243 262> 181 52<279 295> 239 46<947 1014> 333 47<273 284> 494 53<314 333>
VStem: 86 52<231 257> 198 47<277 291> 282 52<320 323> 403 52<399 419> 547 48<273.059 347.938>
Fore
1110 285 m 0
 1110 285 l 0
 1139 285 1150 285 1151 285 c 1
 1151 285 l 0
 1150 285 1143 253 1142 244 c 1
 1142 244 1131 244 1081 242 c 0
 1010 241 1024 241 1013 241 c 0
 999 241 986 239 949 239 c 0
 944 239 940 239 933 239 c 0
 924 239 912 241 897 251 c 0
 889 258 883 267 883 267 c 1
 878 279 l 1
 871 293 l 1
 783 129 l 1
 771 293 l 1
 671 90 l 1
 659 299 l 1
 579 100 l 1
 553 100 l 1
 547 348 l 1
 520 288 460 169 414 123 c 0
 363 74 308 48 245 48 c 0
 135 48 86 135 86 233 c 0
 86 256 89 279 94 300 c 0
 107 368 136 426 182 474 c 0
 225 521 276 547 328 547 c 0
 415 547 455 490 455 415 c 0
 455 399 454 382 449 363 c 0
 434 285 374 181 279 181 c 0
 248 181 224 196 210 222 c 1
 202 241 198 261 198 277 c 0
 198 285 199 293 201 300 c 0
 210 343 248 380 284 380 c 0
 299 380 313 374 325 357 c 0
 331 346 334 334 334 320 c 0
 334 314 334 308 333 300 c 0
 326 276 310 248 287 233 c 1
 291 233 l 2
 310 233 331 244 353 270 c 0
 374 296 389 328 399 365 c 0
 402 379 403 391 403 403 c 0
 403 455 377 494 316 494 c 0
 287 494 251 477 216 437 c 0
 178 399 156 353 144 299 c 0
 141 279 138 262 138 245 c 0
 138 212 146 182 161 158 c 0
 185 120 216 101 256 101 c 0
 328 101 377 144 415 205 c 0
 463 282 538 443 570 506 c 1
 595 506 l 1
 599 273 l 1
 677 463 l 1
 704 463 l 1
 711 274 l 1
 803 461 l 1
 819 290 l 1
 884 417 l 1
 895 380 924 285 950 285 c 0
 979 285 995 284 1012 284 c 0
 1058 285 1088 285 1110 285 c 0
282 323 m 0
 282 330 279 333 273 333 c 0
 262 333 251 307 247 299 c 1
 247 294 245 290 245 287 c 0
 245 271 251 268 259 268 c 0
 262 268 265 268 271 276 c 0
 277 284 281 291 284 300 c 0
 284 303 285 308 285 311 c 0
 285 314 284 319 282 323 c 0
EndSplineSet
EndChar
StartChar: uni0E38.low
Encoding: 252 63256 216
Width: 0
Flags: W
HStem: -475 41<-302 -289> -354 43<-276 -265>
VStem: -369 46<-414 -397> -242 47<-387 -374>
Fore
-242 -605 m 1
 -299 -605 l 1
 -270 -471 l 1
 -270 -471 -284 -475 -302 -475 c 0
 -313 -475 -326 -474 -337 -468 c 0
 -357 -458 -369 -438 -369 -414 c 0
 -369 -403 -368 -391 -363 -379 c 0
 -348 -337 -308 -311 -265 -311 c 0
 -213 -311 -195 -340 -195 -374 c 0
 -195 -383 -196 -391 -198 -399 c 2
 -242 -605 l 1
-291 -434 m 0
 -261 -434 -242 -408 -242 -385 c 0
 -242 -368 -253 -354 -274 -354 c 0
 -305 -354 -323 -380 -323 -403 c 0
 -323 -420 -314 -434 -291 -434 c 0
EndSplineSet
EndChar
StartChar: uni0E39.low
Encoding: 253 63257 217
Width: 0
Flags: W
HStem: -553 47<-353 -305> -455 47<-432 -416> -340 47<-408 -394>
VStem: -497 49<-394 -380> -379 57<-368 -354>
Fore
-320 -506 m 1
 -320 -506 l 1
 -320 -506 -317 -506 -307 -506 c 0
 -290 -506 -288 -498 -285 -481 c 0
 -284 -478 -245 -297 -245 -297 c 1
 -181 -297 l 1
 -181 -297 -222 -487 -222 -492 c 0
 -230 -524 -241 -553 -271 -553 c 0
 -294 -553 -336 -553 -336 -553 c 1
 -425 -553 l 1
 -402 -451 l 1
 -402 -451 -415 -455 -432 -455 c 0
 -441 -455 -452 -454 -463 -449 c 0
 -484 -440 -497 -420 -497 -394 c 0
 -497 -383 -495 -372 -490 -360 c 0
 -475 -319 -435 -293 -394 -293 c 0
 -343 -293 -322 -320 -322 -354 c 0
 -322 -362 -323 -371 -325 -379 c 1
 -353 -506 l 1
 -320 -506 l 1
-422 -408 m 0
 -395 -408 -379 -385 -379 -366 c 0
 -379 -353 -386 -340 -406 -340 c 0
 -432 -340 -448 -363 -448 -382 c 0
 -448 -395 -440 -408 -422 -408 c 0
EndSplineSet
EndChar
StartChar: uni0E3A.low
Encoding: 254 63258 218
Width: 0
Flags: W
Fore
-189 -385 m 0
 -215 -385 -227 -368 -227 -348 c 0
 -227 -320 -205 -288 -169 -288 c 0
 -141 -288 -129 -305 -129 -325 c 0
 -129 -353 -152 -385 -189 -385 c 0
EndSplineSet
EndChar
StartChar: DEL
Encoding: 255 63259 219
Width: 0
VWidth: 2048
Flags: W
HStem: 0 21G<-460 0>
Fore
-297 766 m 1
 162 766 l 1
 0 0 l 1
 -460 0 l 1
 -297 766 l 1
EndSplineSet
EndChar
StartChar: exclamdown
Encoding: 256 161 220
Width: 332
VWidth: 2048
Flags: W
Fore
328 518 m 1
 307 418 l 1
 205 418 l 1
 227 518 l 1
 328 518 l 1
267 340 m 1
 215 -38 l 1
 181 -198 l 1
 71 -198 l 1
 104 -38 l 1
 210 340 l 1
 267 340 l 1
EndSplineSet
EndChar
StartChar: cent
Encoding: 257 162 221
Width: 554
VWidth: 2048
Flags: W
HStem: -14 72<284 299> 460 70<371 409>
VStem: 97 92<168 192>
Fore
457 437 m 1
 270 63 l 1
 277 60 288 58 297 58 c 0
 372 58 426 103 457 190 c 1
 544 181 l 1
 521 123 487 77 441 41 c 0
 394 5 340 -14 284 -14 c 0
 264 -14 250 -11 235 -6 c 1
 135 -199 l 1
 84 -184 l 1
 181 11 l 1
 124 43 97 98 97 173 c 0
 97 199 100 227 106 256 c 0
 124 336 155 399 202 448 c 0
 256 503 320 530 395 530 c 0
 411 530 425 529 443 527 c 1
 538 716 l 1
 589 700 l 1
 494 510 l 1
 549 487 573 441 573 372 c 0
 573 371 573 368 573 366 c 1
 486 353 l 1
 484 389 475 417 457 437 c 1
409 460 m 1
 386 460 l 2
 385 460 382 460 380 460 c 0
 287 460 227 394 198 261 c 0
 192 230 189 204 189 179 c 0
 189 138 199 106 221 87 c 1
 409 460 l 1
EndSplineSet
EndChar
StartChar: sterling
Encoding: 258 163 222
Width: 554
VWidth: 2048
Flags: W
HStem: -12 84<406 424> 32 72<201 222> 322 73<105 187 277 417> 656 72<422 450>
VStem: 178 95<433 483> 536 89<543 563>
Fore
277 395 m 1x7c
 432 395 l 1
 417 322 l 1
 277 322 l 1
 279 316 279 310 279 302 c 0
 279 294 279 288 277 281 c 0
 264 218 221 155 150 94 c 1
 179 101 202 104 222 104 c 0x7c
 251 104 281 100 313 92 c 0
 365 78 402 72 422 72 c 0
 446 72 478 81 521 98 c 1
 533 18 l 1
 480 -2 437 -12 408 -12 c 0xbc
 388 -12 376 -11 366 -8 c 2
 307 9 l 1
 247 28 l 1
 228 31 213 32 201 32 c 0
 149 32 97 17 44 -14 c 1
 29 71 l 1
 113 113 164 178 181 262 c 0
 185 279 185 299 187 322 c 1
 90 322 l 1
 106 395 l 1
 181 395 l 1
 178 418 178 438 178 457 c 0
 178 483 179 506 184 524 c 0
 196 587 228 638 281 674 c 0
 328 710 385 728 448 728 c 0
 567 728 625 673 625 559 c 0
 625 555 625 549 625 543 c 1
 536 530 l 1
 536 533 536 538 536 541 c 0
 536 618 503 656 431 656 c 0
 397 656 365 645 334 622 c 0
 305 599 287 572 279 536 c 0
 276 518 273 494 273 468 c 0
 273 446 274 422 277 395 c 1x7c
EndSplineSet
EndChar
StartChar: currency
Encoding: 259 164 223
Width: 554
VWidth: 2048
Flags: W
HStem: 147 80<305 325> 481 80<375 395>
VStem: 139 82<311 328> 480 83<381 399>
Fore
204 469 m 1
 149 536 l 1
 218 595 l 1
 271 526 l 1
 311 550 354 561 395 561 c 0
 438 561 474 550 503 526 c 1
 586 595 l 1
 630 536 l 1
 547 469 l 1
 558 446 563 423 563 399 c 0
 563 385 561 369 558 354 c 0
 549 313 530 274 498 239 c 1
 553 173 l 1
 484 115 l 1
 431 184 l 1
 391 159 349 147 307 147 c 0
 264 147 228 159 199 184 c 1
 116 115 l 1
 72 173 l 1
 155 239 l 1
 144 262 139 287 139 313 c 0
 139 326 141 340 144 354 c 0
 153 395 173 434 204 469 c 1
224 354 m 0
 222 345 221 334 221 326 c 0
 221 302 228 282 242 264 c 0
 261 239 287 227 323 227 c 0
 359 227 392 239 423 264 c 0
 451 288 469 319 477 354 c 0
 478 365 480 374 480 383 c 0
 480 406 474 428 460 445 c 0
 440 469 412 481 379 481 c 0
 343 481 310 469 281 445 c 0
 250 420 231 391 224 354 c 0
EndSplineSet
EndChar
StartChar: yen
Encoding: 260 165 224
Width: 554
VWidth: 2048
Flags: W
HStem: 0 21G<233 320> 159 68<77 267 368 556> 296 73<108 296 434 586>
Fore
233 0 m 1
 267 159 l 1
 64 159 l 1
 78 227 l 1
 281 227 l 1
 296 296 l 1
 94 296 l 1
 109 369 l 1
 274 369 l 1
 150 716 l 1
 248 716 l 1
 336 464 l 2
 343 441 351 417 357 389 c 1
 371 411 391 437 415 469 c 2
 601 716 l 1
 705 716 l 1
 434 369 l 1
 601 369 l 1
 586 296 l 1
 383 296 l 1
 368 227 l 1
 570 227 l 1
 556 159 l 1
 354 159 l 1
 320 0 l 1
 233 0 l 1
EndSplineSet
EndChar
StartChar: brokenbar
Encoding: 261 166 225
Width: 259
VWidth: 2048
Flags: W
Fore
323 728 m 1
 242 343 l 1
 166 343 l 1
 247 728 l 1
 323 728 l 1
205 176 m 1
 124 -210 l 1
 48 -210 l 1
 129 176 l 1
 205 176 l 1
EndSplineSet
EndChar
StartChar: section
Encoding: 262 167 226
Width: 554
VWidth: 2048
Flags: W
HStem: -210 74<236 256> 656 72<410 422>
VStem: 61 92<-47 -26> 104 83<284 311> 207 86<546 569> 379 92<-52 -20>
Fore
61 -34 m 1xec
 153 -21 l 1
 153 -26 l 0xec
 153 -100 187 -136 254 -136 c 0
 282 -136 307 -129 330 -115 c 0
 356 -100 372 -78 379 -52 c 0
 379 -49 380 -44 380 -41 c 0
 380 -15 360 14 323 46 c 0
 316 54 284 75 230 115 c 0
 184 147 153 173 136 195 c 0
 115 222 104 251 104 284 c 0xdc
 104 293 106 303 107 314 c 0
 121 385 169 431 247 452 c 1
 219 483 207 513 207 546 c 0
 207 556 208 566 210 575 c 0
 219 621 245 659 288 688 c 0
 328 714 371 728 420 728 c 0
 533 728 589 677 589 579 c 0
 589 573 589 566 589 559 c 1
 495 549 l 1
 495 552 495 556 495 559 c 0
 495 624 468 656 412 656 c 0
 388 656 363 650 340 638 c 0
 316 621 300 602 294 578 c 0
 294 575 293 572 293 569 c 0
 293 544 310 517 343 487 c 0
 349 481 379 460 431 425 c 0
 478 389 510 363 527 346 c 0
 550 319 561 290 561 258 c 0
 561 248 559 238 558 227 c 0
 546 166 498 118 418 87 c 1
 454 55 471 20 471 -20 c 0
 471 -29 469 -40 468 -51 c 0
 457 -101 426 -141 380 -170 c 0
 339 -198 291 -210 239 -210 c 0
 120 -210 61 -156 61 -46 c 0
 61 -43 61 -38 61 -34 c 1xec
382 120 m 1
 434 144 464 175 472 210 c 0
 474 215 474 218 474 222 c 0
 474 259 437 303 366 351 c 0
 331 376 302 399 281 418 c 1
 227 392 196 360 189 323 c 0
 187 319 187 316 187 311 c 0xdc
 187 276 218 236 284 192 c 0
 328 161 362 136 382 120 c 1
EndSplineSet
EndChar
StartChar: dieresis
Encoding: 263 168 227
Width: 332
VWidth: 2048
Flags: W
HStem: 621 99<183 254 364 435>
Fore
162 621 m 1
 184 720 l 1
 276 720 l 1
 254 621 l 1
 162 621 l 1
343 621 m 1
 365 720 l 1
 457 720 l 1
 435 621 l 1
 343 621 l 1
EndSplineSet
EndChar
StartChar: copyright
Encoding: 264 169 228
Width: 735
VWidth: 2048
Flags: W
HStem: -9 61<356 390> 149 56<401 422> 512 55<479 499> 668 60<495 534>
VStem: 69 63<274 303> 247 66<280 312> 762 63<422 445>
Fore
526 728 m 0
 628 728 708 693 765 622 c 0
 805 570 825 510 825 443 c 0
 825 415 822 388 815 359 c 0
 794 258 740 170 653 98 c 0
 566 26 471 -9 369 -9 c 0
 267 -9 187 26 130 98 c 0
 89 150 69 208 69 276 c 0
 69 302 72 330 78 359 c 0
 100 463 155 552 239 622 c 0
 326 693 422 728 526 728 c 0
513 668 m 0
 428 668 346 638 274 578 c 0
 202 518 158 445 139 359 c 0
 135 334 132 311 132 288 c 0
 132 233 149 184 182 141 c 0
 228 81 294 52 382 52 c 0
 468 52 546 81 619 141 c 0
 691 201 736 273 754 359 c 0
 759 382 762 405 762 426 c 0
 762 483 743 533 710 576 c 0
 662 638 598 668 513 668 c 0
553 300 m 1
 609 282 l 1
 566 193 498 149 403 149 c 0
 342 149 296 169 271 208 c 0
 254 231 247 261 247 294 c 0
 247 314 250 336 254 359 c 0
 267 422 294 472 339 510 c 0
 380 547 434 567 497 567 c 0
 582 567 628 529 636 451 c 1
 576 437 l 1
 566 487 533 512 481 512 c 0
 438 512 403 497 372 464 c 0
 348 437 330 402 320 357 c 0
 316 336 313 316 313 299 c 0
 313 236 346 205 411 205 c 0
 474 205 523 238 553 300 c 1
EndSplineSet
EndChar
StartChar: ordfeminine
Encoding: 265 170 229
Width: 369
VWidth: 2048
Flags: W
HStem: 365 58<221 250> 671 57<324 342>
VStem: 120 73<441 462> 356 66<396 417> 391 73<621 641>
Fore
357 417 m 1xf0
 310 382 265 365 221 365 c 0
 153 365 120 389 120 441 c 0
 120 451 120 461 123 472 c 0
 133 518 162 549 213 566 c 1
 265 576 l 1
 339 587 l 1
 388 596 l 1
 389 605 391 613 391 621 c 0
 391 655 369 671 326 671 c 0
 279 671 247 651 233 610 c 1
 169 627 l 1
 195 694 253 728 340 728 c 0
 423 728 464 699 464 641 c 0xe8
 464 632 463 621 461 610 c 1
 429 463 l 1
 425 443 422 426 422 411 c 0
 422 395 425 382 431 374 c 1
 359 374 l 1
 356 382 356 389 356 397 c 0
 356 403 356 411 357 417 c 1xf0
376 540 m 1
 342 533 308 529 273 523 c 1
 227 512 201 495 195 472 c 0
 193 468 193 464 193 460 c 0
 193 435 212 423 250 423 c 0
 317 423 359 461 376 540 c 1
EndSplineSet
EndChar
StartChar: guillemotleft
Encoding: 266 171 230
Width: 554
VWidth: 2048
Flags: W
Fore
221 258 m 1
 300 35 l 1
 230 35 l 1
 120 258 l 1
 325 480 l 1
 395 480 l 1
 221 258 l 1
411 258 m 1
 492 35 l 1
 418 35 l 1
 311 258 l 1
 513 480 l 1
 587 480 l 1
 411 258 l 1
EndSplineSet
EndChar
StartChar: logicalnot
Encoding: 267 172 231
Width: 583
VWidth: 2048
Flags: W
HStem: 422 81<161 535>
Fore
573 207 m 1
 490 207 l 1
 535 422 l 1
 144 422 l 1
 162 503 l 1
 636 503 l 1
 573 207 l 1
EndSplineSet
EndChar
StartChar: minus
Encoding: 268 173 232
AltUni: 8722
Width: 332
VWidth: 2048
Flags: W
HStem: 215 88<96 348>
Fore
78 215 m 1
 97 303 l 1
 366 303 l 1
 348 215 l 1
 78 215 l 1
EndSplineSet
EndChar
StartChar: registered
Encoding: 269 174 233
Width: 735
VWidth: 2048
Flags: W
HStem: -9 61<354 390> 498 54<326 474> 668 60<495 534>
VStem: 69 63<274 296> 543 69<451 471> 762 63<422 449>
Fore
526 728 m 0
 628 728 708 693 765 622 c 0
 805 570 825 510 825 443 c 0
 825 415 822 388 815 359 c 0
 794 258 740 170 653 98 c 0
 566 26 471 -9 369 -9 c 0
 267 -9 187 26 130 98 c 0
 89 150 69 208 69 276 c 0
 69 302 72 330 78 359 c 0
 100 463 155 552 239 622 c 0
 326 693 422 728 526 728 c 0
513 668 m 0
 428 668 346 638 274 578 c 0
 202 518 158 445 139 359 c 0
 135 334 132 311 132 288 c 0
 132 233 149 184 182 141 c 0
 228 81 294 52 382 52 c 0
 468 52 546 81 619 141 c 0
 691 201 736 273 754 359 c 0
 759 382 762 405 762 426 c 0
 762 483 743 533 710 576 c 0
 662 638 598 668 513 668 c 0
242 156 m 1
 326 552 l 1
 463 552 l 2
 563 552 612 524 612 471 c 0
 612 463 610 455 609 446 c 0
 601 414 586 388 558 366 c 0
 533 348 506 336 472 333 c 1
 495 325 520 293 543 233 c 2
 576 156 l 1
 497 156 l 1
 474 219 l 2
 461 256 452 281 445 290 c 0
 429 313 408 323 379 323 c 2
 342 323 l 1
 307 156 l 1
 242 156 l 1
354 379 m 1
 432 379 l 2
 497 379 532 399 541 440 c 0
 543 445 543 448 543 451 c 0
 543 481 512 498 451 498 c 2
 379 498 l 1
 354 379 l 1
EndSplineSet
EndChar
StartChar: macron
Encoding: 270 175 234
AltUni: 713
Width: 551
VWidth: 2048
Flags: W
HStem: 765 63<160 730>
Fore
147 765 m 1
 161 828 l 1
 743 828 l 1
 730 765 l 1
 147 765 l 1
EndSplineSet
EndChar
StartChar: degree
Encoding: 271 176 235
Width: 400
VWidth: 2048
Flags: W
HStem: 457 53<293 309> 676 52<340 355>
VStem: 185 56<561 575> 408 55<610 622>
Fore
189 593 m 0
 196 630 218 662 248 688 c 0
 281 716 314 728 353 728 c 0
 391 728 420 716 440 688 c 0
 455 670 463 647 463 622 c 0
 463 613 461 604 460 593 c 0
 452 555 431 523 400 497 c 0
 366 471 331 457 294 457 c 0
 256 457 228 471 208 497 c 0
 193 515 185 538 185 563 c 0
 185 573 187 582 189 593 c 0
242 593 m 0
 241 587 241 579 241 573 c 0
 241 559 244 546 253 535 c 0
 267 518 284 510 307 510 c 0
 330 510 351 518 369 535 c 0
 391 552 402 570 406 593 c 0
 408 599 408 605 408 612 c 0
 408 625 403 639 394 651 c 0
 383 668 365 676 342 676 c 0
 319 676 299 668 277 651 c 0
 259 635 247 616 242 593 c 0
EndSplineSet
EndChar
StartChar: plusminus
Encoding: 272 177 236
Width: 548
VWidth: 2048
Flags: W
HStem: 0 83<54 510> 323 83<123 302 402 579>
Fore
261 127 m 1
 302 323 l 1
 107 323 l 1
 124 406 l 1
 319 406 l 1
 360 601 l 1
 443 601 l 1
 402 406 l 1
 596 406 l 1
 579 323 l 1
 385 323 l 1
 343 127 l 1
 261 127 l 1
510 0 m 1
 38 0 l 1
 55 83 l 1
 527 83 l 1
 510 0 l 1
EndSplineSet
EndChar
StartChar: twosuperior
Encoding: 273 178 237
Width: 332
VWidth: 2048
Flags: W
HStem: 357 60<216 394> 668 57<311 330>
VStem: 369 82<628 650>
Fore
89 357 m 1
 100 399 152 448 242 506 c 0
 288 535 313 550 316 552 c 0
 346 575 365 596 368 613 c 0
 369 619 369 624 369 628 c 0
 369 655 351 668 313 668 c 0
 273 668 244 648 227 612 c 1
 155 619 l 1
 187 690 245 725 326 725 c 0
 409 725 451 699 451 650 c 0
 451 642 449 635 448 625 c 0
 440 593 418 561 383 532 c 0
 368 518 336 497 284 464 c 0
 256 448 233 431 216 417 c 1
 406 417 l 1
 394 357 l 1
 89 357 l 1
EndSplineSet
EndChar
StartChar: threesuperior
Encoding: 274 179 238
Width: 332
VWidth: 2048
Flags: W
HStem: 349 57<239 260> 526 50<268 275> 671 54<304 321>
VStem: 340 77<484 494> 357 78<635 656>
Fore
113 454 m 1xf0
 185 461 l 1
 189 425 210 406 248 406 c 0
 299 406 330 428 339 472 c 0
 340 477 340 481 340 484 c 0xf0
 340 512 319 526 273 526 c 1
 258 524 l 1
 247 524 l 1
 268 576 l 1
 319 576 348 593 356 627 c 0
 357 632 357 635 357 638 c 0
 357 659 340 671 307 671 c 0
 271 671 245 655 227 621 c 1
 159 633 l 1
 193 694 248 725 319 725 c 0
 399 725 435 702 435 656 c 0xe8
 435 648 435 642 434 635 c 0
 426 596 397 569 349 555 c 1
 394 543 417 520 417 484 c 0
 417 477 415 469 414 461 c 0
 406 425 383 395 346 376 c 0
 316 359 279 349 241 349 c 0
 155 349 113 383 113 451 c 0
 113 451 113 452 113 454 c 1xf0
EndSplineSet
EndChar
StartChar: acute
Encoding: 275 180 239
Width: 332
VWidth: 2048
Flags: W
Fore
233 582 m 1
 326 720 l 1
 441 720 l 1
 305 582 l 1
 233 582 l 1
EndSplineSet
EndChar
StartChar: mu
Encoding: 276 181 240
AltUni: 956
Width: 574
VWidth: 2048
Flags: W
HStem: -12 79<283 301>
Fore
607 518 m 1
 497 0 l 1
 418 0 l 1
 432 61 l 1
 392 12 343 -12 285 -12 c 0
 236 -12 199 9 176 52 c 1
 123 -199 l 1
 35 -199 l 1
 189 518 l 1
 276 518 l 1
 228 299 l 2
 216 239 208 193 208 164 c 0
 208 158 210 153 210 149 c 0
 215 95 244 67 299 67 c 0
 354 67 399 94 426 147 c 0
 443 176 458 227 474 297 c 2
 521 518 l 1
 607 518 l 1
EndSplineSet
EndChar
StartChar: paragraph
Encoding: 277 182 241
Width: 536
VWidth: 2048
Flags: W
HStem: 632 84<383 523 383 676>
Fore
155 -199 m 1
 264 311 l 1
 205 311 164 330 135 368 c 0
 113 394 104 426 104 463 c 0
 104 478 106 494 109 510 c 0
 123 578 156 630 207 667 c 0
 254 699 313 716 383 716 c 2
 693 716 l 1
 676 632 l 1
 605 632 l 1
 428 -199 l 1
 345 -199 l 1
 523 632 l 1
 414 632 l 1
 236 -199 l 1
 155 -199 l 1
EndSplineSet
EndChar
StartChar: periodcentered
Encoding: 278 183 242
AltUni: 8729
Width: 277
VWidth: 2048
Flags: W
Fore
155 302 m 1
 176 403 l 1
 277 403 l 1
 256 302 l 1
 155 302 l 1
EndSplineSet
EndChar
StartChar: cedilla
Encoding: 279 184 243
Width: 332
VWidth: 2048
Flags: W
HStem: -205 61<28 92>
VStem: 159 82<-108 -97>
Fore
90 -75 m 1
 132 11 l 1
 198 11 l 1
 172 -41 l 1
 218 -46 241 -64 241 -97 c 0
 241 -101 241 -107 239 -113 c 0
 233 -146 210 -170 175 -187 c 0
 146 -199 115 -205 80 -205 c 0
 54 -205 31 -204 9 -199 c 1
 28 -143 l 1
 72 -144 l 2
 81 -144 l 0
 129 -144 155 -132 159 -107 c 0
 159 -103 l 0
 159 -84 136 -75 90 -75 c 1
EndSplineSet
EndChar
StartChar: onesuperior
Encoding: 280 185 244
Width: 332
VWidth: 2048
Flags: W
Fore
238 357 m 1
 294 628 l 1
 259 604 218 586 173 573 c 1
 187 635 l 1
 239 651 288 681 334 725 c 1
 388 725 l 1
 310 357 l 1
 238 357 l 1
EndSplineSet
EndChar
StartChar: ordmasculine
Encoding: 281 186 245
Width: 364
VWidth: 2048
Flags: W
HStem: 362 64<258 275> 664 64<321 339>
VStem: 130 75<489 507> 392 72<585 603>
Fore
337 728 m 0
 389 728 425 710 448 674 c 0
 458 653 464 628 464 601 c 0
 464 582 463 564 458 544 c 0
 448 492 425 449 392 415 c 0
 356 380 311 362 259 362 c 0
 208 362 173 379 152 415 c 0
 138 437 130 463 130 492 c 0
 130 507 133 524 136 543 c 0
 149 596 172 639 204 673 c 0
 241 710 285 728 337 728 c 0
323 664 m 0
 265 664 228 624 210 544 c 0
 207 527 205 512 205 500 c 0
 205 451 227 426 273 426 c 0
 331 426 369 466 386 547 c 0
 389 564 392 579 392 593 c 0
 392 639 369 664 323 664 c 0
EndSplineSet
EndChar
StartChar: guillemotright
Encoding: 282 187 246
Width: 554
VWidth: 2048
Flags: W
Fore
441 258 m 1
 362 480 l 1
 434 480 l 1
 543 258 l 1
 339 35 l 1
 267 35 l 1
 441 258 l 1
253 258 m 1
 170 480 l 1
 245 480 l 1
 351 258 l 1
 150 35 l 1
 75 35 l 1
 253 258 l 1
EndSplineSet
EndChar
StartChar: onequarter
Encoding: 283 188 247
Width: 833
VWidth: 2048
Flags: W
HStem: -15 128<610 765> 60 53<610 711 792 832>
Fore
116 -28 m 1x00
 817 728 l 1
 892 728 l 1
 193 -28 l 1
 116 -28 l 1x00
238 357 m 1
 294 628 l 1
 259 604 218 586 173 573 c 1
 187 635 l 1
 239 651 288 681 334 725 c 1
 388 725 l 1
 310 357 l 1
 238 357 l 1
696 -15 m 1x80
 711 60 l 1
 523 60 l 1
 536 121 l 1
 785 351 l 1
 843 351 l 1
 792 113 l 1
 845 113 l 1
 832 60 l 1
 780 60 l 1x40
 765 -15 l 1
 696 -15 l 1x80
723 113 m 1x80
 750 241 l 1
 610 113 l 1
 723 113 l 1x80
EndSplineSet
EndChar
StartChar: onehalf
Encoding: 284 189 248
Width: 833
VWidth: 2048
Flags: W
HStem: -15 59<638 814> 293 58<729 748>
VStem: 789 83<256 276>
Fore
106 -28 m 1
 803 728 l 1
 881 728 l 1
 182 -28 l 1
 106 -28 l 1
238 357 m 1
 294 628 l 1
 259 604 218 586 173 573 c 1
 187 635 l 1
 239 651 288 681 334 725 c 1
 388 725 l 1
 310 357 l 1
 238 357 l 1
509 -15 m 1
 517 25 569 74 664 133 c 0
 742 182 783 218 788 241 c 0
 789 247 789 251 789 256 c 0
 789 281 773 293 734 293 c 0
 696 293 667 276 647 239 c 1
 575 245 l 1
 609 316 665 351 746 351 c 0
 831 351 872 326 872 276 c 0
 872 270 871 262 869 253 c 0
 863 221 840 189 805 158 c 0
 788 144 754 121 707 90 c 0
 676 71 653 55 638 44 c 1
 826 44 l 1
 814 -15 l 1
 509 -15 l 1
EndSplineSet
EndChar
StartChar: threequarters
Encoding: 285 190 249
Width: 833
VWidth: 2048
Flags: W
HStem: -15 128<610 765> 60 53<610 711 792 832> 349 57<239 258> 526 50<268 283> 671 54<304 321>
VStem: 340 77<473 489> 357 78<635 656>
Fore
116 -28 m 1x38
 815 728 l 1
 892 728 l 1
 193 -28 l 1
 116 -28 l 1x38
113 454 m 1
 185 461 l 1
 189 425 210 406 248 406 c 0
 299 406 330 428 339 472 c 0
 340 478 340 483 340 487 c 0x3c
 340 513 320 526 281 526 c 0
 279 526 276 526 274 526 c 2
 247 524 l 1
 268 576 l 1
 319 576 348 593 356 627 c 0
 357 632 357 635 357 638 c 0
 357 659 340 671 307 671 c 0
 271 671 245 655 227 621 c 1
 159 633 l 1
 193 694 248 725 319 725 c 0
 399 725 435 702 435 656 c 0x3a
 435 648 435 642 434 635 c 0
 426 596 397 569 349 555 c 1
 394 543 417 520 417 484 c 0x3c
 417 477 415 469 414 461 c 0
 406 425 383 395 346 376 c 0
 316 359 279 349 241 349 c 0
 155 349 113 383 113 451 c 0
 113 451 113 452 113 454 c 1
696 -15 m 1xb8
 711 60 l 1
 523 60 l 1
 536 121 l 1
 783 351 l 1
 843 351 l 1
 792 113 l 1
 845 113 l 1
 832 60 l 1
 780 60 l 1x78
 765 -15 l 1
 696 -15 l 1xb8
723 113 m 1xb8
 750 241 l 1
 610 113 l 1
 723 113 l 1xb8
EndSplineSet
EndChar
StartChar: questiondown
Encoding: 286 191 250
Width: 610
VWidth: 2048
Flags: W
HStem: -210 74<260 279>
VStem: 69 93<-55 -34>
Fore
468 518 m 1
 446 418 l 1
 346 418 l 1
 368 518 l 1
 468 518 l 1
426 343 m 1
 420 317 l 2
 409 268 392 230 366 198 c 0
 348 175 313 146 264 109 c 0
 205 66 173 28 166 -8 c 0
 164 -17 162 -26 162 -34 c 0
 162 -60 172 -81 187 -100 c 0
 212 -124 241 -136 277 -136 c 0
 357 -136 415 -89 451 8 c 1
 540 -3 l 1
 489 -141 399 -210 264 -210 c 0
 201 -210 150 -193 115 -159 c 0
 84 -132 69 -98 69 -55 c 0
 69 -41 71 -28 74 -14 c 0
 86 44 136 106 221 169 c 0
 264 199 290 225 305 244 c 0
 319 265 331 297 342 343 c 1
 426 343 l 1
EndSplineSet
EndChar
StartChar: AE
Encoding: 293 198 257
Width: 999
VWidth: 2048
Flags: W
HStem: 0 84<592 946> 207 83<302 523> 326 86<661 976> 632 84<497 613 497 1067>
Fore
0 0 m 1
 497 716 l 1
 1084 716 l 1
 1067 632 l 1
 708 632 l 1
 661 412 l 1
 995 412 l 1
 976 326 l 1
 642 326 l 1
 592 84 l 1
 964 84 l 1
 946 0 l 1
 478 0 l 1
 523 207 l 1
 245 207 l 1
 103 0 l 1
 0 0 l 1
302 290 m 1
 540 290 l 1
 613 632 l 1
 541 632 l 1
 302 290 l 1
EndSplineSet
EndChar
StartChar: Eth
Encoding: 303 208 267
Width: 721
VWidth: 2048
Flags: W
HStem: 0 84<190 356> 325 66<80 146 254 438> 632 84<228 484>
VStem: 661 98<447 481>
CounterMasks: 1 00
Fore
77 0 m 1
 146 325 l 1
 67 325 l 1
 81 391 l 1
 159 391 l 1
 228 716 l 1
 475 716 l 2
 550 716 605 708 644 691 c 0
 690 670 723 632 743 575 c 0
 754 546 759 512 759 474 c 0
 759 440 756 403 746 362 c 0
 696 121 558 0 336 0 c 2
 77 0 l 1
190 84 m 1
 343 84 l 2
 399 84 443 92 475 104 c 0
 517 121 552 152 582 196 c 0
 612 241 635 296 648 363 c 0
 656 402 661 435 661 466 c 0
 661 535 639 582 595 607 c 0
 567 624 520 632 457 632 c 2
 307 632 l 1
 254 391 l 1
 452 391 l 1
 438 325 l 1
 241 325 l 1
 190 84 l 1
EndSplineSet
EndChar
StartChar: multiply
Encoding: 310 215 274
Width: 583
VWidth: 2048
Flags: W
Fore
121 199 m 1
 308 354 l 1
 187 507 l 1
 259 567 l 1
 379 414 l 1
 566 566 l 1
 612 507 l 1
 426 354 l 1
 547 201 l 1
 477 141 l 1
 354 294 l 1
 169 141 l 1
 121 199 l 1
EndSplineSet
EndChar
StartChar: Oslash
Encoding: 311 216 275
Width: 777
VWidth: 2048
Flags: W
HStem: -12 81<386 412> 647 81<522 548>
VStem: 112 100<258 292> 719 98<434 453>
Fore
748 650 m 1
 851 742 l 1
 889 702 l 1
 783 605 l 1
 806 558 817 506 817 451 c 0
 817 422 814 389 808 357 c 0
 785 250 737 162 662 95 c 0
 586 23 494 -12 388 -12 c 0
 311 -12 244 12 184 63 c 1
 83 -29 l 1
 43 12 l 1
 150 109 l 1
 126 162 112 218 112 274 c 0
 112 300 115 328 121 356 c 0
 144 464 195 552 268 621 c 0
 346 693 440 728 546 728 c 0
 627 728 693 702 748 650 c 1
676 584 m 1
 635 627 586 647 529 647 c 0
 446 647 379 619 322 561 c 0
 273 510 238 441 221 357 c 0
 215 328 212 300 212 273 c 0
 212 239 216 207 225 176 c 1
 676 584 l 1
705 535 m 1
 256 127 l 1
 296 89 345 69 403 69 c 0
 483 69 550 98 605 155 c 0
 658 207 693 274 710 356 c 0
 716 385 719 414 719 441 c 0
 719 474 714 506 705 535 c 1
EndSplineSet
EndChar
StartChar: Thorn
Encoding: 317 222 281
Width: 666
VWidth: 2048
Flags: W
HStem: 0 21G<77 172> 146 84<221 414> 486 84<293 478> 486 230<228 458>
VStem: 607 100<397 422>
Fore
77 0 m 1xe8
 228 716 l 1
 323 716 l 1xd8
 293 570 l 1
 469 570 l 2
 555 570 616 558 655 532 c 0
 690 509 707 471 707 422 c 0
 707 403 705 385 700 363 c 0
 670 218 564 146 386 146 c 2
 202 146 l 1
 172 0 l 1
 77 0 l 1xe8
221 230 m 1
 406 230 l 2
 518 230 584 273 602 360 c 0
 605 374 607 385 607 397 c 0
 607 426 596 449 573 463 c 0
 550 478 512 486 458 486 c 2xe8
 274 486 l 1
 221 230 l 1
EndSplineSet
EndChar
StartChar: germandbls
Encoding: 318 223 282
Width: 610
VWidth: 2048
Flags: W
HStem: -12 72<399 414> 656 72<411 438>
VStem: 379 95<357 383> 503 90<595 616> 523 93<156 189>
Fore
75 0 m 1xf0
 179 487 l 2
 213 648 299 728 438 728 c 0
 484 728 523 717 552 694 c 0
 579 674 593 648 593 616 c 0xf0
 593 607 592 598 590 589 c 0
 584 563 561 523 524 471 c 2
 484 415 l 2
 480 409 475 400 474 389 c 0
 474 388 474 386 474 383 c 0
 474 366 490 342 524 311 c 0
 572 268 599 244 604 235 c 0
 612 221 616 205 616 189 c 0
 616 178 615 166 612 153 c 0
 601 104 576 64 532 32 c 0
 492 3 448 -12 399 -12 c 0
 317 -12 268 28 247 106 c 1
 331 141 l 1
 345 87 372 60 412 60 c 0
 437 60 460 67 481 84 c 0
 503 101 517 121 521 146 c 0
 523 149 523 153 523 156 c 0xe8
 523 181 506 207 471 235 c 0
 435 262 414 281 406 293 c 0
 386 314 379 336 379 357 c 0
 379 363 379 369 380 376 c 0
 385 399 405 432 440 478 c 0
 478 524 497 558 501 579 c 0
 503 586 503 590 503 595 c 0
 503 612 495 625 481 638 c 0
 466 650 446 656 422 656 c 0
 372 656 337 639 311 604 c 0
 291 578 277 538 265 484 c 2
 162 0 l 1
 75 0 l 1xf0
EndSplineSet
EndChar
StartChar: ae
Encoding: 325 230 289
Width: 889
VWidth: 2048
Flags: W
HStem: -12 70<207 239> 238 72<540 898> 458 72<360 388 712 733>
VStem: 57 96<103 120> 828 87<338 359>
Fore
881 159 m 1
 820 44 731 -12 615 -12 c 0
 535 -12 478 20 443 86 c 1
 365 20 287 -12 207 -12 c 0
 158 -12 120 0 92 25 c 0
 69 44 57 71 57 103 c 0
 57 113 58 124 61 136 c 0
 81 228 169 284 326 303 c 0
 376 310 418 317 455 326 c 1
 460 346 l 2
 463 362 464 377 464 389 c 0
 464 408 461 423 452 434 c 0
 437 449 411 458 369 458 c 0
 287 458 233 425 210 357 c 1
 126 368 l 1
 170 477 258 530 386 530 c 0
 478 530 532 507 550 460 c 1
 601 507 662 530 731 530 c 0
 805 530 855 506 884 455 c 0
 904 422 915 383 915 340 c 0
 915 317 912 293 906 267 c 1
 898 238 l 1
 524 238 l 1
 520 215 517 193 517 175 c 0
 517 98 556 61 636 61 c 0
 707 61 757 97 792 170 c 1
 881 159 l 1
540 310 m 1
 825 310 l 1
 826 322 828 334 828 345 c 0
 828 420 791 458 716 458 c 0
 674 458 636 445 602 415 c 0
 569 388 549 353 540 310 c 1
443 261 m 1
 385 248 330 238 271 225 c 1
 204 208 166 181 156 139 c 0
 155 132 153 124 153 118 c 0
 153 78 181 58 239 58 c 0
 271 58 302 64 334 80 c 0
 368 97 392 118 408 146 c 0
 420 167 431 204 443 261 c 1
EndSplineSet
EndChar
StartChar: eth
Encoding: 335 240 299
Width: 554
VWidth: 2048
Flags: W
HStem: -12 72<268 289> 451 67<351 385>
VStem: 80 92<171 197> 486 95<319 353>
Fore
302 716 m 1
 408 716 l 1
 431 697 446 681 458 667 c 1
 573 716 l 1
 586 667 l 1
 494 625 l 1
 552 536 581 446 581 353 c 0
 581 320 578 287 570 254 c 0
 555 178 521 115 469 66 c 0
 414 14 348 -12 273 -12 c 0
 195 -12 141 12 109 63 c 0
 89 94 80 130 80 173 c 0
 80 198 83 224 89 253 c 0
 104 326 136 389 182 437 c 0
 233 492 296 518 366 518 c 0
 400 518 434 509 464 490 c 1
 452 529 437 564 415 595 c 1
 270 532 l 1
 259 582 l 1
 386 636 l 1
 362 665 334 691 302 716 c 1
480 258 m 0
 484 281 486 300 486 319 c 0
 486 345 481 369 472 389 c 0
 454 431 417 451 368 451 c 0
 316 451 274 429 241 386 c 0
 212 351 190 305 179 250 c 0
 175 227 172 205 172 185 c 0
 172 161 176 138 185 120 c 0
 202 80 236 60 287 60 c 0
 337 60 382 81 417 124 c 0
 448 159 468 204 480 258 c 0
EndSplineSet
EndChar
StartChar: divide
Encoding: 342 247 306
Width: 548
VWidth: 2048
Flags: W
HStem: 313 81<122 576>
Fore
319 451 m 1
 340 550 l 1
 440 550 l 1
 418 451 l 1
 319 451 l 1
576 313 m 1
 104 313 l 1
 123 394 l 1
 595 394 l 1
 576 313 l 1
258 156 m 1
 277 256 l 1
 377 256 l 1
 357 156 l 1
 258 156 l 1
EndSplineSet
EndChar
StartChar: oslash
Encoding: 343 248 307
Width: 610
VWidth: 2048
Flags: W
HStem: -12 73<303 331> 458 72<393 422>
VStem: 109 95<169 192> 524 92<313 347>
Fore
555 487 m 1
 616 550 l 1
 656 517 l 1
 590 449 l 1
 607 418 616 380 616 337 c 0
 616 313 613 287 607 259 c 0
 590 178 556 113 506 64 c 0
 451 14 383 -12 305 -12 c 0
 253 -12 210 2 176 28 c 1
 112 -38 l 1
 74 -3 l 1
 139 64 l 1
 120 95 109 130 109 175 c 0
 109 199 112 225 118 253 c 0
 135 334 169 400 219 449 c 0
 273 503 340 530 420 530 c 0
 469 530 513 517 555 487 c 1
492 423 m 1
 468 446 438 458 408 458 c 0
 356 458 311 437 276 395 c 0
 244 359 224 314 212 259 c 0
 205 233 204 210 204 190 c 0
 204 170 205 153 210 136 c 1
 492 423 l 1
518 377 m 1
 239 92 l 1
 261 71 288 61 319 61 c 0
 372 61 415 81 452 123 c 0
 484 158 504 204 517 259 c 0
 523 284 524 307 524 326 c 0
 524 345 523 362 518 377 c 1
EndSplineSet
EndChar
StartChar: thorn
Encoding: 349 254 313
Width: 554
VWidth: 2048
Flags: W
HStem: -12 73<285 309> 461 69<386 409>
VStem: 490 92<328 347>
Fore
23 -199 m 1
 218 716 l 1
 307 716 l 1
 253 464 l 1
 302 509 354 530 409 530 c 0
 483 530 532 503 559 448 c 0
 575 418 582 383 582 345 c 0
 582 319 579 293 573 264 c 0
 556 189 524 126 477 74 c 0
 423 17 360 -12 287 -12 c 0
 236 -12 195 11 166 54 c 1
 112 -199 l 1
 23 -199 l 1
199 256 m 0
 195 231 192 208 192 189 c 0
 192 166 195 144 201 126 c 0
 216 83 250 61 299 61 c 0
 348 61 389 83 425 129 c 0
 452 164 471 210 483 264 c 0
 487 288 490 311 490 333 c 0
 490 356 487 377 481 395 c 0
 466 440 434 461 386 461 c 0
 339 461 297 438 261 391 c 0
 231 353 212 308 199 256 c 0
EndSplineSet
EndChar
StartChar: dotlessi
Encoding: 351 305 315
Width: 277
VWidth: 2048
Flags: W
HStem: 0 21G<97 185>
Fore
97 0 m 1
 207 518 l 1
 296 518 l 1
 185 0 l 1
 97 0 l 1
EndSplineSet
EndChar
StartChar: OE
Encoding: 352 338 316
Width: 999
VWidth: 2048
Flags: W
HStem: -12 76<347 367> 0 84<655 969> 328 86<723 998> 632 84<699 1088> 651 77<487 509>
VStem: 124 100<227 261>
Fore
987 84 m 1x74
 969 0 l 1
 547 0 l 1x74
 569 103 l 1
 510 26 435 -12 349 -12 c 0
 250 -12 184 26 149 103 c 0
 132 139 124 182 124 231 c 0
 124 270 129 313 139 359 c 0
 161 464 201 550 258 615 c 0
 323 690 408 728 507 728 c 0xac
 593 728 650 691 679 619 c 1
 699 716 l 1
 1105 716 l 1
 1088 632 l 1
 771 632 l 1
 723 414 l 1
 1016 414 l 1
 998 328 l 1
 705 328 l 1
 655 84 l 1
 987 84 l 1x74
489 651 m 0xac
 362 651 279 552 236 351 c 0
 227 313 224 277 224 245 c 0
 224 215 227 187 235 162 c 0
 253 97 297 64 365 64 c 0
 437 64 495 100 541 169 c 0
 576 219 604 285 619 363 c 0
 628 403 633 440 633 472 c 0
 633 503 628 529 622 553 c 0
 602 619 558 651 489 651 c 0xac
EndSplineSet
EndChar
StartChar: oe
Encoding: 353 339 317
Width: 944
VWidth: 2048
Flags: W
HStem: -12 73<280 298 673 695> 236 72<593 958> 458 72<371 399 769 789>
VStem: 84 94<168 197> 884 85<331 357>
Fore
497 86 m 1
 434 20 362 -12 282 -12 c 0
 204 -12 149 12 116 63 c 0
 95 94 84 132 84 176 c 0
 84 201 87 225 94 253 c 0
 112 336 146 402 195 451 c 0
 250 504 317 530 399 530 c 0
 484 530 541 498 570 431 c 1
 630 498 700 530 782 530 c 0
 863 530 920 501 947 441 c 0
 961 412 969 376 969 333 c 0
 969 303 966 271 958 236 c 1
 575 236 l 1
 572 219 569 202 569 187 c 0
 569 159 576 135 589 113 c 0
 610 78 645 61 693 61 c 0
 760 61 811 97 848 169 c 1
 933 156 l 1
 880 44 792 -12 674 -12 c 0
 587 -12 527 20 497 86 c 1
185 261 m 0
 179 236 178 213 178 192 c 0
 178 166 181 144 190 124 c 0
 207 81 244 61 296 61 c 0
 346 61 388 83 425 126 c 0
 458 162 480 208 490 261 c 0
 495 284 498 303 498 323 c 0
 498 349 494 374 484 395 c 0
 466 437 431 458 380 458 c 0
 330 458 285 437 250 394 c 0
 219 359 198 314 185 261 c 0
593 308 m 1
 880 308 l 1
 883 322 884 336 884 348 c 0
 884 372 877 395 863 415 c 0
 842 443 812 458 771 458 c 0
 730 458 690 443 656 414 c 0
 622 385 601 349 593 308 c 1
EndSplineSet
EndChar
StartChar: florin
Encoding: 357 402 321
Width: 554
VWidth: 2048
Flags: W
HStem: -210 77<77 95> 451 67<286 357 475 547> 647 83<562.473 591>
Fore
-18 -198 m 1
 14 -123 l 1
 49 -129 74 -133 86 -133 c 0
 120 -133 146 -109 164 -58 c 2
 357 451 l 1
 259 451 l 1
 287 518 l 1
 385 518 l 1
 411 584 l 2
 429 633 451 668 472 690 c 0
 498 716 535 730 579 730 c 0
 607 730 639 723 681 710 c 1
 647 636 l 1
 618 644 593 647 576 647 c 0
 553 647 536 639 523 624 c 0
 513 615 506 596 495 569 c 2
 475 518 l 1
 575 518 l 1
 547 451 l 1
 448 451 l 1
 242 -83 l 2
 208 -169 158 -210 87 -210 c 0
 54 -210 18 -205 -18 -198 c 1
EndSplineSet
EndChar
StartChar: circumflex
Encoding: 358 710 322
Width: 332
VWidth: 2048
Flags: W
HStem: 582 138<271 445>
Fore
310 667 m 1
 238 582 l 1
 136 582 l 1
 271 720 l 1
 365 720 l 1
 445 582 l 1
 346 582 l 1
 310 667 l 1
EndSplineSet
EndChar
StartChar: caron
Encoding: 359 711 323
Width: 332
VWidth: 2048
Flags: W
HStem: 582 138<173 343>
Fore
310 638 m 1
 382 720 l 1
 481 720 l 1
 343 582 l 1
 250 582 l 1
 173 720 l 1
 274 720 l 1
 310 638 l 1
EndSplineSet
EndChar
StartChar: ring
Encoding: 361 730 324
Width: 332
VWidth: 2048
Flags: W
HStem: 563 36<285 298> 705 35<311 329>
VStem: 216 38<626 637> 360 37<666 676>
Fore
219 653 m 0
 224 677 236 699 256 716 c 0
 277 733 300 740 325 740 c 0
 349 740 369 733 382 714 c 0
 391 702 397 688 397 671 c 0
 397 665 395 659 394 651 c 0
 389 627 376 607 356 589 c 0
 334 570 311 563 287 563 c 0
 261 563 242 570 230 589 c 0
 221 599 216 613 216 628 c 0
 216 636 218 644 219 653 c 0
256 653 m 0
 254 647 254 641 254 635 c 0
 254 612 267 599 296 599 c 0
 310 599 322 604 334 615 c 0
 348 627 357 639 359 651 c 0
 360 658 360 664 360 668 c 0
 360 693 346 705 319 705 c 0
 284 705 262 688 256 653 c 0
EndSplineSet
EndChar
StartChar: tilde
Encoding: 362 732 325
Width: 332
VWidth: 2048
Flags: W
HStem: 688 20G<417 480>
Fore
130 596 m 1
 146 670 187 707 253 707 c 0
 273 707 299 697 330 681 c 0
 346 671 360 667 372 667 c 0
 392 667 408 681 417 708 c 1
 480 708 l 1
 464 635 425 598 362 598 c 0
 340 598 314 607 287 624 c 0
 267 636 251 642 242 642 c 0
 218 642 201 627 195 596 c 1
 130 596 l 1
EndSplineSet
EndChar
StartChar: quotesinglbase
Encoding: 365 8218 326
Width: 222
VWidth: 2048
Flags: W
HStem: -20 20G<61 106>
Fore
61 0 m 1
 83 101 l 1
 176 101 l 1
 159 21 l 2
 143 -58 104 -109 46 -132 c 1
 31 -98 l 1
 72 -83 95 -51 106 0 c 1
 61 0 l 1
EndSplineSet
EndChar
StartChar: quotedblbase
Encoding: 366 8222 327
Width: 332
VWidth: 2048
Flags: W
HStem: -20 20G<43 89 193 239>
Fore
43 0 m 1
 64 101 l 1
 158 101 l 1
 141 21 l 2
 124 -58 87 -109 29 -132 c 1
 12 -98 l 1
 54 -83 78 -51 89 0 c 1
 43 0 l 1
193 0 m 1
 215 101 l 1
 310 101 l 1
 293 21 l 2
 276 -57 238 -109 179 -132 c 1
 166 -98 l 1
 205 -83 228 -51 239 0 c 1
 193 0 l 1
EndSplineSet
EndChar
StartChar: dagger
Encoding: 367 8224 328
Width: 554
VWidth: 2048
Flags: W
HStem: 423 78<142 320 426 605> 680 20G<379 468>
Fore
195 -169 m 1
 320 423 l 1
 126 423 l 1
 143 501 l 1
 337 501 l 1
 379 700 l 1
 468 700 l 1
 426 501 l 1
 622 501 l 1
 605 423 l 1
 409 423 l 1
 284 -169 l 1
 195 -169 l 1
EndSplineSet
EndChar
StartChar: daggerdbl
Encoding: 368 8225 329
Width: 554
VWidth: 2048
Flags: W
HStem: 12 78<54 235 340 520> 445 78<145 326 431 612> 687 20G<382 471>
Fore
196 -169 m 1
 235 12 l 1
 38 12 l 1
 55 90 l 1
 251 90 l 1
 326 445 l 1
 130 445 l 1
 146 523 l 1
 342 523 l 1
 382 707 l 1
 471 707 l 1
 431 523 l 1
 627 523 l 1
 612 445 l 1
 415 445 l 1
 340 90 l 1
 536 90 l 1
 520 12 l 1
 323 12 l 1
 285 -169 l 1
 196 -169 l 1
EndSplineSet
EndChar
StartChar: perthousand
Encoding: 369 8240 330
Width: 999
VWidth: 2048
Flags: W
HStem: -26 60<507 525 837 854> 288 61<570 586 902 915> 346 62<233 252> 662 60<298 311>
VStem: 123 73<459 476> 346 76<597 615> 399 73<85 105> 622 75<222 238> 728 74<85 105> 952 75<222 238>
Fore
150 -26 m 1x99c0
 604 728 l 1
 668 728 l 1
 215 -26 l 1
 150 -26 l 1x99c0
132 536 m 0
 159 661 218 722 311 722 c 0
 385 722 422 684 422 609 c 0
 422 589 420 566 414 540 c 0
 386 411 325 346 233 346 c 0xbdc0
 159 346 123 385 123 461 c 0
 123 483 126 509 132 536 c 0
204 533 m 0
 199 510 196 490 196 474 c 0
 196 429 215 408 248 408 c 0
 291 408 320 449 339 533 c 0
 345 559 346 581 346 599 c 0
 346 641 331 662 300 662 c 0
 254 662 222 619 204 533 c 0
408 164 m 0
 434 288 492 349 586 349 c 0
 661 349 697 311 697 236 c 0
 697 216 694 192 688 166 c 0
 661 38 601 -26 507 -26 c 0
 435 -26 399 12 399 87 c 0xdbc0
 399 110 402 135 408 164 c 0
480 159 m 0
 475 136 472 116 472 101 c 0
 472 57 489 34 523 34 c 0
 567 34 598 77 615 161 c 0
 619 185 622 207 622 224 c 0
 622 267 607 288 575 288 c 0
 529 288 498 245 480 159 c 0
737 164 m 0
 763 288 822 349 915 349 c 0
 990 349 1027 311 1027 236 c 0
 1027 216 1024 192 1018 166 c 0
 990 38 930 -26 837 -26 c 0
 765 -26 728 12 728 87 c 0
 728 110 731 135 737 164 c 0
808 159 m 0
 803 138 802 118 802 103 c 0
 802 57 819 34 852 34 c 0
 897 34 927 77 944 161 c 0
 949 185 952 207 952 224 c 0
 952 267 937 288 904 288 c 0
 858 288 826 245 808 159 c 0
EndSplineSet
EndChar
StartChar: guilsinglleft
Encoding: 370 8249 331
Width: 332
VWidth: 2048
Flags: W
Fore
198 258 m 1
 279 35 l 1
 207 35 l 1
 100 258 l 1
 302 480 l 1
 374 480 l 1
 198 258 l 1
EndSplineSet
EndChar
